SplineFontDB: 3.0
FontName: VremenaGroteskBold
FullName: Vremena Grotesk Bold
FamilyName: Vremena Grotesk Bold
Weight: Normal
Copyright: Copyright (c) 2009 by abstrkt. All rights reserved.
Version: 001.001
ItalicAngle: 0
UnderlinePosition: -100
UnderlineWidth: 50
Ascent: 750
Descent: 250
InvalidEm: 0
sfntRevision: 0x00010000
LayerCount: 2
Layer: 0 0 "Arri+AOgA-re" 1
Layer: 1 0 "Avant" 0
XUID: [1021 809 1845788318 14140026]
StyleMap: 0x0000
FSType: 4
OS2Version: 2
OS2_WeightWidthSlopeOnly: 0
OS2_UseTypoMetrics: 0
CreationTime: 1251911142
ModificationTime: 1251911142
PfmFamily: 81
TTFWeight: 400
TTFWidth: 5
LineGap: 9
VLineGap: 0
Panose: 0 0 0 0 0 0 0 0 0 0
OS2TypoAscent: 750
OS2TypoAOffset: 0
OS2TypoDescent: -250
OS2TypoDOffset: 0
OS2TypoLinegap: 0
OS2WinAscent: 1035
OS2WinAOffset: 0
OS2WinDescent: 377
OS2WinDOffset: 0
HheadAscent: 750
HheadAOffset: 0
HheadDescent: -250
HheadDOffset: 0
OS2SubXSize: 700
OS2SubYSize: 650
OS2SubXOff: 0
OS2SubYOff: 140
OS2SupXSize: 700
OS2SupYSize: 650
OS2SupXOff: 0
OS2SupYOff: 477
OS2StrikeYSize: 50
OS2StrikeYPos: 250
OS2CapHeight: 720
OS2XHeight: 520
OS2Vendor: 'pyrs'
OS2CodePages: 00000007.00000000
OS2UnicodeRanges: 8000020f.0000000a.00000000.00000000
Lookup: 258 0 0 "'kern' Horizontal Kerning in Latin lookup 0" { "'kern' Horizontal Kerning in Latin lookup 0 per glyph data 0"  "'kern' Horizontal Kerning in Latin lookup 0 per glyph data 1"  } ['kern' ('latn' <'dflt' > ) ]
DEI: 91125
LangName: 1033 "" "" "Regular" "FONTLAB:OTFEXPORT" "VremenaGroteskBold" "" "" "Vremena Sans is a trademark of abstrkt." "abstrkt" "Roman Gornitsky" "Copyright (c) 2009 by abstrkt. All rights reserved." "" "http://abstrkt.ru" "" "" "" "Vremena Grotesk" "Bold"
Encoding: UnicodeBmp
Compacted: 1
UnicodeInterp: none
NameList: Adobe Glyph List
DisplaySize: -48
AntiAlias: 1
FitToEm: 0
WinInfo: 95 19 14
BeginPrivate: 2
BlueValues 23 [-15 0 520 535 720 735]
OtherBlues 11 [-210 -200]
EndPrivate
BeginChars: 65541 345

StartChar: afii10069
Encoding: 1076 1076 4
Width: 613
Flags: MW
HStem: -127 21G<5 150 5 5 453 598 453 453> 0 125<202 379> 395 125<253 379 253 253>
VStem: 5 145<-127 0 -127 125 -127 125> 113 140<320 395 247.5 520> 379 150<125 395 395 395> 453 145<-127 0 0 0>
LayerCount: 2
Fore
SplineSet
113 320 m 2xec
 113 520 l 1
 529 520 l 1
 529 125 l 1
 598 125 l 1
 598 -127 l 1
 453 -127 l 1
 453 0 l 1
 150 0 l 1xf2
 150 -127 l 1
 5 -127 l 1
 5 125 l 1
 24 125 l 2
 93 125 113 197 113 320 c 2xec
202 125 m 1
 379 125 l 1
 379 395 l 1
 253 395 l 1xec
 253 280 l 2
 253 215 246 148 202 125 c 1
EndSplineSet
Validated: 1
EndChar

StartChar: afii10070
Encoding: 1077 1077 5
Width: 558
Flags: MW
HStem: -15 125<259.5 317 259.5 345.5> 217 102<177 381 177 532 175 381> 410 125<254 308>
VStem: 25 150<217 217 217 356> 381 152<319 319>
LayerCount: 2
Fore
SplineSet
532 217 m 2
 175 217 l 1
 179 145 226 110 293 110 c 0
 341 110 372 137 384 170 c 1
 524 141 l 1
 485 38 408 -15 283 -15 c 0
 149 -15 25 68 25 260 c 0
 25 452 150 535 283 535 c 0
 414 535 533 455 533 281 c 0
 533 250 532 219 532 217 c 2
279 410 m 0
 229 410 183 376 177 319 c 1
 381 319 l 1
 377 374 337 410 279 410 c 0
EndSplineSet
Validated: 1
EndChar

StartChar: afii10072
Encoding: 1078 1078 6
Width: 792
Flags: MW
HStem: 0 21G<20 185 20 20 321 471 321 321 607 607 607 772> 200 125<294 321 309 321 471 483> 387 133<54 73 54 54 719 738>
VStem: 321 150<0 200 0 200 325 520>
LayerCount: 2
Fore
SplineSet
471 200 m 1
 471 0 l 1
 321 0 l 1
 321 200 l 1
 309 200 l 2
 279 200 268 185 249 149 c 2
 185 0 l 1
 20 0 l 1
 106 173 l 1
 137 224 164 257 199 265 c 1
 199 269 l 1
 160 279 143 308 127 342 c 0
 111 376 108 387 73 387 c 2
 54 387 l 1
 44 520 l 1
 73 520 l 2
 144 520 178 512 215 453 c 0
 225 437 242 387 256 359 c 0
 272 328 289 325 309 325 c 2
 321 325 l 1
 321 520 l 1
 471 520 l 1
 471 325 l 1
 483 325 l 2
 503 325 520 328 536 359 c 0
 550 387 567 437 577 453 c 0
 614 512 648 520 719 520 c 2
 748 520 l 1
 738 387 l 1
 719 387 l 2
 684 387 681 376 665 342 c 0
 649 308 632 279 593 269 c 1
 593 265 l 1
 628 257 655 224 686 173 c 1
 772 0 l 1
 607 0 l 1
 543 149 l 2
 524 185 513 200 483 200 c 2
 471 200 l 1
EndSplineSet
Validated: 1
EndChar

StartChar: afii10073
Encoding: 1079 1079 7
Width: 489
Flags: MW
HStem: -15 122<225.5 267.5 225.5 301> 215 108<212 243 212 243 243 254> 413 122<219 257.5>
VStem: 212 232<215 432 323 432> 294 150<354.5 379> 321 143<145.5 183.5>
LayerCount: 2
Fore
SplineSet
212 215 m 1xe4
 212 323 l 1
 227 323 240 323 243 323 c 0
 284 323 294 342 294 367 c 0xf0
 294 391 277 413 238 413 c 0
 200 413 177 394 169 361 c 1
 39 384 l 1
 58 484 135 535 244 535 c 0
 359 535 444 482 444 382 c 0
 444 310 392 281 356 275 c 1
 409 269 464 224 464 155 c 0xe8
 464 33 357 -15 245 -15 c 0
 127 -15 44 37 25 146 c 1
 163 164 l 1
 171 121 207 107 244 107 c 0
 291 107 321 127 321 164 c 0
 321 203 292 215 254 215 c 2
 212 215 l 1xe4
EndSplineSet
Validated: 1
EndChar

StartChar: afii10074
Encoding: 1080 1080 8
Width: 590
Flags: MW
HStem: 0 21G<55 55 55 212 385 385 385 535> 500 20G<55 205 205 205 378 535 535 535>
VStem: 55 150<216 520 216 520 216 520> 385 150<0 301 301 301>
LayerCount: 2
Fore
SplineSet
55 0 m 1
 55 520 l 1
 205 520 l 1
 205 216 l 1
 378 520 l 1
 535 520 l 1
 535 0 l 1
 385 0 l 1
 385 301 l 1
 212 0 l 1
 55 0 l 1
EndSplineSet
Validated: 1
EndChar

StartChar: afii10075
Encoding: 1081 1081 9
Width: 590
Flags: MW
HStem: 0 21G<55 55 55 212 385 385 385 535> 500 20G<55 205 205 205 378 535 535 535> 573 91<281 309 281 345> 573 147<126 345>
VStem: 55 150<216 520 216 520 216 520> 385 150<0 301 301 301>
LayerCount: 2
Fore
SplineSet
359 720 m 1xdc
 464 720 l 1
 464 625 395 573 295 573 c 0
 195 573 126 626 126 720 c 1
 231 720 l 1
 236 680 267 664 295 664 c 0
 323 664 354 680 359 720 c 1xdc
55 0 m 1
 55 520 l 1
 205 520 l 1
 205 216 l 1
 378 520 l 1
 535 520 l 1xdc
 535 0 l 1xec
 385 0 l 1
 385 301 l 1
 212 0 l 1
 55 0 l 1
EndSplineSet
Validated: 1
EndChar

StartChar: afii10076
Encoding: 1082 1082 10
Width: 561
Flags: MW
HStem: 0 21G<55 55 55 205 376 376 376 541> 392 128 505 20G<488 519 519 519>
VStem: 55 150<0 200 325 520>
LayerCount: 2
Fore
SplineSet
55 0 m 1xd0
 55 520 l 1
 205 520 l 1
 205 325 l 1
 222 325 l 2
 252 325 272 328 298 359 c 0
 318 383 336 437 345 453 c 0
 377 512 417 525 488 525 c 2
 519 525 l 1
 504 392 l 1
 488 392 l 2
 453 392 445 376 429 342 c 0
 413 308 392 283 347 274 c 1
 347 270 l 1
 392 259 431 222 455 173 c 2xd0
 541 0 l 1
 376 0 l 1
 307 149 l 2
 288 185 262 200 222 200 c 2
 205 200 l 1
 205 0 l 1xb0
 55 0 l 1xd0
EndSplineSet
Validated: 1
EndChar

StartChar: afii10077
Encoding: 1083 1083 11
Width: 595
Flags: MW
HStem: -15 123<52 162.5> 0 21G<20 20 390 540 390 390> 395 125<254 390 254 254>
VStem: 20 234<0 207 119 207> 114 140<257 395> 390 150<0 395 395 395>
LayerCount: 2
Fore
SplineSet
114 257 m 2xac
 114 520 l 1
 540 520 l 1
 540 0 l 1x6c
 390 0 l 1
 390 395 l 1xb4
 254 395 l 1
 254 207 l 2
 254 97 224 -15 101 -15 c 0
 72 -15 29 -5 20 0 c 1x74
 20 119 l 1
 31 113 45 108 59 108 c 0
 118 107 114 184 114 257 c 2xac
EndSplineSet
Validated: 33
EndChar

StartChar: afii10078
Encoding: 1084 1084 12
Width: 737
Flags: MW
HStem: 0 21G<55 55 55 205 307 307 307 426 532 532 532 682> 500 20G<55 256 256 256 494 682 682 682>
VStem: 55 150<0 295 0 520> 532 150<0 295 295 295>
LayerCount: 2
Fore
SplineSet
55 0 m 1
 55 520 l 1
 256 520 l 1
 368 174 l 1
 494 520 l 1
 682 520 l 1
 682 0 l 1
 532 0 l 1
 532 295 l 1
 426 0 l 1
 307 0 l 1
 205 295 l 1
 205 0 l 1
 55 0 l 1
EndSplineSet
Validated: 1
EndChar

StartChar: afii10079
Encoding: 1085 1085 13
Width: 580
Flags: MW
HStem: 0 21G<55 55 55 205 375 375 375 525> 200 125<205 375 205 375> 500 20G<55 205 205 205 375 525 525 525>
VStem: 55 150<0 200 325 520> 375 150<0 200 200 200 325 520 0 520>
LayerCount: 2
Fore
SplineSet
55 0 m 1
 55 520 l 1
 205 520 l 1
 205 325 l 1
 375 325 l 1
 375 520 l 1
 525 520 l 1
 525 0 l 1
 375 0 l 1
 375 200 l 1
 205 200 l 1
 205 0 l 1
 55 0 l 1
EndSplineSet
Validated: 1
EndChar

StartChar: afii10080
Encoding: 1086 1086 14
Width: 566
Flags: MW
HStem: -15 125<248.5 317.5 248.5 352.5> 410 125<248.5 317.5>
VStem: 25 150<211.5 308.5 211.5 356> 391 150<211.5 308.5>
LayerCount: 2
Fore
SplineSet
25 260 m 0
 25 452 144 535 283 535 c 0
 422 535 541 452 541 260 c 0
 541 68 422 -15 283 -15 c 0
 144 -15 25 68 25 260 c 0
175 260 m 0
 175 163 214 110 283 110 c 0
 352 110 391 163 391 260 c 0
 391 357 352 410 283 410 c 0
 214 410 175 357 175 260 c 0
EndSplineSet
Validated: 1
EndChar

StartChar: afii10081
Encoding: 1087 1087 15
Width: 580
Flags: MW
HStem: 0 21G<55 55 55 205 375 375 375 525> 395 125<205 375 205 205>
VStem: 55 150<0 395 0 520 0 520> 375 150<0 395 395 395>
LayerCount: 2
Fore
SplineSet
55 0 m 1
 55 520 l 1
 525 520 l 1
 525 0 l 1
 375 0 l 1
 375 395 l 1
 205 395 l 1
 205 0 l 1
 55 0 l 1
EndSplineSet
Validated: 1
EndChar

StartChar: afii10082
Encoding: 1088 1088 16
Width: 580
Flags: MW
HStem: -200 21G<55 205 55 55> -15 125<305 331 267 388> 410 110<55 329.5> 410 125<301.5 329.5>
VStem: 55 139<209 311 209 520> 405 150<209 311>
LayerCount: 2
Fore
SplineSet
205 -200 m 1xdc
 55 -200 l 1
 55 520 l 1
 195 520 l 1
 195 459 l 1
 225 509 272 535 331 535 c 0
 455 535 555 442 555 260 c 0
 555 78 450 -15 326 -15 c 0
 284 -15 235 -2 205 45 c 1
 205 -200 l 1xdc
194 260 m 0
 194 158 235 110 299 110 c 0
 363 110 405 158 405 260 c 0xec
 405 362 359 410 300 410 c 0
 241 410 194 362 194 260 c 0
EndSplineSet
Validated: 1
EndChar

StartChar: afii10083
Encoding: 1089 1089 17
Width: 538
Flags: MW
HStem: -15 125<240.5 297 240.5 329> 410 125<242 297>
VStem: 25 150<211.5 308.5 211.5 356>
LayerCount: 2
Fore
SplineSet
175 260 m 0
 175 163 208 110 273 110 c 0
 321 110 354 135 365 196 c 1
 513 175 l 1
 485 36 385 -15 273 -15 c 0
 139 -15 25 68 25 260 c 0
 25 452 139 535 273 535 c 0
 385 535 485 483 513 344 c 1
 366 322 l 1
 355 384 321 410 273 410 c 0
 211 410 175 357 175 260 c 0
EndSplineSet
Validated: 1
EndChar

StartChar: afii10084
Encoding: 1090 1090 18
Width: 504
Flags: MW
HStem: -1 21G<177 327 177 177> 395 125<20 484 20 177 327 327 327 484>
VStem: 177 150<-1 395 -1 395>
LayerCount: 2
Fore
SplineSet
20 395 m 1
 20 520 l 1
 484 520 l 1
 484 395 l 1
 327 395 l 1
 327 -1 l 1
 177 -1 l 1
 177 395 l 1
 20 395 l 1
EndSplineSet
Validated: 1
EndChar

StartChar: afii10085
Encoding: 1091 1091 19
Width: 560
Flags: MW
HStem: -210 134<129.5 141.5 104.5 195.5> 500 20G<10 163 163 163 402 550 550 550>
LayerCount: 2
Fore
SplineSet
71 -195 m 1
 61 -62 l 1
 78 -69 87 -76 122 -76 c 0
 161 -76 187 -62 207 -9 c 2
 212 5 l 1
 10 520 l 1
 163 520 l 1
 283 177 l 1
 402 520 l 1
 550 520 l 1
 347 -29 l 2
 303 -149 243 -210 148 -210 c 0
 111 -210 90 -202 71 -195 c 1
EndSplineSet
Validated: 1
EndChar

StartChar: afii10086
Encoding: 1092 1092 20
Width: 840
Flags: MW
HStem: -200 21G<345 495 345 345> -15 125<247 265 575 592> 410 125<246 263.5 164.5 287 576.5 593> 715 20G<495 495>
VStem: 25 149<201.5 316 201.5 338.5> 345 150<-200 45 479 695 695 695> 665 150<201.5 316>
LayerCount: 2
Fore
SplineSet
484 260 m 0
 484 143 523 110 569 110 c 0
 615 110 665 143 665 260 c 0
 665 372 616 410 570 410 c 0
 534 410 484 382 484 260 c 0
355 260 m 0
 355 382 305 410 269 410 c 0
 223 410 174 372 174 260 c 0
 174 143 224 110 270 110 c 0
 316 110 355 143 355 260 c 0
495 -200 m 1
 345 -200 l 1
 345 45 l 1
 326 13 296 -15 234 -15 c 0
 110 -15 25 103 25 260 c 0
 25 417 100 535 229 535 c 0
 298 535 331 501 345 479 c 1
 345 695 l 1
 495 735 l 1
 495 479 l 1
 509 501 542 535 611 535 c 0
 740 535 815 417 815 260 c 0
 815 103 730 -15 606 -15 c 0
 544 -15 514 13 495 45 c 1
 495 -200 l 1
EndSplineSet
Validated: 1
EndChar

StartChar: afii10087
Encoding: 1093 1093 21
Width: 575
Flags: MW
HStem: 0 21G<15 187 15 15 382 382 382 560> 500 20G<27 208 208 208 377 546 546 546>
LayerCount: 2
Fore
SplineSet
187 0 m 1
 15 0 l 1
 195 266 l 1
 27 520 l 1
 208 520 l 1
 292 372 l 1
 377 520 l 1
 546 520 l 1
 385 269 l 1
 560 0 l 1
 382 0 l 1
 284 160 l 1
 187 0 l 1
EndSplineSet
Validated: 1
EndChar

StartChar: afii10088
Encoding: 1094 1094 22
Width: 609
Flags: MW
HStem: -127 21G<449 594 449 449> 0 125<205 375 205 449> 500 20G<55 205 205 205 375 525 525 525>
VStem: 55 150<125 520 125 520 125 520> 375 150<125 520 125 520> 449 145<-127 0 0 0>
LayerCount: 2
Fore
SplineSet
55 0 m 1xf4
 55 520 l 1
 205 520 l 1
 205 125 l 1
 375 125 l 1
 375 520 l 1
 525 520 l 1xf8
 525 125 l 1
 594 125 l 1
 594 -127 l 1
 449 -127 l 1
 449 0 l 1
 55 0 l 1xf4
EndSplineSet
Validated: 1
EndChar

StartChar: afii10089
Encoding: 1095 1095 23
Width: 555
Flags: MW
HStem: 0 21G<350 500 350 350> 154 118<229.5 249.5> 500 20G<35 185 185 185 350 500 500 500>
VStem: 35 150<356 400 400 520 356 520> 350 150<0 189 189 189 304 520 0 520>
LayerCount: 2
Fore
SplineSet
35 353 m 2
 35 520 l 1
 185 520 l 1
 185 400 l 2
 185 312 198 272 261 272 c 0
 294 272 330 284 350 304 c 1
 350 520 l 1
 500 520 l 1
 500 0 l 1
 350 0 l 1
 350 189 l 1
 316 168 272 154 227 154 c 0
 92 154 35 233 35 353 c 2
EndSplineSet
Validated: 1
EndChar

StartChar: afii10090
Encoding: 1096 1096 24
Width: 806
Flags: MW
HStem: 0 125<205 328 478 601> 500 20G<55 205 205 205 328 478 478 478 601 751 751 751>
VStem: 55 150<125 520 125 520 125 520> 328 150<125 520 125 520> 601 150<125 520 0 520>
CounterMasks: 1 38
LayerCount: 2
Fore
SplineSet
55 0 m 1
 55 520 l 1
 205 520 l 1
 205 125 l 1
 328 125 l 1
 328 520 l 1
 478 520 l 1
 478 125 l 1
 601 125 l 1
 601 520 l 1
 751 520 l 1
 751 0 l 1
 55 0 l 1
EndSplineSet
Validated: 1
EndChar

StartChar: afii10091
Encoding: 1097 1097 25
Width: 835
Flags: MW
HStem: -127 21G<675 820 675 675> 0 125<205 328 478 601> 500 20G<55 205 205 205 328 478 478 478 601 751 751 751>
VStem: 55 150<125 520 125 520 125 520> 328 150<125 520 125 520> 601 150<125 520 125 520> 675 145<-127 0 0 0>
LayerCount: 2
Fore
SplineSet
751 520 m 1xfa
 751 125 l 1
 820 125 l 1
 820 -127 l 1
 675 -127 l 1
 675 0 l 1
 55 0 l 1
 55 520 l 1
 205 520 l 1
 205 125 l 1
 328 125 l 1
 328 520 l 1
 478 520 l 1xfc
 478 125 l 1
 601 125 l 1
 601 520 l 1
 751 520 l 1xfa
EndSplineSet
Validated: 1
EndChar

StartChar: afii10092
Encoding: 1098 1098 26
Width: 574
Flags: MW
HStem: 0 122<270 293 293 329.5 270 362> 243 112<270 332 270 302> 397 123<10 270 10 120>
VStem: 120 150<122 243 355 397 397 397> 402 152<158.5 205.5>
LayerCount: 2
Fore
SplineSet
10 397 m 1
 10 520 l 1
 270 520 l 1
 270 355 l 1
 332 355 l 2
 443 355 554 319 554 182 c 0
 554 57 448 0 362 0 c 2
 120 0 l 1
 120 397 l 1
 10 397 l 1
270 243 m 1
 270 122 l 1
 293 122 l 2
 366 122 402 135 402 182 c 0
 402 229 367 243 302 243 c 2
 270 243 l 1
EndSplineSet
Validated: 1
EndChar

StartChar: afii10093
Encoding: 1099 1099 27
Width: 750
Flags: MW
HStem: 0 122<205 228 228 264.5 205 297> 243 112<205 267 205 237> 500 20G<55 205 205 205 545 695 695 695>
VStem: 55 150<122 243 355 520> 337 152<158.5 205.5> 545 150<0 520 0 520>
LayerCount: 2
Fore
SplineSet
545 0 m 1
 545 520 l 1
 695 520 l 1
 695 0 l 1
 545 0 l 1
55 0 m 1
 55 520 l 1
 205 520 l 1
 205 355 l 1
 267 355 l 2
 378 355 489 319 489 182 c 0
 489 57 383 0 297 0 c 2
 55 0 l 1
205 243 m 1
 205 122 l 1
 228 122 l 2
 301 122 337 135 337 182 c 0
 337 229 302 243 237 243 c 2
 205 243 l 1
EndSplineSet
Validated: 1
EndChar

StartChar: afii10094
Encoding: 1100 1100 28
Width: 509
Flags: MW
HStem: 0 122<205 228 228 264.5 205 297> 243 112<205 267 205 237> 500 20G<55 205 205 205>
VStem: 55 150<122 243 355 520> 337 152<158.5 205.5>
LayerCount: 2
Fore
SplineSet
55 0 m 1
 55 520 l 1
 205 520 l 1
 205 355 l 1
 267 355 l 2
 378 355 489 319 489 182 c 0
 489 57 383 0 297 0 c 2
 55 0 l 1
205 243 m 1
 205 122 l 1
 228 122 l 2
 301 122 337 135 337 182 c 0
 337 229 302 243 237 243 c 2
 205 243 l 1
EndSplineSet
Validated: 1
EndChar

StartChar: afii10095
Encoding: 1101 1101 29
Width: 538
Flags: MW
HStem: -15 125<246 295 246 339.5> 210 105<220 368 220 368 220 369> 410 125<251 298>
VStem: 369 154<210 210>
LayerCount: 2
Fore
SplineSet
220 210 m 1
 220 315 l 1
 368 315 l 1
 363 377 321 410 275 410 c 0
 227 410 186 386 177 322 c 1
 30 344 l 1
 59 483 164 535 276 535 c 0
 415 535 523 447 523 260 c 0
 523 68 409 -15 270 -15 c 0
 158 -15 53 33 25 175 c 1
 173 196 l 1
 184 135 222 110 270 110 c 0
 320 110 365 134 369 210 c 1
 220 210 l 1
EndSplineSet
Validated: 1
EndChar

StartChar: afii10096
Encoding: 1102 1102 30
Width: 781
Flags: MW
HStem: -15 125<477 539 477 572.5> 0 21G<55 55 55 205> 410 125<477 539> 500 20G<55 205 205 205>
VStem: 55 150<0 200 325 520> 606 150<211.5 308.5>
LayerCount: 2
Fore
SplineSet
55 0 m 1x6c
 55 520 l 1
 205 520 l 1x5c
 205 325 l 1
 265 325 l 1
 289 471 395 535 508 535 c 0
 637 535 756 452 756 260 c 0
 756 68 637 -15 508 -15 c 0xac
 394 -15 286 50 264 200 c 1
 205 200 l 1
 205 0 l 1
 55 0 l 1x6c
410 260 m 0
 410 163 446 110 508 110 c 0
 570 110 606 163 606 260 c 0
 606 357 570 410 508 410 c 0xac
 446 410 410 357 410 260 c 0
EndSplineSet
Validated: 1
EndChar

StartChar: afii10097
Encoding: 1103 1103 31
Width: 533
Flags: MW
HStem: 0 21G<10 173 10 10 338 478 338 338> 171 113<307 320 320 338> 405 115<253 281 281 338>
VStem: 44 154<326.5 362 326.5 407.5> 338 140<0 171 171 171 284 405 405 405>
LayerCount: 2
Fore
SplineSet
253 520 m 2
 478 520 l 1
 478 0 l 1
 338 0 l 1
 338 171 l 1
 320 171 l 2
 264 171 237 145 217 100 c 2
 173 0 l 1
 10 0 l 1
 70 124 l 2
 93 172 134 218 193 224 c 1
 115 222 44 278 44 355 c 0
 44 460 134 520 253 520 c 2
338 284 m 1
 338 405 l 1
 281 405 l 2
 218 405 198 377 198 347 c 0
 198 306 223 284 307 284 c 2
 338 284 l 1
EndSplineSet
Validated: 33
EndChar

StartChar: afii10017
Encoding: 1040 1040 32
Width: 730
Flags: MW
HStem: 0 21G<10 173 10 10 555 720 555 555> 130 132<269 459 269 507 220 459> 700 20G<296 440 440 440>
LayerCount: 2
Fore
SplineSet
296 720 m 1
 440 720 l 1
 720 0 l 1
 555 0 l 1
 507 130 l 1
 220 130 l 1
 173 0 l 1
 10 0 l 1
 296 720 l 1
364 521 m 1
 269 262 l 1
 459 262 l 1
 364 521 l 1
EndSplineSet
Validated: 1
EndChar

StartChar: afii10018
Encoding: 1041 1041 33
Width: 682
Flags: MW
HStem: 0 140<230 378 378 385> 320 140<230 383 230 370> 575 145<230 593 230 230>
VStem: 70 160<140 320 460 575> 479 163<205 257.5>
LayerCount: 2
Fore
SplineSet
70 720 m 1
 593 720 l 1
 593 575 l 1
 230 575 l 1
 230 460 l 1
 383 460 l 2
 542 460 642 376 642 231 c 0
 642 56 520 0 385 0 c 2
 70 0 l 1
 70 720 l 1
230 320 m 1
 230 140 l 1
 378 140 l 2
 453 140 479 176 479 234 c 0
 479 281 453 320 370 320 c 2
 230 320 l 1
EndSplineSet
Validated: 1
EndChar

StartChar: afii10019
Encoding: 1042 1042 34
Width: 684
Flags: MW
HStem: 0 125<225 363 363 373> 305 125<225 344 225 344 344 350> 595 125<225 225 225 332>
VStem: 70 155<125 305 430 595> 457 158<499 550> 483 161<179 241.5>
LayerCount: 2
Fore
SplineSet
373 0 m 2xf4
 70 0 l 1
 70 720 l 1
 363 720 l 2
 509 720 615 661 615 533 c 0
 615 465 580 402 501 376 c 1
 587 355 644 293 644 208 c 0
 644 56 536 0 373 0 c 2xf4
225 595 m 1xf8
 225 430 l 1xf4
 344 430 l 2
 417 430 457 463 457 521 c 0
 457 579 406 595 332 595 c 2
 225 595 l 1xf8
225 305 m 1
 225 125 l 1
 363 125 l 2xf8
 441 125 483 150 483 208 c 0
 483 275 433 305 350 305 c 2
 225 305 l 1
EndSplineSet
Validated: 1
EndChar

StartChar: afii10020
Encoding: 1043 1043 35
Width: 583
Flags: MW
HStem: 0 21G<70 70 70 230> 575 145<230 553 230 230>
VStem: 70 160<0 575 0 720 0 720>
LayerCount: 2
Fore
SplineSet
70 0 m 1
 70 720 l 1
 553 720 l 1
 553 575 l 1
 230 575 l 1
 230 0 l 1
 70 0 l 1
EndSplineSet
Validated: 1
EndChar

StartChar: afii10021
Encoding: 1044 1044 36
Width: 797
Flags: MW
HStem: -169 21G<10 170 10 10 607 767 607 607> 0 144<229 521 10 170> 575 145<317 521 317 317>
VStem: 10 160<-169 0 -169 144 -169 144> 162 155<512 563 563 575 472.5 720> 521 160<144 575 575 575> 607 160<-169 0 0 0>
LayerCount: 2
Fore
SplineSet
162 512 m 2xec
 162 720 l 1
 681 720 l 1
 681 144 l 1
 767 144 l 1
 767 -169 l 1
 607 -169 l 1
 607 0 l 1
 170 0 l 1xf2
 170 -169 l 1
 10 -169 l 1
 10 144 l 1
 48 144 l 2
 163 144 162 349 162 512 c 2xec
521 144 m 1
 521 575 l 1
 317 575 l 1
 317 563 l 2xec
 317 382 321 188 229 144 c 1
 521 144 l 1
EndSplineSet
Validated: 33
EndChar

StartChar: afii10022
Encoding: 1045 1045 37
Width: 657
Flags: MW
HStem: 0 145<230 607 230 607> 295 145<230 547 230 547> 575 145<230 597 230 230>
VStem: 70 160<145 295 440 575>
LayerCount: 2
Fore
SplineSet
607 0 m 1
 70 0 l 1
 70 720 l 1
 597 720 l 1
 597 575 l 1
 230 575 l 1
 230 440 l 1
 547 440 l 1
 547 295 l 1
 230 295 l 1
 230 145 l 1
 607 145 l 1
 607 0 l 1
EndSplineSet
Validated: 1
EndChar

StartChar: afii10024
Encoding: 1046 1046 38
Width: 1040
Flags: MW
HStem: 0 21G<30 217 30 30 440 600 440 440 823 823 823 1010> 295 135<395.5 440 426 440 426 440 600 614 614 616> 573 147<59 85 59 106 938.5 955 955 981>
VStem: 440 160<0 295 0 295 430 720>
LayerCount: 2
Fore
SplineSet
600 295 m 1
 600 0 l 1
 440 0 l 1
 440 295 l 1
 424 295 l 2
 367 295 330 272 298 194 c 2
 217 0 l 1
 30 0 l 1
 144 238 l 2
 181 315 248 361 299 368 c 1
 256 374 231 405 215 433 c 2
 169 512 l 2
 139 563 118 573 85 573 c 2
 59 573 l 1
 59 720 l 1
 106 720 l 2
 168 720 210 719 264 628 c 2
 340 499 l 2
 362 462 380 430 426 430 c 2
 440 430 l 1
 440 720 l 1
 600 720 l 1
 600 430 l 1
 614 430 l 2
 660 430 678 462 700 499 c 2
 776 628 l 2
 830 719 872 720 934 720 c 2
 981 720 l 1
 981 573 l 1
 955 573 l 2
 922 573 901 563 871 512 c 2
 825 433 l 2
 809 405 784 374 741 368 c 1
 792 361 859 315 896 238 c 2
 1010 0 l 1
 823 0 l 1
 742 194 l 2
 710 272 673 295 616 295 c 2
 600 295 l 1
EndSplineSet
Validated: 1
EndChar

StartChar: afii10025
Encoding: 1047 1047 39
Width: 630
Flags: MW
HStem: -15 137<269.5 351.5 269.5 383> 305 130<245 310 245 310 310 320> 595 140<273.5 335.5>
VStem: 403 154<494.5 540> 433 157<185 247>
LayerCount: 2
Fore
SplineSet
245 305 m 5xe8
 245 435 l 5
 310 435 l 6
 382 435 403 467 403 514 c 4
 403 566 365 595 306 595 c 4
 241 595 204 566 195 507 c 5
 50 535 l 5
 71 664 169 735 307 735 c 4
 434 735 557 666 557 533 c 4
 557 456 515 400 452 376 c 5
 542 360 590 290 590 209 c 4xf0
 590 49 450 -15 316 -15 c 4
 181 -15 56 39 30 202 c 5
 177 226 l 5
 194 161 227 122 312 122 c 4
 391 122 433 154 433 216 c 4
 433 278 385 305 320 305 c 6
 245 305 l 5xe8
EndSplineSet
Validated: 1
EndChar

StartChar: afii10026
Encoding: 1048 1048 40
Width: 767
Flags: MW
HStem: 0 21G<70 240 70 70 537 537 537 697> 700 20G<70 230 230 230 527 697 697 697>
VStem: 70 160<235 720 235 720 235 720> 537 160<0 490 490 490>
LayerCount: 2
Fore
SplineSet
240 0 m 1
 70 0 l 1
 70 720 l 1
 230 720 l 1
 230 235 l 1
 527 720 l 1
 697 720 l 1
 697 0 l 1
 537 0 l 1
 537 490 l 1
 240 0 l 1
EndSplineSet
Validated: 1
EndChar

StartChar: afii10027
Encoding: 1049 1049 41
Width: 767
Flags: MW
HStem: 0 21G<70 240 70 70 537 537 537 697> 700 20G<70 230 230 230 527 697 697 697> 753 94<363 401 363 447> 753 167<317 320 200 447>
VStem: 70 160<235 720 235 720 235 720> 200 120<895 920 895 920> 448 120<895 920> 537 160<0 490 490 490>
LayerCount: 2
Fore
SplineSet
448 920 m 1xd9
 568 920 l 1
 568 825 512 753 382 753 c 0
 252 753 200 826 200 920 c 1
 320 920 l 1
 320 870 344 847 382 847 c 0
 420 847 448 870 448 920 c 1xd9
240 0 m 1
 70 0 l 1
 70 720 l 1
 230 720 l 1
 230 235 l 1xd6
 527 720 l 1xea
 697 720 l 1xda
 697 0 l 1
 537 0 l 1
 537 490 l 1
 240 0 l 1
EndSplineSet
Validated: 1
EndChar

StartChar: afii10028
Encoding: 1050 1050 42
Width: 710
Flags: MW
HStem: 0 21G<70 70 70 230 503 503 503 690> 295 135<230 246 230 264> 573 147<614 641>
VStem: 70 160<0 295 430 720>
LayerCount: 2
Fore
SplineSet
70 0 m 1
 70 720 l 1
 230 720 l 1
 230 430 l 1
 264 430 l 2
 310 430 328 462 350 499 c 2
 426 628 l 2
 480 719 552 720 614 720 c 2
 651 720 l 1
 641 573 l 1
 605 573 l 2
 572 573 551 563 521 512 c 2
 475 433 l 2
 459 405 434 374 391 368 c 1
 442 361 501 311 546 238 c 2
 690 0 l 1
 503 0 l 1
 392 194 l 2
 350 267 313 295 246 295 c 2
 230 295 l 1
 230 0 l 1
 70 0 l 1
EndSplineSet
Validated: 1
EndChar

StartChar: afii10029
Encoding: 1051 1051 43
Width: 756
Flags: MW
HStem: -15 150<89.5 105.5 50.5 191.5> 0 21G<526 686 526 526> 575 145<302 526 302 302>
VStem: 147 155<412 575> 526 160<0 575 575 575>
LayerCount: 2
Fore
SplineSet
147 412 m 2xb8
 147 720 l 1
 686 720 l 1
 686 0 l 1
 526 0 l 1
 526 575 l 1
 302 575 l 1
 302 373 l 2
 302 161 278 -15 105 -15 c 0
 74 -15 32 -7 15 5 c 1x78
 10 152 l 1
 22 145 38 135 63 135 c 0
 148 135 147 249 147 412 c 2xb8
EndSplineSet
Validated: 33
EndChar

StartChar: afii10030
Encoding: 1052 1052 44
Width: 923
Flags: MW
HStem: 0 21G<70 230 70 70 394 394 394 529 693 693 693 853> 700 20G<70 270 270 270 653 853 853 853>
VStem: 70 160<0 443> 693 160<0 443 443 443>
LayerCount: 2
Fore
SplineSet
230 0 m 1
 70 0 l 1
 70 720 l 1
 270 720 l 1
 462 193 l 1
 653 720 l 1
 853 720 l 1
 853 0 l 1
 693 0 l 1
 693 443 l 1
 529 0 l 1
 394 0 l 1
 230 443 l 1
 230 0 l 1
EndSplineSet
Validated: 1
EndChar

StartChar: afii10031
Encoding: 1053 1053 45
Width: 747
Flags: MW
HStem: 0 21G<70 230 70 70 517 517 517 677> 295 145<230 517 230 517> 700 20G<70 230 230 230 517 677 677 677>
VStem: 70 160<0 295 440 720> 517 160<0 295 295 295 440 720 0 720>
LayerCount: 2
Fore
SplineSet
230 0 m 1
 70 0 l 1
 70 720 l 1
 230 720 l 1
 230 440 l 1
 517 440 l 1
 517 720 l 1
 677 720 l 1
 677 0 l 1
 517 0 l 1
 517 295 l 1
 230 295 l 1
 230 0 l 1
EndSplineSet
Validated: 1
EndChar

StartChar: afii10032
Encoding: 1054 1054 46
Width: 765
Flags: MW
HStem: -15 140<328 437.5 328 492.5> 595 140<328 437.5>
VStem: 40 165<286.5 433.5 286.5 468.5> 560 165<286.5 433.5>
LayerCount: 2
Fore
SplineSet
40 360 m 0
 40 577 163 735 383 735 c 0
 602 735 725 577 725 360 c 0
 725 143 602 -15 383 -15 c 0
 163 -15 40 143 40 360 c 0
205 360 m 0
 205 213 273 125 383 125 c 0
 492 125 560 213 560 360 c 0
 560 507 492 595 383 595 c 0
 273 595 205 507 205 360 c 0
EndSplineSet
Validated: 1
EndChar

StartChar: afii10033
Encoding: 1055 1055 47
Width: 747
Flags: MW
HStem: 0 21G<70 230 70 70 517 517 517 677> 575 145<230 517 230 230>
VStem: 70 160<0 575> 517 160<0 575 575 575>
LayerCount: 2
Fore
SplineSet
230 0 m 1
 70 0 l 1
 70 720 l 1
 677 720 l 1
 677 0 l 1
 517 0 l 1
 517 575 l 1
 230 575 l 1
 230 0 l 1
EndSplineSet
Validated: 1
EndChar

StartChar: afii10034
Encoding: 1056 1056 48
Width: 672
Flags: MW
HStem: 0 21G<70 230 70 70> 230 140<230 340 340 353 230 340> 580 140<230 230 230 338>
VStem: 70 160<0 230 370 580> 469 163<452.5 505>
LayerCount: 2
Fore
SplineSet
230 0 m 1
 70 0 l 1
 70 720 l 1
 345 720 l 2
 490 720 632 654 632 479 c 0
 632 334 532 230 353 230 c 2
 230 230 l 1
 230 0 l 1
230 580 m 1
 230 370 l 1
 340 370 l 2
 443 370 469 429 469 476 c 0
 469 534 433 580 338 580 c 2
 230 580 l 1
EndSplineSet
Validated: 1
EndChar

StartChar: afii10035
Encoding: 1057 1057 49
Width: 741
Flags: MW
HStem: -15 140<333 427 333 474.5> 595 140<328 422>
VStem: 40 165<286.5 433.5 286.5 468.5>
LayerCount: 2
Fore
SplineSet
205 360 m 0
 205 213 278 125 388 125 c 0
 466 125 519 165 544 250 c 1
 701 206 l 1
 657 68 561 -15 388 -15 c 0
 168 -15 40 143 40 360 c 0
 40 577 163 735 383 735 c 0
 546 735 665 657 701 513 c 1
 544 469 l 1
 523 559 461 595 383 595 c 0
 273 595 205 507 205 360 c 0
EndSplineSet
Validated: 1
EndChar

StartChar: afii10036
Encoding: 1058 1058 50
Width: 664
Flags: MW
HStem: 0 21G<252 412 252 252> 575 145<30 252 30 634 412 412 412 634>
VStem: 252 160<0 575>
LayerCount: 2
Fore
SplineSet
412 0 m 1
 252 0 l 1
 252 575 l 1
 30 575 l 1
 30 720 l 1
 634 720 l 1
 634 575 l 1
 412 575 l 1
 412 0 l 1
EndSplineSet
Validated: 1
EndChar

StartChar: afii10037
Encoding: 1059 1059 51
Width: 705
Flags: MW
HStem: -15 138<199.5 225.5 193 272.5> 700 20G<10 177 177 177 534 695 695 695>
LayerCount: 2
Fore
SplineSet
298 196 m 1
 10 720 l 1
 177 720 l 1
 374 349 l 1
 534 720 l 1
 695 720 l 1
 442 159 l 2
 387 35 318 -15 227 -15 c 0
 172 -15 110 1 86 26 c 1
 120 157 l 1
 137 144 177 123 209 123 c 0
 242 123 272 135 288 173 c 2
 298 196 l 1
EndSplineSet
Validated: 1
EndChar

StartChar: afii10038
Encoding: 1060 1060 52
Width: 846
Flags: MW
HStem: -15 21G<343 503 343 343> 75 145<343 343> 500 145<343 343> 715 20G<343 503 503 503>
VStem: 30 165<308.5 411 308.5 456.5> 343 160<-15 75 -15 75 220 500 645 735> 651 165<308.5 411>
CounterMasks: 1 0e
LayerCount: 2
Fore
SplineSet
503 -15 m 1
 343 -15 l 1
 343 75 l 1
 168 77 30 166 30 360 c 0
 30 553 168 642 343 645 c 1
 343 735 l 1
 503 735 l 1
 503 645 l 1
 678 642 816 553 816 360 c 0
 816 166 678 77 503 75 c 1
 503 -15 l 1
651 360 m 0
 651 462 589 498 503 500 c 1
 503 220 l 1
 580 222 651 257 651 360 c 0
195 360 m 0
 195 257 257 222 343 220 c 1
 343 500 l 1
 265 498 195 462 195 360 c 0
EndSplineSet
Validated: 1
EndChar

StartChar: afii10039
Encoding: 1061 1061 53
Width: 732
Flags: MW
HStem: 0 21G<20 204 20 20 524 524 524 712> 700 20G<38 236 236 236 524 707 707 707>
LayerCount: 2
Fore
SplineSet
204 0 m 1
 20 0 l 1
 279 373 l 1
 38 720 l 1
 236 720 l 1
 377 492 l 1
 524 720 l 1
 707 720 l 1
 466 368 l 1
 712 0 l 1
 524 0 l 1
 369 250 l 1
 204 0 l 1
EndSplineSet
Validated: 1
EndChar

StartChar: afii10040
Encoding: 1062 1062 54
Width: 793
Flags: MW
HStem: -169 21G<603 763 603 603> 0 145<230 517 230 603> 700 20G<70 230 230 230 517 677 677 677>
VStem: 70 160<145 720 145 720 145 720> 517 160<145 720 144 720> 603 160<-169 0 0 0>
LayerCount: 2
Fore
SplineSet
517 720 m 1xf8
 677 720 l 1
 677 144 l 1
 763 144 l 1
 763 -169 l 1
 603 -169 l 1
 603 0 l 1
 70 0 l 1xf8
 70 720 l 1
 230 720 l 1
 230 145 l 1
 517 145 l 1xf4
 517 720 l 1xf8
EndSplineSet
Validated: 1
EndChar

StartChar: afii10041
Encoding: 1063 1063 55
Width: 681
Flags: MW
HStem: 0 21G<451 611 451 451> 241 137<274 325> 700 20G<40 200 200 200 451 611 611 611>
VStem: 40 160<535 544 544 720> 451 160<0 276 276 276 410 720 0 720>
LayerCount: 2
Fore
SplineSet
611 720 m 1
 611 0 l 1
 451 0 l 1
 451 276 l 1
 414 256 362 241 288 241 c 0
 94 241 40 363 40 535 c 2
 40 720 l 1
 200 720 l 1
 200 544 l 2
 200 425 227 378 321 378 c 0
 378 378 424 389 451 410 c 1
 451 720 l 1
 611 720 l 1
EndSplineSet
Validated: 1
EndChar

StartChar: afii10042
Encoding: 1064 1064 56
Width: 974
Flags: MW
HStem: 0 145<230 407 567 744> 700 20G<70 230 230 230 407 567 567 567 744 904 904 904>
VStem: 70 160<145 720 145 720 145 720> 407 160<145 720 145 720> 744 160<145 720 0 720>
CounterMasks: 1 38
LayerCount: 2
Fore
SplineSet
744 720 m 1
 904 720 l 1
 904 0 l 1
 70 0 l 1
 70 720 l 1
 230 720 l 1
 230 145 l 1
 407 145 l 1
 407 720 l 1
 567 720 l 1
 567 145 l 1
 744 145 l 1
 744 720 l 1
EndSplineSet
Validated: 1
EndChar

StartChar: afii10043
Encoding: 1065 1065 57
Width: 1020
Flags: MW
HStem: -169 21G<830 990 830 830> 0 145<230 407 567 744> 700 20G<70 230 230 230 407 567 567 567 744 904 904 904>
VStem: 70 160<145 720 145 720 145 720> 407 160<145 720 145 720> 744 160<145 720 144 720> 830 160<-169 0 0 0>
LayerCount: 2
Fore
SplineSet
904 720 m 1xfa
 904 144 l 1
 990 144 l 1
 990 -169 l 1
 830 -169 l 1
 830 0 l 1
 70 0 l 1
 70 720 l 1
 230 720 l 1
 230 145 l 1
 407 145 l 1
 407 720 l 1
 567 720 l 1xfc
 567 145 l 1
 744 145 l 1
 744 720 l 1
 904 720 l 1xfa
EndSplineSet
Validated: 1
EndChar

StartChar: afii10044
Encoding: 1066 1066 58
Width: 772
Flags: MW
HStem: 0 140<335 443 443 450> 350 130<335 458 335 445> 575 145<20 175 20 335>
VStem: 175 160<140 350 480 575 575 575> 574 163<215 267.5>
LayerCount: 2
Fore
SplineSet
335 720 m 1
 335 480 l 1
 458 480 l 2
 637 480 737 386 737 241 c 0
 737 66 595 0 450 0 c 2
 175 0 l 1
 175 575 l 1
 20 575 l 1
 20 720 l 1
 335 720 l 1
335 350 m 1
 335 140 l 1
 443 140 l 2
 538 140 574 186 574 244 c 0
 574 291 548 350 445 350 c 2
 335 350 l 1
EndSplineSet
Validated: 1
EndChar

StartChar: afii10045
Encoding: 1067 1067 59
Width: 940
Flags: MW
HStem: 0 140<230 338 338 345> 350 130<230 353 230 340> 700 20G<70 230 230 230 710 870 870 870>
VStem: 70 160<140 350 480 720> 230 239<215 267.5 215 350 140 267.5 215 720 215 480> 469 163<215 267.5> 710 160<0 720>
LayerCount: 2
Fore
SplineSet
870 0 m 1
 710 0 l 1
 710 720 l 1
 870 720 l 1
 870 0 l 1
70 720 m 1
 230 720 l 1
 230 480 l 1
 353 480 l 2
 532 480 632 386 632 241 c 0
 632 66 490 0 345 0 c 2
 70 0 l 1
 70 720 l 1
230 350 m 1
 230 140 l 1
 338 140 l 2
 433 140 469 186 469 244 c 0
 469 291 443 350 340 350 c 2
 230 350 l 1
EndSplineSet
Validated: 8388609
EndChar

StartChar: afii10046
Encoding: 1068 1068 60
Width: 667
Flags: MW
HStem: 0 140<230 338 338 345> 350 130<230 353 230 340> 700 20G<70 230 230 230>
VStem: 70 160<140 350 480 720> 469 163<215 267.5>
LayerCount: 2
Fore
SplineSet
70 720 m 1
 230 720 l 1
 230 480 l 1
 353 480 l 2
 532 480 632 386 632 241 c 0
 632 66 490 0 345 0 c 2
 70 0 l 1
 70 720 l 1
230 350 m 1
 230 140 l 1
 338 140 l 2
 433 140 469 186 469 244 c 0
 469 291 443 350 340 350 c 2
 230 350 l 1
EndSplineSet
Validated: 1
EndChar

StartChar: afii10047
Encoding: 1069 1069 61
Width: 741
Flags: MW
HStem: -15 140<319 405.5 319 478> 305 125<285 530 285 530> 595 140<324 408.5>
VStem: 530 171<305 305 430 430>
LayerCount: 2
Fore
SplineSet
285 305 m 1
 285 430 l 1
 530 430 l 1
 523 534 454 595 363 595 c 0
 285 595 218 559 197 469 c 1
 45 513 l 1
 84 657 200 735 363 735 c 0
 593 735 701 577 701 360 c 0
 701 143 598 -15 358 -15 c 0
 185 -15 84 68 40 206 c 1
 197 250 l 1
 222 165 280 125 358 125 c 0
 453 125 528 186 530 305 c 1
 285 305 l 1
EndSplineSet
Validated: 1
EndChar

StartChar: afii10048
Encoding: 1070 1070 62
Width: 1035
Flags: MW
HStem: -15 140<608 717.5 608 772.5> 0 21G<70 230 70 70> 295 145<230 334 230 335> 595 140<608 717.5> 700 20G<70 230 230 230>
VStem: 70 160<0 295 440 720> 830 165<286.5 433.5>
LayerCount: 2
Fore
SplineSet
230 0 m 1xb6
 70 0 l 1
 70 720 l 1
 230 720 l 1
 230 440 l 1
 335 440 l 1
 360 615 471 735 663 735 c 0xb6
 882 735 995 577 995 360 c 0
 995 143 882 -15 663 -15 c 0
 465 -15 355 112 334 295 c 1x76
 230 295 l 1
 230 0 l 1xb6
495 360 m 0
 495 213 553 125 663 125 c 0
 772 125 830 213 830 360 c 0x6e
 830 507 772 595 663 595 c 0
 553 595 495 507 495 360 c 0
EndSplineSet
Validated: 1
EndChar

StartChar: afii10049
Encoding: 1071 1071 63
Width: 695
Flags: MW
HStem: 0 21G<20 208 20 20 465 625 465 465> 250 135<395 422 422 465> 575 145<349.5 397 397 465>
VStem: 63 163<446.5 525 446.5 579> 465 160<0 250 250 250 385 575 575 575>
LayerCount: 2
Fore
SplineSet
625 720 m 5
 625 0 l 5
 465 0 l 5
 465 250 l 5
 422 250 l 6
 341 250 291 227 252 121 c 6
 208 0 l 5
 20 0 l 5
 90 167 l 6
 118 233 170 298 245 307 c 5
 142 319 63 389 63 499 c 4
 63 659 185 720 340 720 c 6
 625 720 l 5
465 385 m 5
 465 575 l 5
 397 575 l 6
 302 575 226 569 226 481 c 4
 226 412 282 385 395 385 c 6
 465 385 l 5
EndSplineSet
Validated: 1
EndChar

StartChar: a
Encoding: 97 97 64
Width: 556
Flags: MW
HStem: -15 112<216.5 234> 0 21G<375 526 375 375> 413 122<235 295.5>
VStem: 30 150 346 150<165 235 235 235>
LayerCount: 2
Fore
SplineSet
352 54 m 1xb8
 309 2 265 -15 203 -15 c 0
 109 -15 30 36 30 132 c 0
 30 244 108 286 234 301 c 0
 288 307 320 313 346 325 c 1
 346 337 l 2
 346 371 327 413 264 413 c 0x78
 206 413 183 374 173 336 c 1
 46 378 l 1
 72 498 174 535 271 535 c 0
 404 535 496 475 496 314 c 2
 496 106 l 2
 496 53 508 19 526 0 c 1
 375 0 l 1
 360 13 354 37 352 54 c 1xb8
346 165 m 1
 346 235 l 1
 328 228 304 219 254 209 c 0
 208 200 178 183 180 142 c 0
 181 119 195 97 238 97 c 0xb8
 285 97 329 130 346 165 c 1
EndSplineSet
Validated: 33
EndChar

StartChar: b
Encoding: 98 98 65
Width: 580
Flags: MW
HStem: -15 125<301.5 329.5 270.5 393> 0 110<55 329.5> 410 125<305 331> 700 20G<55 205 205 205>
VStem: 55 150<475 720 475 720 475 720> 405 150<209 311>
LayerCount: 2
Fore
SplineSet
55 720 m 1x7c
 205 720 l 1
 205 475 l 1
 235 522 284 535 326 535 c 0
 450 535 555 442 555 260 c 0
 555 78 455 -15 331 -15 c 0xbc
 272 -15 225 11 195 61 c 1
 195 0 l 1
 55 0 l 1
 55 720 l 1x7c
194 260 m 0
 194 158 241 110 300 110 c 0
 359 110 405 158 405 260 c 0
 405 362 363 410 299 410 c 0
 235 410 194 362 194 260 c 0
EndSplineSet
Validated: 1
EndChar

StartChar: c
Encoding: 99 99 66
Width: 538
Flags: MW
HStem: -15 125<240.5 297 240.5 329> 410 125<242 297>
VStem: 25 150<211.5 308.5 211.5 356>
LayerCount: 2
Fore
SplineSet
175 260 m 0
 175 163 208 110 273 110 c 0
 321 110 354 135 365 196 c 1
 513 175 l 1
 485 36 385 -15 273 -15 c 0
 139 -15 25 68 25 260 c 0
 25 452 139 535 273 535 c 0
 385 535 485 483 513 344 c 1
 366 322 l 1
 355 384 321 410 273 410 c 0
 211 410 175 357 175 260 c 0
EndSplineSet
Validated: 1
EndChar

StartChar: d
Encoding: 100 100 67
Width: 580
Flags: MW
HStem: -15 125<250.5 278.5> 0 110<250.5 525 250.5 385> 410 125<249 275 192 313> 700 20G<375 525 525 525>
VStem: 25 150<209 311 209 351> 386 139<209 311>
LayerCount: 2
Fore
SplineSet
375 720 m 1xbc
 525 720 l 1
 525 0 l 1
 385 0 l 1
 385 61 l 1
 355 11 308 -15 249 -15 c 0
 125 -15 25 78 25 260 c 0
 25 442 130 535 254 535 c 0
 296 535 345 522 375 475 c 1
 375 720 l 1xbc
386 260 m 0
 386 362 345 410 281 410 c 0
 217 410 175 362 175 260 c 0x7c
 175 158 221 110 280 110 c 0
 339 110 386 158 386 260 c 0
EndSplineSet
Validated: 1
EndChar

StartChar: e
Encoding: 101 101 68
Width: 558
Flags: MW
HStem: -15 125<259.5 317 259.5 345.5> 217 102<177 381 177 532 175 381> 410 125<254 308>
VStem: 25 150<217 217 217 356> 381 152<319 319>
LayerCount: 2
Fore
SplineSet
532 217 m 2
 175 217 l 1
 179 145 226 110 293 110 c 0
 341 110 372 137 384 170 c 1
 524 141 l 1
 485 38 408 -15 283 -15 c 0
 149 -15 25 68 25 260 c 0
 25 452 150 535 283 535 c 0
 414 535 533 455 533 281 c 0
 533 250 532 219 532 217 c 2
279 410 m 0
 229 410 183 376 177 319 c 1
 381 319 l 1
 377 374 337 410 279 410 c 0
EndSplineSet
Validated: 1
EndChar

StartChar: f
Encoding: 102 102 69
Width: 383
Flags: MW
HStem: 0 21G<98 245 98 98> 401 119<20 98 20 98 245 356> 603 128<203 307>
VStem: 98 147<0 401 520 541 541 543>
LayerCount: 2
Fore
SplineSet
245 0 m 1
 98 0 l 1
 98 401 l 1
 20 401 l 1
 20 520 l 1
 98 520 l 1
 98 541 l 2
 98 651 148 731 258 731 c 0
 301 731 356 723 373 715 c 1
 356 593 l 1
 342 599 315 603 299 603 c 0
 266 603 245 587 245 543 c 2
 245 520 l 1
 356 520 l 1
 356 401 l 1
 245 401 l 1
 245 0 l 1
EndSplineSet
Validated: 1
EndChar

StartChar: g
Encoding: 103 103 70
Width: 580
Flags: MW
HStem: -210 116<243 306.5 243 360.5> -5 125<249 275> 410 110<250.5 525> 410 125<250.5 278.5 187 309.5>
VStem: 25 150<214 316 214 356> 385 140<459 520>
LayerCount: 2
Fore
SplineSet
525 20 m 2xec
 525 -109 452 -210 269 -210 c 0
 161 -210 35 -157 35 -33 c 1
 180 -46 l 1
 188 -79 217 -94 269 -94 c 0
 344 -94 375 -49 375 18 c 2
 375 45 l 1
 345 6 296 -5 254 -5 c 0
 130 -5 25 83 25 265 c 0
 25 447 125 535 249 535 c 0xdc
 308 535 355 509 385 459 c 1
 385 520 l 1
 525 520 l 1
 525 20 l 2xec
386 265 m 0
 386 367 339 410 280 410 c 0
 221 410 175 367 175 265 c 0
 175 163 217 120 281 120 c 0
 345 120 386 163 386 265 c 0
EndSplineSet
Validated: 1
EndChar

StartChar: h
Encoding: 104 104 71
Width: 585
Flags: MW
HStem: 0 21G<55 205 55 55 380 380 380 530> 409 126<310 329> 700 20G<55 205 205 205>
VStem: 55 150<0 283 455 720> 380 150<0 315 315 319 0 345>
LayerCount: 2
Fore
SplineSet
205 0 m 1
 55 0 l 1
 55 720 l 1
 205 720 l 1
 205 455 l 1
 240 512 279 535 341 535 c 0
 485 535 530 443 530 319 c 2
 530 0 l 1
 380 0 l 1
 380 315 l 2
 380 375 358 409 300 409 c 0
 248 409 205 367 205 283 c 2
 205 0 l 1
EndSplineSet
Validated: 1
EndChar

StartChar: i
Encoding: 105 105 72
Width: 260
Flags: MW
HStem: 0 21G<55 205 55 55> 500 20G<55 205 205 205> 584 136<55 205 55 205>
VStem: 55 150<0 520 584 720>
LayerCount: 2
Fore
SplineSet
205 584 m 1
 55 584 l 1
 55 720 l 1
 205 720 l 1
 205 584 l 1
205 0 m 1
 55 0 l 1
 55 520 l 1
 205 520 l 1
 205 0 l 1
EndSplineSet
Validated: 1
EndChar

StartChar: j
Encoding: 106 106 73
Width: 260
Flags: MW
HStem: -210 132<16 21 -13 84> 500 20G<55 205 205 205> 584 136<55 205 55 205>
VStem: 55 150<27 520 584 720>
LayerCount: 2
Fore
SplineSet
-61 -196 m 1
 -43 -72 l 1
 -26 -77 -18 -78 -8 -78 c 0
 50 -78 55 -26 55 27 c 2
 55 520 l 1
 205 520 l 1
 205 -28 l 2
 205 -134 140 -210 28 -210 c 0
 4 -210 -39 -205 -61 -196 c 1
205 584 m 1
 55 584 l 1
 55 720 l 1
 205 720 l 1
 205 584 l 1
EndSplineSet
Validated: 1
EndChar

StartChar: k
Encoding: 107 107 74
Width: 566
Flags: MW
HStem: 0 21G<55 55 55 205 381 381 381 546> 200 125<205 227 205 227> 387 133<475.5 524 493 509> 700 20G<55 205 205 205>
VStem: 55 150<0 200 325 720>
LayerCount: 2
Fore
SplineSet
55 0 m 1
 55 720 l 1
 205 720 l 1
 205 325 l 1
 227 325 l 2
 257 325 277 328 303 359 c 0
 323 383 341 437 350 453 c 0
 382 512 422 520 493 520 c 2
 524 520 l 1
 509 387 l 1
 493 387 l 2
 458 387 450 376 434 342 c 0
 418 308 401 284 362 274 c 1
 362 270 l 1
 397 262 429 224 460 173 c 1
 546 0 l 1
 381 0 l 1
 312 149 l 2
 293 185 267 200 227 200 c 2
 205 200 l 1
 205 0 l 1
 55 0 l 1
EndSplineSet
Validated: 1
EndChar

StartChar: l
Encoding: 108 108 75
Width: 260
Flags: MW
HStem: 0 21G<55 205 55 55> 715 20G<205 205>
VStem: 55 150<0 695 695 695>
LayerCount: 2
Fore
SplineSet
205 0 m 1
 55 0 l 1
 55 695 l 1
 205 735 l 1
 205 0 l 1
EndSplineSet
Validated: 1
EndChar

StartChar: m
Encoding: 109 109 76
Width: 859
Flags: MW
HStem: 0 21G<55 205 55 55 355 355 355 505 654 654 654 804> 409 111<55 311> 409 126<308.5 311 608.5 615.5>
VStem: 55 150<0 269> 355 150<0 291 0 317 0 351> 654 150<0 317 317 344>
LayerCount: 2
Fore
SplineSet
205 0 m 1xdc
 55 0 l 1
 55 520 l 1
 196 520 l 1
 196 446 l 1
 232 510 274 535 343 535 c 0
 419 535 470 500 491 439 c 1
 524 508 576 535 641 535 c 0
 738 535 804 472 804 356 c 2
 804 0 l 1
 654 0 l 1
 654 317 l 2
 654 371 639 409 592 409 c 0
 541 409 505 366 505 291 c 2xdc
 505 0 l 1
 355 0 l 1
 355 317 l 2
 355 385 329 409 293 409 c 0xbc
 236 409 205 354 205 269 c 2
 205 0 l 1xdc
EndSplineSet
Validated: 1
EndChar

StartChar: n
Encoding: 110 110 77
Width: 585
Flags: MW
HStem: 0 21G<55 205 55 55 380 380 380 530> 409 111<55 329> 409 126<310 329>
VStem: 55 150<0 283> 380 150<0 315 315 319 0 345>
LayerCount: 2
Fore
SplineSet
205 0 m 1xb8
 55 0 l 1
 55 520 l 1
 196 520 l 1
 196 445 l 1
 234 509 279 535 341 535 c 0
 485 535 530 443 530 319 c 2
 530 0 l 1
 380 0 l 1
 380 315 l 2
 380 375 358 409 300 409 c 0xd8
 248 409 205 367 205 283 c 2
 205 0 l 1xb8
EndSplineSet
Validated: 1
EndChar

StartChar: o
Encoding: 111 111 78
Width: 566
Flags: MW
HStem: -15 125<248.5 317.5 248.5 352.5> 410 125<248.5 317.5>
VStem: 25 150<211.5 308.5 211.5 356> 391 150<211.5 308.5>
LayerCount: 2
Fore
SplineSet
25 260 m 0
 25 452 144 535 283 535 c 0
 422 535 541 452 541 260 c 0
 541 68 422 -15 283 -15 c 0
 144 -15 25 68 25 260 c 0
175 260 m 0
 175 163 214 110 283 110 c 0
 352 110 391 163 391 260 c 0
 391 357 352 410 283 410 c 0
 214 410 175 357 175 260 c 0
EndSplineSet
Validated: 1
EndChar

StartChar: p
Encoding: 112 112 79
Width: 580
Flags: MW
HStem: -200 21G<55 205 55 55> -15 125<305 331 267 388> 410 110<55 329.5> 410 125<301.5 329.5>
VStem: 55 139<209 311 209 520> 405 150<209 311>
LayerCount: 2
Fore
SplineSet
205 -200 m 1xdc
 55 -200 l 1
 55 520 l 1
 195 520 l 1
 195 459 l 1
 225 509 272 535 331 535 c 0
 455 535 555 442 555 260 c 0
 555 78 450 -15 326 -15 c 0
 284 -15 235 -2 205 45 c 1
 205 -200 l 1xdc
194 260 m 0
 194 158 235 110 299 110 c 0
 363 110 405 158 405 260 c 0xec
 405 362 359 410 300 410 c 0
 241 410 194 362 194 260 c 0
EndSplineSet
Validated: 1
EndChar

StartChar: q
Encoding: 113 113 80
Width: 580
Flags: MW
HStem: -200 21G<375 525 375 375> -15 125<249 275> 410 110<250.5 525> 410 125<250.5 278.5 187 309.5>
VStem: 25 150<209 311 209 351> 375 150<-200 45 45 45>
LayerCount: 2
Fore
SplineSet
525 -200 m 1xec
 375 -200 l 1
 375 45 l 1
 345 -2 296 -15 254 -15 c 0
 130 -15 25 78 25 260 c 0
 25 442 125 535 249 535 c 0xdc
 308 535 355 509 385 459 c 1
 385 520 l 1
 525 520 l 1
 525 -200 l 1xec
386 260 m 0
 386 362 339 410 280 410 c 0
 221 410 175 362 175 260 c 0
 175 158 217 110 281 110 c 0
 345 110 386 158 386 260 c 0
EndSplineSet
Validated: 1
EndChar

StartChar: r
Encoding: 114 114 81
Width: 440
Flags: MW
HStem: 0 21G<55 205 55 55> 395 125<55 349.5> 395 140<300.5 349.5>
VStem: 55 150<0 231>
LayerCount: 2
Fore
SplineSet
205 0 m 1xb0
 55 0 l 1
 55 520 l 1
 196 520 l 1
 196 430 l 1
 229 500 263 535 338 535 c 0
 378 535 406 528 430 509 c 1
 408 375 l 1
 388 385 365 395 334 395 c 0xd0
 248 395 205 332 205 231 c 2
 205 0 l 1xb0
EndSplineSet
Validated: 1
EndChar

StartChar: s
Encoding: 115 115 82
Width: 483
Flags: MW
HStem: -15 115<217 265.5 217 304> 420 115<218.5 257.5>
VStem: 38 126<364.5 390.5 364.5 428.5> 328 130<131 164>
LayerCount: 2
Fore
SplineSet
25 150 m 1
 150 171 l 1
 156 126 189 100 245 100 c 0
 286 100 328 110 328 152 c 0
 328 176 309 188 288 193 c 2
 165 220 l 2
 97 235 38 283 38 369 c 0
 38 488 137 535 244 535 c 0
 368 535 443 464 446 385 c 1
 320 363 l 1
 313 406 276 420 239 420 c 0
 198 420 164 408 164 373 c 0
 164 356 176 342 202 337 c 2
 321 312 l 2
 378 300 458 263 458 156 c 0
 458 41 366 -15 242 -15 c 0
 115 -15 35 55 25 150 c 1
EndSplineSet
Validated: 1
EndChar

StartChar: t
Encoding: 116 116 83
Width: 383
Flags: MW
HStem: -10 130<191.5 296> 401 119<20 94 20 94 244 343> 650 20G<244 244>
VStem: 94 150<174.5 197 197 401 520 627 627 627> 94 249<152 520 401 520 401 627 401 627>
LayerCount: 2
Fore
SplineSet
332 126 m 1xf0
 341 7 l 1
 321 -4 265 -10 246 -10 c 0
 137 -10 94 50 94 152 c 2
 94 401 l 1
 20 401 l 1xf0
 20 520 l 1
 94 520 l 1xe8
 94 627 l 1
 244 670 l 1
 244 520 l 1
 343 520 l 1
 343 401 l 1
 244 401 l 1
 244 197 l 2
 244 152 244 120 291 120 c 0
 301 120 316 121 332 126 c 1xf0
EndSplineSet
Validated: 1
EndChar

StartChar: u
Encoding: 117 117 84
Width: 585
Flags: MW
HStem: -15 126<256 275> 0 111<256 530 256 389> 500 20G<55 205 205 205 380 530 530 530>
VStem: 55 150<201 205 205 520> 380 150<237 520 0 520>
LayerCount: 2
Fore
SplineSet
380 520 m 1xb8
 530 520 l 1
 530 0 l 1
 389 0 l 1
 389 75 l 1
 351 11 306 -15 244 -15 c 0
 100 -15 55 77 55 201 c 2
 55 520 l 1
 205 520 l 1
 205 205 l 2
 205 145 227 111 285 111 c 0x78
 337 111 380 153 380 237 c 2
 380 520 l 1xb8
EndSplineSet
Validated: 1
EndChar

StartChar: v
Encoding: 118 118 85
Width: 575
Flags: MW
HStem: 0 21G<222 354 222 222> 500 20G<10 162 162 162 415 565 565 565>
LayerCount: 2
Fore
SplineSet
354 0 m 1
 222 0 l 1
 10 520 l 1
 162 520 l 1
 287 184 l 1
 415 520 l 1
 565 520 l 1
 354 0 l 1
EndSplineSet
Validated: 1
EndChar

StartChar: w
Encoding: 119 119 86
Width: 791
Flags: MW
HStem: 0 21G<167 300 167 167 488 488 488 619> 500 20G<10 161 161 161 331 462 462 462 636 781 781 781>
LayerCount: 2
Fore
SplineSet
300 0 m 1
 167 0 l 1
 10 520 l 1
 161 520 l 1
 244 168 l 1
 331 520 l 1
 462 520 l 1
 547 179 l 1
 636 520 l 1
 781 520 l 1
 619 0 l 1
 488 0 l 1
 398 349 l 1
 300 0 l 1
EndSplineSet
Validated: 1
EndChar

StartChar: x
Encoding: 120 120 87
Width: 575
Flags: MW
HStem: 0 21G<15 187 15 15 382 382 382 560> 500 20G<27 208 208 208 377 546 546 546>
LayerCount: 2
Fore
SplineSet
187 0 m 1
 15 0 l 1
 195 266 l 1
 27 520 l 1
 208 520 l 1
 292 372 l 1
 377 520 l 1
 546 520 l 1
 385 269 l 1
 560 0 l 1
 382 0 l 1
 284 160 l 1
 187 0 l 1
EndSplineSet
Validated: 1
EndChar

StartChar: y
Encoding: 121 121 88
Width: 560
Flags: MW
HStem: -210 134<129.5 141.5 104.5 195.5> 500 20G<10 163 163 163 402 550 550 550>
LayerCount: 2
Fore
SplineSet
71 -195 m 1
 61 -62 l 1
 78 -69 87 -76 122 -76 c 0
 161 -76 187 -62 207 -9 c 2
 212 5 l 1
 10 520 l 1
 163 520 l 1
 283 177 l 1
 402 520 l 1
 550 520 l 1
 347 -29 l 2
 303 -149 243 -210 148 -210 c 0
 111 -210 90 -202 71 -195 c 1
EndSplineSet
Validated: 1
EndChar

StartChar: z
Encoding: 122 122 89
Width: 504
Flags: MW
HStem: 0 125<211 469 35 35> 395 125<54 282 54 463 54 463>
LayerCount: 2
Fore
SplineSet
469 0 m 1
 35 0 l 1
 35 125 l 1
 282 395 l 1
 54 395 l 1
 54 520 l 1
 463 520 l 1
 463 395 l 1
 211 125 l 1
 469 125 l 1
 469 0 l 1
EndSplineSet
Validated: 1
EndChar

StartChar: A
Encoding: 65 65 90
Width: 730
Flags: MW
HStem: 0 21G<10 173 10 10 555 720 555 555> 130 132<269 459 269 507 220 459> 700 20G<296 440 440 440>
LayerCount: 2
Fore
SplineSet
296 720 m 1
 440 720 l 1
 720 0 l 1
 555 0 l 1
 507 130 l 1
 220 130 l 1
 173 0 l 1
 10 0 l 1
 296 720 l 1
364 521 m 1
 269 262 l 1
 459 262 l 1
 364 521 l 1
EndSplineSet
Validated: 1
EndChar

StartChar: B
Encoding: 66 66 91
Width: 694
Flags: MW
HStem: 0 125<225 373 373 383> 305 125<225 354 225 354 354 360> 595 125<225 225 225 342>
VStem: 70 155<125 305 430 595> 467 158<499 550> 493 161<179 241.5>
LayerCount: 2
Fore
SplineSet
383 0 m 2xf4
 70 0 l 1
 70 720 l 1
 373 720 l 2
 519 720 625 661 625 533 c 0
 625 465 590 402 511 376 c 1
 597 355 654 293 654 208 c 0
 654 56 546 0 383 0 c 2xf4
225 595 m 1xf8
 225 430 l 1xf4
 354 430 l 2
 427 430 467 463 467 521 c 0
 467 579 416 595 342 595 c 2
 225 595 l 1xf8
225 305 m 1
 225 125 l 1
 373 125 l 2xf8
 451 125 493 150 493 208 c 0
 493 275 443 305 360 305 c 2
 225 305 l 1
EndSplineSet
Validated: 1
EndChar

StartChar: C
Encoding: 67 67 92
Width: 741
Flags: MW
HStem: -15 140<333 427 333 474.5> 595 140<328 422>
VStem: 40 165<286.5 433.5 286.5 468.5>
LayerCount: 2
Fore
SplineSet
205 360 m 0
 205 213 278 125 388 125 c 0
 466 125 519 165 544 250 c 1
 701 206 l 1
 657 68 561 -15 388 -15 c 0
 168 -15 40 143 40 360 c 0
 40 577 163 735 383 735 c 0
 546 735 665 657 701 513 c 1
 544 469 l 1
 523 559 461 595 383 595 c 0
 273 595 205 507 205 360 c 0
EndSplineSet
Validated: 1
EndChar

StartChar: D
Encoding: 68 68 93
Width: 714
Flags: MW
HStem: 0 144<230 295 295 320> 575 145<230 230 230 292>
VStem: 70 160<144 575 144 720 144 720> 511 163<279.5 455>
LayerCount: 2
Fore
SplineSet
320 0 m 2
 70 0 l 1
 70 720 l 1
 309 720 l 2
 551 720 674 594 674 362 c 0
 674 137 562 0 320 0 c 2
230 575 m 1
 230 144 l 1
 295 144 l 2
 431 144 511 196 511 363 c 0
 511 547 410 575 292 575 c 2
 230 575 l 1
EndSplineSet
Validated: 1
EndChar

StartChar: E
Encoding: 69 69 94
Width: 667
Flags: MW
HStem: 0 145<230 607 230 607> 295 145<230 547 230 547> 575 145<230 597 230 230>
VStem: 70 160<145 295 440 575>
LayerCount: 2
Fore
SplineSet
607 0 m 1
 70 0 l 1
 70 720 l 1
 597 720 l 1
 597 575 l 1
 230 575 l 1
 230 440 l 1
 547 440 l 1
 547 295 l 1
 230 295 l 1
 230 145 l 1
 607 145 l 1
 607 0 l 1
EndSplineSet
Validated: 1
EndChar

StartChar: F
Encoding: 70 70 95
Width: 637
Flags: MW
HStem: 0 21G<70 230 70 70> 295 145<230 507 230 507> 575 145<230 587 230 230>
VStem: 70 160<0 295 440 575>
LayerCount: 2
Fore
SplineSet
230 0 m 1
 70 0 l 1
 70 720 l 1
 587 720 l 1
 587 575 l 1
 230 575 l 1
 230 440 l 1
 507 440 l 1
 507 295 l 1
 230 295 l 1
 230 0 l 1
EndSplineSet
Validated: 1
EndChar

StartChar: G
Encoding: 71 71 96
Width: 761
Flags: MW
HStem: -15 140<338 436.5 338 462.5> 261 124<395 543 395 700> 595 140<333 432>
VStem: 40 165<286.5 433.5 286.5 468.5> 543 157<167 261 261 261>
LayerCount: 2
Fore
SplineSet
205 360 m 0
 205 213 278 125 398 125 c 0
 475 125 514 143 543 167 c 1
 543 261 l 1
 395 261 l 1
 395 385 l 1
 700 385 l 1
 700 112 l 1
 646 32 527 -15 398 -15 c 0
 168 -15 40 143 40 360 c 0
 40 577 163 735 393 735 c 0
 556 735 665 667 701 513 c 1
 544 469 l 1
 523 549 471 595 393 595 c 0
 273 595 205 507 205 360 c 0
EndSplineSet
Validated: 1
EndChar

StartChar: H
Encoding: 72 72 97
Width: 757
Flags: MW
HStem: 0 21G<70 230 70 70 527 527 527 687> 295 145<230 527 230 527> 700 20G<70 230 230 230 527 687 687 687>
VStem: 70 160<0 295 440 720> 527 160<0 295 295 295 440 720 0 720>
LayerCount: 2
Fore
SplineSet
230 0 m 1
 70 0 l 1
 70 720 l 1
 230 720 l 1
 230 440 l 1
 527 440 l 1
 527 720 l 1
 687 720 l 1
 687 0 l 1
 527 0 l 1
 527 295 l 1
 230 295 l 1
 230 0 l 1
EndSplineSet
Validated: 1
EndChar

StartChar: I
Encoding: 73 73 98
Width: 300
Flags: MW
HStem: 0 21G<70 230 70 70> 700 20G<70 230 230 230>
VStem: 70 160<0 720>
LayerCount: 2
Fore
SplineSet
230 0 m 1
 70 0 l 1
 70 720 l 1
 230 720 l 1
 230 0 l 1
EndSplineSet
Validated: 1
EndChar

StartChar: J
Encoding: 74 74 99
Width: 572
Flags: MW
HStem: -15 140<224.5 295 224.5 326> 700 20G<341 502 502 502>
VStem: 21 152<223 245> 341 161<263 720>
LayerCount: 2
Fore
SplineSet
21 223 m 1
 173 245 l 1
 175 172 192 125 257 125 c 0
 333 125 341 180 341 263 c 2
 341 720 l 1
 502 720 l 1
 502 238 l 2
 502 51 395 -15 257 -15 c 0
 126 -15 18 50 21 223 c 1
EndSplineSet
Validated: 33
EndChar

StartChar: K
Encoding: 75 75 100
Width: 730
Flags: MW
HStem: 0 21G<70 230 70 70 505 505 505 700> 700 20G<70 230 230 230 498 690 690 690>
VStem: 70 160<0 218 404 720>
LayerCount: 2
Fore
SplineSet
230 0 m 1
 70 0 l 1
 70 720 l 1
 230 720 l 1
 230 404 l 1
 498 720 l 1
 690 720 l 1
 411 415 l 1
 700 0 l 1
 505 0 l 1
 308 304 l 1
 230 218 l 1
 230 0 l 1
EndSplineSet
Validated: 1
EndChar

StartChar: L
Encoding: 76 76 101
Width: 638
Flags: MW
HStem: 0 145<230 608 230 608> 700 20G<70 230 230 230>
VStem: 70 160<145 720 145 720 145 720>
LayerCount: 2
Fore
SplineSet
608 0 m 1
 70 0 l 1
 70 720 l 1
 230 720 l 1
 230 145 l 1
 608 145 l 1
 608 0 l 1
EndSplineSet
Validated: 1
EndChar

StartChar: M
Encoding: 77 77 102
Width: 923
Flags: MW
HStem: 0 21G<70 230 70 70 394 394 394 529 693 693 693 853> 700 20G<70 270 270 270 653 853 853 853>
VStem: 70 160<0 443> 693 160<0 443 443 443>
LayerCount: 2
Fore
SplineSet
230 0 m 1
 70 0 l 1
 70 720 l 1
 270 720 l 1
 462 193 l 1
 653 720 l 1
 853 720 l 1
 853 0 l 1
 693 0 l 1
 693 443 l 1
 529 0 l 1
 394 0 l 1
 230 443 l 1
 230 0 l 1
EndSplineSet
Validated: 1
EndChar

StartChar: N
Encoding: 78 78 103
Width: 769
Flags: MW
HStem: 0 21G<70 226 70 70 537 537 537 699> 700 20G<70 232 232 232 543 699 699 699>
VStem: 70 156<0 456> 543 156<264 720 0 720>
LayerCount: 2
Fore
SplineSet
226 0 m 1
 70 0 l 1
 70 720 l 1
 232 720 l 1
 543 264 l 1
 543 720 l 1
 699 720 l 1
 699 0 l 1
 537 0 l 1
 226 456 l 1
 226 0 l 1
EndSplineSet
Validated: 1
EndChar

StartChar: O
Encoding: 79 79 104
Width: 765
Flags: MW
HStem: -15 140<328 437.5 328 492.5> 595 140<328 437.5>
VStem: 40 165<286.5 433.5 286.5 468.5> 560 165<286.5 433.5>
LayerCount: 2
Fore
SplineSet
40 360 m 0
 40 577 163 735 383 735 c 0
 602 735 725 577 725 360 c 0
 725 143 602 -15 383 -15 c 0
 163 -15 40 143 40 360 c 0
205 360 m 0
 205 213 273 125 383 125 c 0
 492 125 560 213 560 360 c 0
 560 507 492 595 383 595 c 0
 273 595 205 507 205 360 c 0
EndSplineSet
Validated: 1
EndChar

StartChar: P
Encoding: 80 80 105
Width: 672
Flags: MW
HStem: 0 21G<70 230 70 70> 230 140<230 340 340 353 230 340> 580 140<230 230 230 338>
VStem: 70 160<0 230 370 580> 469 163<452.5 505>
LayerCount: 2
Fore
SplineSet
230 0 m 1
 70 0 l 1
 70 720 l 1
 345 720 l 2
 490 720 632 654 632 479 c 0
 632 334 532 230 353 230 c 2
 230 230 l 1
 230 0 l 1
230 580 m 1
 230 370 l 1
 340 370 l 2
 443 370 469 429 469 476 c 0
 469 534 433 580 338 580 c 2
 230 580 l 1
EndSplineSet
Validated: 1
EndChar

StartChar: Q
Encoding: 81 81 106
Width: 765
Flags: MW
HStem: -59 21G<605 605> -15 140<328 392 328 412> 595 140<328 437.5>
VStem: 40 165<286.5 433.5 286.5 468.5> 560 165<332.5 433.5>
LayerCount: 2
Fore
SplineSet
40 360 m 0
 40 577 163 735 383 735 c 0
 602 735 725 577 725 360 c 0
 725 255 696 164 642 98 c 1
 703 30 l 1
 605 -59 l 1
 537 17 l 1
 493 -3 441 -15 383 -15 c 0
 163 -15 40 143 40 360 c 0
364 212 m 1
 462 301 l 1
 532 221 l 1
 550 258 560 305 560 360 c 0
 560 507 492 595 383 595 c 0
 273 595 205 507 205 360 c 0
 205 213 273 125 383 125 c 0
 401 125 418 127 434 132 c 1
 364 212 l 1
EndSplineSet
Validated: 1
EndChar

StartChar: R
Encoding: 82 82 107
Width: 715
Flags: MW
HStem: 0 21G<70 70 70 230 496 496 496 685> 250 135<230 273 230 300> 575 145<230 230 230 298>
VStem: 70 160<0 250 0 385 385 575> 464 163<448 523>
LayerCount: 2
Fore
SplineSet
70 0 m 1
 70 720 l 1
 353 720 l 2
 509 720 627 660 627 503 c 0
 627 393 555 323 450 309 c 1
 523 299 581 232 610 167 c 2
 685 0 l 1
 496 0 l 1
 444 121 l 2
 399 225 354 250 273 250 c 2
 230 250 l 1
 230 0 l 1
 70 0 l 1
230 575 m 1
 230 385 l 1
 300 385 l 2
 403 385 464 412 464 481 c 0
 464 565 393 575 298 575 c 2
 230 575 l 1
EndSplineSet
Validated: 1
EndChar

StartChar: S
Encoding: 83 83 108
Width: 647
Flags: MW
HStem: -15 140<284.5 358 284.5 398.5> -15 249 510 225 595 140<280.5 351.5>
VStem: 55 154<516.5 549 516.5 590.5> 443 164<175.5 224.5>
LayerCount: 2
Fore
SplineSet
35 230 m 1
 189 238 l 1
 197 153 243 125 326 125 c 0
 390 125 443 147 443 204 c 0
 443 245 423 264 366 283 c 0
 328 296 248 317 205 330 c 0
 79 368 55 448 55 516 c 0
 55 665 178 735 309 735 c 0
 479 735 573 664 583 514 c 1
 427 507 l 1
 418 559 390 595 313 595 c 0
 248 595 209 568 209 530 c 0
 209 503 220 487 254 474 c 0
 287 461 359 441 428 422 c 0
 533 392 607 329 607 209 c 0
 607 57 467 -15 330 -15 c 0
 139 -15 46 77 35 230 c 1
EndSplineSet
Validated: 8388609
EndChar

StartChar: T
Encoding: 84 84 109
Width: 664
Flags: MW
HStem: 0 21G<252 412 252 252> 575 145<30 252 30 634 412 412 412 634>
VStem: 252 160<0 575>
LayerCount: 2
Fore
SplineSet
412 0 m 1
 252 0 l 1
 252 575 l 1
 30 575 l 1
 30 720 l 1
 634 720 l 1
 634 575 l 1
 412 575 l 1
 412 0 l 1
EndSplineSet
Validated: 1
EndChar

StartChar: U
Encoding: 85 85 110
Width: 753
Flags: MW
HStem: -15 145<330.5 423.5 330.5 475.5> 700 20G<70 230 230 230 523 683 683 683>
VStem: 70 160<302 317 317 720> 523 160<317 720>
LayerCount: 2
Fore
SplineSet
523 317 m 2
 523 720 l 1
 683 720 l 1
 683 302 l 2
 683 107 574 -15 377 -15 c 0
 182 -15 70 107 70 302 c 2
 70 720 l 1
 230 720 l 1
 230 317 l 2
 230 179 284 130 377 130 c 0
 470 130 523 179 523 317 c 2
EndSplineSet
Validated: 1
EndChar

StartChar: V
Encoding: 86 86 111
Width: 740
Flags: MW
HStem: 0 21G<295 437 295 295> 700 20G<15 180 180 180 562 725 725 725>
LayerCount: 2
Fore
SplineSet
437 0 m 1
 295 0 l 1
 15 720 l 1
 180 720 l 1
 368 199 l 1
 562 720 l 1
 725 720 l 1
 437 0 l 1
EndSplineSet
Validated: 1
EndChar

StartChar: W
Encoding: 87 87 112
Width: 1030
Flags: MW
HStem: 0 21G<188 378 188 188 652 652 652 842> 700 20G<15 182 182 182 423 607 607 607 849 1015 1015 1015>
LayerCount: 2
Fore
SplineSet
378 0 m 1
 188 0 l 1
 15 720 l 1
 182 720 l 1
 295 175 l 1
 423 720 l 1
 607 720 l 1
 740 175 l 1
 849 720 l 1
 1015 720 l 1
 842 0 l 1
 652 0 l 1
 515 528 l 1
 378 0 l 1
EndSplineSet
Validated: 1
EndChar

StartChar: X
Encoding: 88 88 113
Width: 732
Flags: MW
HStem: 0 21G<20 204 20 20 524 524 524 712> 700 20G<38 236 236 236 524 707 707 707>
LayerCount: 2
Fore
SplineSet
204 0 m 1
 20 0 l 1
 279 373 l 1
 38 720 l 1
 236 720 l 1
 377 492 l 1
 524 720 l 1
 707 720 l 1
 466 368 l 1
 712 0 l 1
 524 0 l 1
 369 250 l 1
 204 0 l 1
EndSplineSet
Validated: 1
EndChar

StartChar: Y
Encoding: 89 89 114
Width: 705
Flags: MW
HStem: 0 21G<272 433 272 272> 700 20G<10 185 185 185 525 695 695 695>
VStem: 272 161<0 293>
LayerCount: 2
Fore
SplineSet
433 0 m 1
 272 0 l 1
 272 293 l 1
 10 720 l 1
 185 720 l 1
 357 443 l 1
 525 720 l 1
 695 720 l 1
 433 293 l 1
 433 0 l 1
EndSplineSet
Validated: 1
EndChar

StartChar: Z
Encoding: 90 90 115
Width: 662
Flags: MW
HStem: 0 145<224 612 50 50> 575 145<70 423 70 602 70 602>
LayerCount: 2
Fore
SplineSet
612 0 m 1
 50 0 l 1
 50 145 l 1
 423 575 l 1
 70 575 l 1
 70 720 l 1
 602 720 l 1
 602 575 l 1
 224 145 l 1
 612 145 l 1
 612 0 l 1
EndSplineSet
Validated: 1
EndChar

StartChar: afii10068
Encoding: 1075 1075 116
Width: 451
Flags: MW
HStem: 0 21G<55 55 55 203> 395 125<203 421 203 203>
VStem: 55 148<0 395 0 520 0 520>
LayerCount: 2
Fore
SplineSet
55 0 m 1
 55 520 l 1
 421 520 l 1
 421 395 l 1
 203 395 l 1
 203 0 l 1
 55 0 l 1
EndSplineSet
Validated: 1
EndChar

StartChar: zero
Encoding: 48 48 117
Width: 596
Flags: MW
HStem: -15 125<290.5 337.5 290.5 392.5> 610 125<258.5 305.5>
VStem: 35 140<339 428.5 339 463.5> 421 140<291.5 381>
LayerCount: 2
Fore
SplineSet
35 360 m 0
 35 567 109 735 298 735 c 0
 487 735 561 567 561 360 c 0
 561 153 487 -15 298 -15 c 0
 109 -15 35 153 35 360 c 0
421 360 m 0
 421 402 417 443 408 478 c 1
 257 122 l 1
 269 114 283 110 298 110 c 0
 377 110 421 223 421 360 c 0
175 360 m 0
 175 318 179 278 187 243 c 1
 338 598 l 1
 326 606 313 610 298 610 c 0
 219 610 175 497 175 360 c 0
EndSplineSet
Validated: 1
EndChar

StartChar: one
Encoding: 49 49 118
Width: 596
Flags: MW
HStem: 0 21G<261 416 261 261> 700 20G<312 416 416 416>
VStem: 261 155<0 465 465 465>
LayerCount: 2
Fore
SplineSet
416 720 m 1
 416 0 l 1
 261 0 l 1
 261 465 l 1
 244 428 203 400 125 400 c 1
 125 545 l 1
 228 555 297 638 312 720 c 1
 416 720 l 1
EndSplineSet
Validated: 1
EndChar

StartChar: two
Encoding: 50 50 119
Width: 596
Flags: MW
HStem: 0 145<246 529 246 529> 595 140<278.5 324>
VStem: 68 140<492 512> 383 150<490.5 547.5>
LayerCount: 2
Fore
SplineSet
246 145 m 1
 529 145 l 1
 529 0 l 1
 64 0 l 1
 61 201 141 269 260 362 c 0
 346 429 383 459 383 522 c 0
 383 573 346 595 302 595 c 0
 255 595 210 570 208 492 c 1
 68 512 l 1
 76 648 159 735 304 735 c 0
 436 735 533 667 533 520 c 0
 533 411 448 330 361 268 c 0
 285 214 248 184 246 145 c 1
EndSplineSet
Validated: 33
EndChar

StartChar: three
Encoding: 51 51 120
Width: 596
Flags: MW
HStem: -15 140<268 317.5 268 362> 326 135<230 282 230 282> 608 127<266 308>
VStem: 50 154<189 202> 354 155<515.5 560.5> 384 152<189.5 250.5>
LayerCount: 2
Fore
SplineSet
230 461 m 1xf4
 282 461 l 2
 334 461 354 493 354 538 c 0
 354 583 328 608 288 608 c 0
 244 608 212 576 212 518 c 1
 68 540 l 1
 78 658 171 735 290 735 c 0
 409 735 509 671 509 550 c 0xf8
 509 472 470 419 401 399 c 1
 489 378 536 305 536 210 c 0
 536 70 432 -15 292 -15 c 0
 156 -15 55 65 50 189 c 1
 204 202 l 1
 207 155 244 125 292 125 c 0
 343 125 384 159 384 220 c 0
 384 281 353 326 282 326 c 2
 230 326 l 1
 230 461 l 1xf4
EndSplineSet
Validated: 1
EndChar

StartChar: four
Encoding: 52 52 121
Width: 596
Flags: MW
HStem: 0 21G<319 474 319 319> 141 140<190 319 40 40 474 561> 700 20G<335 474 474 474>
VStem: 319 155<0 141 0 141 281 480 480 480>
LayerCount: 2
Fore
SplineSet
474 0 m 1
 319 0 l 1
 319 141 l 1
 40 141 l 1
 40 281 l 1
 335 720 l 1
 474 720 l 1
 474 281 l 1
 561 281 l 1
 561 141 l 1
 474 141 l 1
 474 0 l 1
190 281 m 1
 319 281 l 1
 319 480 l 1
 190 281 l 1
EndSplineSet
Validated: 1
EndChar

StartChar: five
Encoding: 53 53 122
Width: 596
Flags: MW
HStem: -15 140<262 324.5 262 371> 365 140<293.5 324> 575 145<232 505 232 232>
VStem: 394 157<214 282.5>
LayerCount: 2
Fore
SplineSet
40 187 m 1
 187 215 l 1
 195 159 235 125 289 125 c 0
 360 125 394 178 394 250 c 0
 394 315 359 365 289 365 c 0
 242 365 215 344 195 308 c 1
 52 328 l 1
 121 720 l 1
 505 720 l 1
 505 575 l 1
 232 575 l 1
 212 471 l 1
 229 488 270 505 317 505 c 0
 470 505 551 392 551 250 c 0
 551 101 456 -15 286 -15 c 0
 153 -15 52 61 40 187 c 1
EndSplineSet
Validated: 1
EndChar

StartChar: six
Encoding: 54 54 123
Width: 596
Flags: MW
HStem: -15 140<272.5 331 272.5 383.5> 327 135<292.5 331> 600 135<276.5 332>
VStem: 58 148<236.5 255.5 196.5 468> 400 137<196.5 255.5>
LayerCount: 2
Fore
SplineSet
518 567 m 1
 390 527 l 1
 374 575 355 600 309 600 c 0
 244 600 204 521 202 409 c 1
 229 442 267 462 318 462 c 0
 462 462 537 357 537 232 c 0
 537 101 456 -15 311 -15 c 0
 119 -15 58 138 58 335 c 0
 58 601 153 735 314 735 c 0
 437 735 502 657 518 567 c 1
206 226 m 0
 206 167 242 125 303 125 c 0
 359 125 400 167 400 226 c 0
 400 285 359 327 303 327 c 0
 247 327 206 285 206 226 c 0
EndSplineSet
Validated: 1
EndChar

StartChar: seven
Encoding: 55 55 124
Width: 596
Flags: MW
HStem: 0 21G<160 316 160 160> 575 145<60 371 60 531 60 531>
VStem: 160 156<0 0>
LayerCount: 2
Fore
SplineSet
371 575 m 1
 60 575 l 1
 60 720 l 1
 531 720 l 1
 531 575 l 1
 395 429 329 224 316 0 c 1
 160 0 l 1
 164 208 245 446 371 575 c 1
EndSplineSet
Validated: 1
EndChar

StartChar: eight
Encoding: 56 56 125
Width: 596
Flags: MW
HStem: -15 140<271.5 322.5 271.5 367> 326 125<276 318 276 322.5> 605 130<276 318>
VStem: 55 152<192 250.5> 83 148<511 550.5 505.5 607> 364 148<511 550.5> 389 123 389 152<192 250.5 138 259>
LayerCount: 2
Fore
SplineSet
55 203 m 0xf1
 55 298 96 362 179 399 c 1
 116 424 83 472 83 550 c 0
 83 664 178 735 297 735 c 0
 416 735 512 664 512 550 c 0xea
 512 472 479 424 416 399 c 1
 499 362 541 298 541 203 c 0
 541 73 437 -15 297 -15 c 0
 157 -15 55 73 55 203 c 0xf1
207 225 m 0
 207 159 246 125 297 125 c 0
 348 125 389 159 389 225 c 0
 389 293 348 326 297 326 c 0
 246 326 207 293 207 225 c 0
231 528 m 0xec
 231 483 255 451 297 451 c 0
 339 451 364 483 364 528 c 0
 364 573 339 605 297 605 c 0
 255 605 231 573 231 528 c 0xec
EndSplineSet
Validated: 1
EndChar

StartChar: nine
Encoding: 57 57 126
Width: 596
Flags: MW
HStem: -15 135<273 328.5 273 371.5> 258 135<264 302.5> 595 140<264 322.5>
VStem: 58 137<464.5 523.5 464.5 553.5> 389 150<464.5 498.5 247 523.5>
LayerCount: 2
Fore
SplineSet
77 153 m 1
 205 193 l 1
 221 145 250 120 296 120 c 0
 361 120 401 199 393 311 c 1
 366 278 328 258 277 258 c 0
 133 258 58 363 58 488 c 0
 58 619 139 735 284 735 c 0
 476 735 539 612 539 385 c 0
 539 109 452 -15 291 -15 c 0
 168 -15 93 63 77 153 c 1
389 494 m 0
 389 553 353 595 292 595 c 0
 236 595 195 553 195 494 c 0
 195 435 236 393 292 393 c 0
 348 393 389 435 389 494 c 0
EndSplineSet
Validated: 33
EndChar

StartChar: comma
Encoding: 44 44 127
Width: 251
Flags: MW
HStem: -157 21G<104 104> 0 150<50 127 50 201 50 201>
VStem: 50 151<0 150 -42.5 150> 127 74<-27 0>
LayerCount: 2
Fore
SplineSet
127 0 m 1xd0
 50 0 l 1
 50 150 l 1
 201 150 l 1
 201 0 l 2
 201 -85 159 -133 104 -157 c 1
 67 -94 l 1
 102 -79 127 -54 127 0 c 1xd0
EndSplineSet
Validated: 1
EndChar

StartChar: period
Encoding: 46 46 128
Width: 251
Flags: MW
HStem: 0 150<50 201 50 201>
VStem: 50 151<0 150 0 150>
LayerCount: 2
Fore
SplineSet
201 0 m 1
 50 0 l 1
 50 150 l 1
 201 150 l 1
 201 0 l 1
EndSplineSet
Validated: 1
EndChar

StartChar: hyphen
Encoding: 45 45 129
Width: 370
Flags: MW
HStem: 192 136<50 320 50 320>
LayerCount: 2
Fore
SplineSet
320 192 m 1
 50 192 l 1
 50 328 l 1
 320 328 l 1
 320 192 l 1
EndSplineSet
Validated: 1
EndChar

StartChar: endash
Encoding: 8211 8211 130
Width: 556
Flags: MW
HStem: 200 125<30 526 30 526>
LayerCount: 2
Fore
SplineSet
526 200 m 1
 30 200 l 1
 30 325 l 1
 526 325 l 1
 526 200 l 1
EndSplineSet
Validated: 1
EndChar

StartChar: emdash
Encoding: 8212 8212 131
Width: 800
Flags: MW
HStem: 200 125<0 800 0 800>
LayerCount: 2
Fore
SplineSet
800 200 m 1
 0 200 l 1
 0 325 l 1
 800 325 l 1
 800 200 l 1
EndSplineSet
Validated: 1
EndChar

StartChar: exclam
Encoding: 33 33 132
Width: 259
Flags: MW
HStem: 0 150<54 205 54 205> 700 20G<50 209 209 209>
VStem: 61 137
LayerCount: 2
Fore
SplineSet
188 228 m 1
 72 228 l 1
 50 720 l 1
 209 720 l 1
 188 228 l 1
205 0 m 1
 54 0 l 1
 54 150 l 1
 205 150 l 1
 205 0 l 1
EndSplineSet
Validated: 1
EndChar

StartChar: question
Encoding: 63 63 133
Width: 596
Flags: MW
HStem: 0 150<216 367 216 367> 595 140<269 315>
VStem: 205 168<506.5 527.5> 216 151<0 150 0 150> 373 155<506.5 549>
LayerCount: 2
Fore
SplineSet
362 208 m 1xd8
 217 208 l 1
 217 253 l 2
 217 334 248 384 308 428 c 0
 355 462 373 486 373 527 c 0
 373 571 341 595 289 595 c 0
 249 595 205 561 205 494 c 1
 59 524 l 1
 71 656 168 735 288 735 c 0
 426 735 528 656 528 533 c 0
 528 435 471 396 416 345 c 0
 381 312 364 300 362 243 c 2xe0
 362 208 l 1xd8
367 0 m 1
 216 0 l 1
 216 150 l 1
 367 150 l 1
 367 0 l 1
EndSplineSet
Validated: 1
EndChar

StartChar: .grave
Encoding: 65539 -1 134
Width: 500
Flags: MW
HStem: -15 75<4333.5 4403.5 4333.5 4429> 460 75<4338.5 4403.5>
VStem: 4135 90<189 331 189 346> 4447 64<244 275.5 244 330 190 275.5> 4511 90<244 275.5> 4601 24<241 278.5>
LayerCount: 2
Fore
SplineSet
4225 260 m 0
 4225 118 4294 60 4373 60 c 0
 4434 60 4483 95 4502 177 c 1
 4589 158 l 1
 4561 48 4485 -15 4373 -15 c 0
 4229 -15 4135 88 4135 260 c 0
 4135 432 4229 535 4373 535 c 0
 4485 535 4561 471 4589 362 c 1
 4502 342 l 1
 4483 425 4434 460 4373 460 c 0
 4304 460 4225 402 4225 260 c 0
4511 260 m 0
 4511 291 4508 319 4502 342 c 1
 4447 330 l 1
 4447 190 l 1
 4502 177 l 1
 4508 201 4511 228 4511 260 c 0
4625 150 m 1
 4625 370 l 1
 4589 362 l 1
 4596 331 4601 297 4601 260 c 0
 4601 222 4596 188 4589 158 c 1
 4625 150 l 1
EndSplineSet
Validated: 8388613
EndChar

StartChar: afii10065
Encoding: 1072 1072 135
Width: 556
Flags: MW
HStem: -15 112<216.5 234> 0 21G<375 526 375 375> 413 122<235 295.5>
VStem: 30 150 346 150<165 235 235 235>
LayerCount: 2
Fore
SplineSet
352 54 m 1xb8
 309 2 265 -15 203 -15 c 0
 109 -15 30 36 30 132 c 0
 30 244 108 286 234 301 c 0
 288 307 320 313 346 325 c 1
 346 337 l 2
 346 371 327 413 264 413 c 0x78
 206 413 183 374 173 336 c 1
 46 378 l 1
 72 498 174 535 271 535 c 0
 404 535 496 475 496 314 c 2
 496 106 l 2
 496 53 508 19 526 0 c 1
 375 0 l 1
 360 13 354 37 352 54 c 1xb8
346 165 m 1
 346 235 l 1
 328 228 304 219 254 209 c 0
 208 200 178 183 180 142 c 0
 181 119 195 97 238 97 c 0xb8
 285 97 329 130 346 165 c 1
EndSplineSet
Validated: 33
EndChar

StartChar: afii10066
Encoding: 1073 1073 136
Width: 573
Flags: MW
HStem: -15 125<259 321 259 361.5> 375 129<291 321> 576 144 730 20G<513 513>
VStem: 30 152<197 289 197 386> 398 150<197 289>
LayerCount: 2
Fore
SplineSet
513 750 m 1
 500 601 l 1
 485 588 453 583 431 581 c 2
 291 571 l 2
 211 565 170 518 161 431 c 1
 201 488 266 504 316 504 c 0
 452 504 548 412 548 247 c 0
 548 77 433 -15 290 -15 c 0
 150 -15 30 74 30 290 c 0
 30 482 70 705 310 720 c 2
 441 728 l 2
 470 730 499 737 513 750 c 1
182 243 m 0
 182 151 228 110 290 110 c 0
 352 110 398 151 398 243 c 0
 398 335 352 375 290 375 c 0
 228 375 182 335 182 243 c 0
EndSplineSet
Validated: 1
EndChar

StartChar: afii10067
Encoding: 1074 1074 137
Width: 520
Flags: MW
HStem: 0 115<205 238 238 271.5 205 300> 205 115<205 218 205 218 218 232> 405 115<205 205 205 236>
VStem: 55 150<115 205 320 405> 319 152<356.5 386> 342 152<141 171 91 178>
LayerCount: 2
Fore
SplineSet
55 0 m 5xf4
 55 520 l 5
 269 520 l 6
 366 520 471 496 471 381 c 4
 471 332 438 285 387 270 c 5
 460 255 494 197 494 145 c 4
 494 37 406 0 300 0 c 6
 55 0 l 5xf4
205 405 m 5
 205 320 l 5xf8
 218 320 l 6
 275 320 319 321 319 366 c 4
 319 406 280 405 236 405 c 6
 205 405 l 5
205 205 m 5
 205 115 l 5xf8
 238 115 l 6
 305 115 342 123 342 159 c 4xf4
 342 197 320 205 232 205 c 6
 205 205 l 5
EndSplineSet
Validated: 33
EndChar

StartChar: periodcentered
Encoding: 183 183 138
Width: 251
Flags: MW
HStem: 187 150<50 201 50 201>
VStem: 50 151<187 337 187 337>
LayerCount: 2
Fore
SplineSet
201 187 m 1
 50 187 l 1
 50 337 l 1
 201 337 l 1
 201 187 l 1
EndSplineSet
Validated: 1
EndChar

StartChar: afii10071
Encoding: 1105 1105 139
Width: 558
Flags: MW
HStem: -15 125<259.5 317 259.5 345.5> 110 107<259.5 317> 217 102<177 381 177 532 175 381> 319 91<254 308 254 381 254 381> 410 125<254 308> 580 140<97 248 97 248 97 323 323 474>
VStem: 25 72 25 150<217 217 217 356> 248 75<580 720 580 720> 381 152<319 319> 474 59
LayerCount: 2
Fore
SplineSet
248 580 m 1x96c0
 97 580 l 1
 97 720 l 1
 248 720 l 1
 248 580 l 1x96c0
474 580 m 1
 323 580 l 1x4dc0
 323 720 l 1
 474 720 l 1
 474 580 l 1
532 217 m 2xaea0
 175 217 l 1
 179 145 226 110 293 110 c 0
 341 110 372 137 384 170 c 1
 524 141 l 1
 485 38 408 -15 283 -15 c 0
 149 -15 25 68 25 260 c 0
 25 452 150 535 283 535 c 0
 414 535 533 455 533 281 c 0
 533 250 532 219 532 217 c 2xaea0
279 410 m 0
 229 410 183 376 177 319 c 1x4da0
 381 319 l 1
 377 374 337 410 279 410 c 0
EndSplineSet
Validated: 1
EndChar

StartChar: afii10023
Encoding: 1025 1025 140
Width: 657
Flags: MW
HStem: 0 145<230 607 230 607> 295 145<230 547 230 547> 575 145<230 597 230 230> 779 141<140 290 140 290 140 380 380 530>
VStem: 70 160<145 295 440 575> 140 150<779 920 779 920> 380 150<779 920 779 920>
LayerCount: 2
Fore
SplineSet
290 779 m 1xfa
 140 779 l 1
 140 920 l 1
 290 920 l 1
 290 779 l 1xfa
530 779 m 1
 380 779 l 1
 380 920 l 1
 530 920 l 1
 530 779 l 1
607 0 m 1
 70 0 l 1
 70 720 l 1
 597 720 l 1
 597 575 l 1
 230 575 l 1
 230 440 l 1
 547 440 l 1
 547 295 l 1
 230 295 l 1xf6
 230 145 l 1
 607 145 l 1
 607 0 l 1
EndSplineSet
Validated: 1
EndChar

StartChar: underscore
Encoding: 95 95 141
Width: 656
Flags: MW
HStem: 0 125<50 606 50 606>
LayerCount: 2
Fore
SplineSet
606 0 m 1
 50 0 l 1
 50 125 l 1
 606 125 l 1
 606 0 l 1
EndSplineSet
Validated: 1
EndChar

StartChar: colon
Encoding: 58 58 142
Width: 251
Flags: MW
HStem: 52 150<50 201 50 201> 322 150<50 201 50 201>
VStem: 50 151<52 202 52 202 322 472>
LayerCount: 2
Fore
SplineSet
201 322 m 1
 50 322 l 1
 50 472 l 1
 201 472 l 1
 201 322 l 1
201 52 m 1
 50 52 l 1
 50 202 l 1
 201 202 l 1
 201 52 l 1
EndSplineSet
Validated: 1
EndChar

StartChar: ellipsis
Encoding: 8230 8230 143
Width: 671
Flags: MW
HStem: 0 150<50 201 50 201 50 260 260 411 470 621>
VStem: 50 151<0 150 0 150> 260 151<0 150 0 150> 470 151<0 150 0 150>
CounterMasks: 1 70
LayerCount: 2
Fore
SplineSet
201 0 m 1
 50 0 l 1
 50 150 l 1
 201 150 l 1
 201 0 l 1
411 0 m 1
 260 0 l 1
 260 150 l 1
 411 150 l 1
 411 0 l 1
621 0 m 1
 470 0 l 1
 470 150 l 1
 621 150 l 1
 621 0 l 1
EndSplineSet
Validated: 1
EndChar

StartChar: plus
Encoding: 43 43 144
Width: 596
Flags: MW
HStem: 114 21G<230 365 230 230> 300 125<50 230 50 230 365 546> 590 20G<230 365 365 365>
VStem: 230 135<114 300 114 300 425 610>
LayerCount: 2
Fore
SplineSet
365 300 m 1
 365 114 l 1
 230 114 l 1
 230 300 l 1
 50 300 l 1
 50 425 l 1
 230 425 l 1
 230 610 l 1
 365 610 l 1
 365 425 l 1
 546 425 l 1
 546 300 l 1
 365 300 l 1
EndSplineSet
Validated: 1
EndChar

StartChar: equal
Encoding: 61 61 145
Width: 596
Flags: MW
HStem: 185 135<70 526 70 526> 405 135<70 526 70 526>
LayerCount: 2
Fore
SplineSet
526 185 m 1
 70 185 l 1
 70 320 l 1
 526 320 l 1
 526 185 l 1
526 405 m 1
 70 405 l 1
 70 540 l 1
 526 540 l 1
 526 405 l 1
EndSplineSet
Validated: 1
EndChar

StartChar: quotedbl
Encoding: 34 34 146
Width: 459
Flags: MW
HStem: 482 238<72 188 72 72 272 272 272 388>
LayerCount: 2
Fore
SplineSet
188 482 m 1
 72 482 l 1
 50 720 l 1
 209 720 l 1
 188 482 l 1
388 482 m 1
 272 482 l 1
 250 720 l 1
 409 720 l 1
 388 482 l 1
EndSplineSet
Validated: 1
EndChar

StartChar: quotesingle
Encoding: 39 39 147
Width: 259
Flags: MW
HStem: 482 238<72 188 72 72>
LayerCount: 2
Fore
SplineSet
188 482 m 1
 72 482 l 1
 50 720 l 1
 209 720 l 1
 188 482 l 1
EndSplineSet
Validated: 1
EndChar

StartChar: bar
Encoding: 124 124 148
Width: 280
Flags: MW
HStem: -100 21G<60 220 60 60> 800 20G<60 220 220 220>
VStem: 60 160<-100 820>
LayerCount: 2
Fore
SplineSet
220 -100 m 1
 60 -100 l 1
 60 820 l 1
 220 820 l 1
 220 -100 l 1
EndSplineSet
Validated: 1
EndChar

StartChar: brokenbar
Encoding: 166 166 149
Width: 280
Flags: MW
HStem: -100 21G<60 220 60 60> 800 20G<60 220 220 220>
VStem: 60 160<-100 325 410 820>
LayerCount: 2
Fore
SplineSet
220 -100 m 1
 60 -100 l 1
 60 325 l 1
 220 325 l 1
 220 -100 l 1
60 410 m 1
 60 820 l 1
 220 820 l 1
 220 410 l 1
 60 410 l 1
EndSplineSet
Validated: 1
EndChar

StartChar: bracketleft
Encoding: 91 91 150
Width: 357
Flags: MW
HStem: -140 135<215 337 215 337> 685 135<215 337 215 215>
VStem: 60 155<-5 685 -5 820 -5 820>
LayerCount: 2
Fore
SplineSet
337 -140 m 1
 60 -140 l 1
 60 820 l 1
 337 820 l 1
 337 685 l 1
 215 685 l 1
 215 -5 l 1
 337 -5 l 1
 337 -140 l 1
EndSplineSet
Validated: 1
EndChar

StartChar: bracketright
Encoding: 93 93 151
Width: 357
Flags: MW
HStem: -140 135<20 142 20 297 20 142> 685 135<20 142 20 297>
VStem: 142 155<-5 685 685 685>
LayerCount: 2
Fore
SplineSet
297 -140 m 1
 20 -140 l 1
 20 -5 l 1
 142 -5 l 1
 142 685 l 1
 20 685 l 1
 20 820 l 1
 297 820 l 1
 297 -140 l 1
EndSplineSet
Validated: 1
EndChar

StartChar: slash
Encoding: 47 47 152
Width: 401
Flags: MW
HStem: -100 21G<0 154 0 0> 800 20G<246 401 401 401>
LayerCount: 2
Fore
SplineSet
154 -100 m 1
 0 -100 l 1
 246 820 l 1
 401 820 l 1
 154 -100 l 1
EndSplineSet
Validated: 1
EndChar

StartChar: backslash
Encoding: 92 92 153
Width: 401
Flags: MW
HStem: -100 21G<247 401 247 247> 800 20G<0 155 155 155>
LayerCount: 2
Fore
SplineSet
401 -100 m 1
 247 -100 l 1
 0 820 l 1
 155 820 l 1
 401 -100 l 1
EndSplineSet
Validated: 1
EndChar

StartChar: semicolon
Encoding: 59 59 154
Width: 251
Flags: MW
HStem: -157 21G<104 104> 0 150<50 127 50 201 50 201> 322 150<50 201 50 201>
VStem: 50 151<0 150 -42.5 150 322 472> 127 74<-27 0>
LayerCount: 2
Fore
SplineSet
201 322 m 1xf0
 50 322 l 1
 50 472 l 1
 201 472 l 1
 201 322 l 1xf0
127 0 m 1
 50 0 l 1
 50 150 l 1
 201 150 l 1
 201 0 l 2
 201 -85 159 -133 104 -157 c 1
 67 -94 l 1xe8
 102 -79 127 -54 127 0 c 1
EndSplineSet
Validated: 1
EndChar

StartChar: quotesinglbase
Encoding: 8218 8218 155
Width: 251
Flags: MW
HStem: -157 21G<104 104> 0 150<50 127 50 201 50 201>
VStem: 50 151<0 150 -42.5 150> 127 74<-27 0>
LayerCount: 2
Fore
SplineSet
127 0 m 1xd0
 50 0 l 1
 50 150 l 1
 201 150 l 1
 201 0 l 2
 201 -85 159 -133 104 -157 c 1
 67 -94 l 1
 102 -79 127 -54 127 0 c 1xd0
EndSplineSet
Validated: 1
EndChar

StartChar: quotedblbase
Encoding: 8222 8222 156
Width: 451
Flags: MW
HStem: -157 21G<104 104 304 304> 0 150<50 127 50 201 50 201 50 250 250 327>
VStem: 50 151<0 150 -42.5 150> 127 74<-27 0> 250 151<0 150 -42.5 150> 327 74<-27 0>
LayerCount: 2
Fore
SplineSet
127 0 m 1xe8
 50 0 l 1
 50 150 l 1
 201 150 l 1
 201 0 l 2
 201 -85 159 -133 104 -157 c 1
 67 -94 l 1xd4
 102 -79 127 -54 127 0 c 1xe8
327 0 m 1
 250 0 l 1
 250 150 l 1
 401 150 l 1
 401 0 l 2
 401 -85 359 -133 304 -157 c 1
 267 -94 l 1xe8
 302 -79 327 -54 327 0 c 1
EndSplineSet
Validated: 1
EndChar

StartChar: quotedblright
Encoding: 8221 8221 157
Width: 451
Flags: MW
HStem: 413 21G<104 104 304 304> 570 150<50 127 50 201 50 201 50 250 250 327>
VStem: 50 151<570 720 527.5 720> 127 74<543 570> 250 151<570 720 527.5 720> 327 74<543 570>
LayerCount: 2
Fore
SplineSet
127 570 m 1xe8
 50 570 l 1
 50 720 l 1
 201 720 l 1
 201 570 l 2
 201 485 159 437 104 413 c 1
 67 476 l 1xd4
 102 491 127 516 127 570 c 1xe8
327 570 m 1
 250 570 l 1
 250 720 l 1
 401 720 l 1
 401 570 l 2
 401 485 359 437 304 413 c 1
 267 476 l 1xe8
 302 491 327 516 327 570 c 1
EndSplineSet
Validated: 1
EndChar

StartChar: quotedblleft
Encoding: 8220 8220 158
Width: 451
Flags: MW
HStem: 428 150<124 201 50 50 324 401> 715 20G<147 147 347 347>
VStem: 50 74<428 605 578 605 578 620.5> 50 151<428 578 428 620.5> 250 74<428 605 578 605 578 620.5> 250 151<428 578 428 620.5>
LayerCount: 2
Fore
SplineSet
324 578 m 1xd8
 401 578 l 1
 401 428 l 1
 250 428 l 1
 250 578 l 2
 250 663 292 711 347 735 c 1
 384 672 l 1xe8
 349 657 324 632 324 578 c 1xd8
124 578 m 1
 201 578 l 1
 201 428 l 1
 50 428 l 1
 50 578 l 2
 50 663 92 711 147 735 c 1
 184 672 l 1xe4
 149 657 124 632 124 578 c 1
EndSplineSet
Validated: 1
EndChar

StartChar: quoteleft
Encoding: 8216 8216 159
Width: 251
Flags: MW
HStem: 428 150<124 201 50 50> 715 20G<147 147>
VStem: 50 74<428 605 578 605 578 620.5> 50 151<428 578 428 620.5>
LayerCount: 2
Fore
SplineSet
124 578 m 1xd0
 201 578 l 1
 201 428 l 1
 50 428 l 1
 50 578 l 2
 50 663 92 711 147 735 c 1
 184 672 l 1xe0
 149 657 124 632 124 578 c 1xd0
EndSplineSet
Validated: 1
EndChar

StartChar: quoteright
Encoding: 8217 8217 160
Width: 251
Flags: MW
HStem: 413 21G<104 104> 570 150<50 127 50 201 50 201>
VStem: 50 151<570 720 527.5 720> 127 74<543 570>
LayerCount: 2
Fore
SplineSet
127 570 m 1xd0
 50 570 l 1
 50 720 l 1
 201 720 l 1
 201 570 l 2
 201 485 159 437 104 413 c 1
 67 476 l 1
 102 491 127 516 127 570 c 1xd0
EndSplineSet
Validated: 1
EndChar

StartChar: numbersign
Encoding: 35 35 161
Width: 696
Flags: MW
HStem: 0 21G<50 199 50 50 290 439 290 290> 175 125<40 100 0 136 285 340 40 249 525 592> 425 125<104 171 64 207 357 411 104 321 597 656> 700 20G<256 406 406 406 496 646 646 646>
LayerCount: 2
Fore
SplineSet
439 0 m 1
 290 0 l 1
 340 175 l 1
 249 175 l 1
 199 0 l 1
 50 0 l 1
 100 175 l 1
 0 175 l 1
 40 300 l 1
 136 300 l 1
 171 425 l 1
 64 425 l 1
 104 550 l 1
 207 550 l 1
 256 720 l 1
 406 720 l 1
 357 550 l 1
 447 550 l 1
 496 720 l 1
 646 720 l 1
 597 550 l 1
 696 550 l 1
 656 425 l 1
 561 425 l 1
 525 300 l 1
 632 300 l 1
 592 175 l 1
 489 175 l 1
 439 0 l 1
321 425 m 1
 285 300 l 1
 376 300 l 1
 411 425 l 1
 321 425 l 1
EndSplineSet
Validated: 1
EndChar

StartChar: guillemotright
Encoding: 187 187 162
Width: 471
Flags: MW
HStem: 94 21G<20 146 20 20 210 210 210 336> 412 20G<20 146 146 146 210 336 336 336>
LayerCount: 2
Fore
SplineSet
146 432 m 1
 261 263 l 1
 146 94 l 1
 20 94 l 1
 114 263 l 1
 20 432 l 1
 146 432 l 1
336 432 m 1
 451 263 l 1
 336 94 l 1
 210 94 l 1
 304 263 l 1
 210 432 l 1
 336 432 l 1
EndSplineSet
Validated: 1
EndChar

StartChar: guillemotleft
Encoding: 171 171 163
Width: 471
Flags: MW
HStem: 94 21G<135 261 135 135 325 451 325 325> 412 20G<135 261 261 261 325 451 451 451>
LayerCount: 2
Fore
SplineSet
210 263 m 1
 325 432 l 1
 451 432 l 1
 357 263 l 1
 451 94 l 1
 325 94 l 1
 210 263 l 1
20 263 m 1
 135 432 l 1
 261 432 l 1
 167 263 l 1
 261 94 l 1
 135 94 l 1
 20 263 l 1
EndSplineSet
Validated: 1
EndChar

StartChar: guilsinglleft
Encoding: 8249 8249 164
Width: 341
Flags: MW
HStem: 94 21G<155 321 155 155> 412 20G<155 321 321 321>
LayerCount: 2
Fore
SplineSet
20 263 m 1
 155 432 l 1
 321 432 l 1
 187 263 l 1
 321 94 l 1
 155 94 l 1
 20 263 l 1
EndSplineSet
Validated: 1
EndChar

StartChar: guilsinglright
Encoding: 8250 8250 165
Width: 341
Flags: MW
HStem: 94 21G<20 186 20 20> 412 20G<20 186 186 186>
LayerCount: 2
Fore
SplineSet
186 432 m 1
 321 263 l 1
 186 94 l 1
 20 94 l 1
 154 263 l 1
 20 432 l 1
 186 432 l 1
EndSplineSet
Validated: 1
EndChar

StartChar: less
Encoding: 60 60 166
Width: 596
Flags: MW
HStem: 52 21G<493 493> 627 20G<493 493>
LayerCount: 2
Fore
SplineSet
113 281 m 1
 113 418 l 1
 493 647 l 1
 493 487 l 1
 242 350 l 1
 493 211 l 1
 493 52 l 1
 113 281 l 1
EndSplineSet
Validated: 1
EndChar

StartChar: greater
Encoding: 62 62 167
Width: 596
Flags: MW
HStem: 52 21G<113 113> 627 20G<113 113>
LayerCount: 2
Fore
SplineSet
493 418 m 1
 493 281 l 1
 113 52 l 1
 113 211 l 1
 364 350 l 1
 113 487 l 1
 113 647 l 1
 493 418 l 1
EndSplineSet
Validated: 1
EndChar

StartChar: dollar
Encoding: 36 36 168
Width: 596
Flags: MW
HStem: -100 21G<259 334 259 259> 800 20G<259 334 334 334>
VStem: 47 154<513 545 513 585> 259 75<-100 -14 -100 -13 -100 -13 129 291 459 588 734 820> 405 164<181 219.5>
LayerCount: 2
Fore
SplineSet
259 734 m 1
 259 820 l 1
 334 820 l 1
 334 732 l 1
 464 719 536 648 545 514 c 1
 493 512 441 509 389 507 c 1
 382 545 368 575 334 588 c 1
 334 445 l 1
 467 420 569 353 569 209 c 0
 569 68 452 -4 334 -14 c 1
 334 -100 l 1
 259 -100 l 1
 259 -13 l 1
 110 2 37 91 27 230 c 1
 78 233 130 235 181 238 c 1
 187 172 213 140 259 129 c 1
 259 307 l 1
 79 333 47 437 47 516 c 0
 47 654 148 724 259 734 c 1
405 204 m 0
 405 235 392 260 361 278 c 0
 353 283 344 287 334 291 c 1
 334 127 l 1
 374 135 405 158 405 204 c 0
201 530 m 0
 201 496 215 477 259 459 c 1
 259 592 l 1
 222 584 201 560 201 530 c 0
EndSplineSet
Validated: 1
EndChar

StartChar: Euro
Encoding: 8364 8364 169
Width: 596
Flags: MW
HStem: -15 138<310.5 362.5 310.5 407> 255 75<10 85 10 90 10 85 244 366 244 244> 395 75<10 85 10 90 245 366> 597 138<311 362.5>
VStem: 85 156<330 395 330 395>
LayerCount: 2
Fore
SplineSet
366 395 m 1
 241 395 l 1
 241 330 l 1
 366 330 l 1
 366 255 l 1
 244 255 l 1
 253 161 283 123 338 123 c 0
 387 123 413 156 427 231 c 1
 579 213 l 1
 563 65 476 -15 338 -15 c 0
 187 -15 106 94 90 255 c 1
 10 255 l 1
 10 330 l 1
 85 330 l 1
 85 395 l 1
 10 395 l 1
 10 470 l 1
 90 470 l 1
 108 628 189 735 338 735 c 0
 476 735 564 654 579 505 c 1
 427 486 l 1
 413 563 387 597 338 597 c 0
 284 597 254 550 245 470 c 1
 366 470 l 1
 366 395 l 1
EndSplineSet
Validated: 1
EndChar

StartChar: asciicircum
Encoding: 94 94 170
Width: 596
Flags: MW
HStem: 470 21G<80 218 80 80 374 374> 700 20G<229 366 366 366>
LayerCount: 2
Fore
SplineSet
229 720 m 1
 366 720 l 1
 515 471 l 1
 374 470 l 1
 297 611 l 1
 218 470 l 1
 80 470 l 1
 229 720 l 1
EndSplineSet
Validated: 1
EndChar

StartChar: afii10103
Encoding: 1110 1110 171
Width: 260
Flags: MW
HStem: 0 21G<55 205 55 55> 500 20G<55 205 205 205> 584 136<55 205 55 205>
VStem: 55 150<0 520 584 720>
LayerCount: 2
Fore
SplineSet
205 584 m 1
 55 584 l 1
 55 720 l 1
 205 720 l 1
 205 584 l 1
205 0 m 1
 55 0 l 1
 55 520 l 1
 205 520 l 1
 205 0 l 1
EndSplineSet
Validated: 1
EndChar

StartChar: afii10055
Encoding: 1030 1030 172
Width: 300
Flags: MW
HStem: 0 21G<70 230 70 70> 700 20G<70 230 230 230>
VStem: 70 160<0 720>
LayerCount: 2
Fore
SplineSet
230 0 m 1
 70 0 l 1
 70 720 l 1
 230 720 l 1
 230 0 l 1
EndSplineSet
Validated: 1
EndChar

StartChar: afii10102
Encoding: 1109 1109 173
Width: 483
Flags: MW
HStem: -15 115<217 265.5 217 304> 420 115<218.5 257.5>
VStem: 38 126<364.5 390.5 364.5 428.5> 328 130<131 164>
LayerCount: 2
Fore
SplineSet
25 150 m 1
 150 171 l 1
 156 126 189 100 245 100 c 0
 286 100 328 110 328 152 c 0
 328 176 309 188 288 193 c 2
 165 220 l 2
 97 235 38 283 38 369 c 0
 38 488 137 535 244 535 c 0
 368 535 443 464 446 385 c 1
 320 363 l 1
 313 406 276 420 239 420 c 0
 198 420 164 408 164 373 c 0
 164 356 176 342 202 337 c 2
 321 312 l 2
 378 300 458 263 458 156 c 0
 458 41 366 -15 242 -15 c 0
 115 -15 35 55 25 150 c 1
EndSplineSet
Validated: 1
EndChar

StartChar: afii10054
Encoding: 1029 1029 174
Width: 647
Flags: MW
HStem: -15 140<284.5 358 284.5 398.5> -15 249 510 225 595 140<280.5 351.5>
VStem: 55 154<516.5 549 516.5 590.5> 443 164<175.5 224.5>
LayerCount: 2
Fore
SplineSet
35 230 m 1
 189 238 l 1
 197 153 243 125 326 125 c 0
 390 125 443 147 443 204 c 0
 443 245 423 264 366 283 c 0
 328 296 248 317 205 330 c 0
 79 368 55 448 55 516 c 0
 55 665 178 735 309 735 c 0
 479 735 573 664 583 514 c 1
 427 507 l 1
 418 559 390 595 313 595 c 0
 248 595 209 568 209 530 c 0
 209 503 220 487 254 474 c 0
 287 461 359 441 428 422 c 0
 533 392 607 329 607 209 c 0
 607 57 467 -15 330 -15 c 0
 139 -15 46 77 35 230 c 1
EndSplineSet
Validated: 8388609
EndChar

StartChar: afii10105
Encoding: 1112 1112 175
Width: 260
Flags: MW
HStem: -210 132<16 21 -13 84> 500 20G<55 205 205 205> 584 136<55 205 55 205>
VStem: 55 150<27 520 584 720>
LayerCount: 2
Fore
SplineSet
-61 -196 m 1
 -43 -72 l 1
 -26 -77 -18 -78 -8 -78 c 0
 50 -78 55 -26 55 27 c 2
 55 520 l 1
 205 520 l 1
 205 -28 l 2
 205 -134 140 -210 28 -210 c 0
 4 -210 -39 -205 -61 -196 c 1
205 584 m 1
 55 584 l 1
 55 720 l 1
 205 720 l 1
 205 584 l 1
EndSplineSet
Validated: 1
EndChar

StartChar: afii10057
Encoding: 1032 1032 176
Width: 572
Flags: MW
HStem: -15 140<224.5 295 224.5 326> 700 20G<341 502 502 502>
VStem: 21 152<223 245> 341 161<263 720>
LayerCount: 2
Fore
SplineSet
21 223 m 1
 173 245 l 1
 175 172 192 125 257 125 c 0
 333 125 341 180 341 263 c 2
 341 720 l 1
 502 720 l 1
 502 238 l 2
 502 51 395 -15 257 -15 c 0
 126 -15 18 50 21 223 c 1
EndSplineSet
Validated: 33
EndChar

StartChar: afii10110
Encoding: 1118 1118 177
Width: 560
Flags: MW
HStem: -210 134<129.5 141.5 104.5 195.5> 500 20G<10 163 163 163 402 550 550 550> 573 91<269 297 269 333> 573 147<114 333>
LayerCount: 2
Fore
SplineSet
71 -195 m 1xd0
 61 -62 l 1xd0
 78 -69 87 -76 122 -76 c 0xe0
 161 -76 187 -62 207 -9 c 2
 212 5 l 1
 10 520 l 1
 163 520 l 1
 283 177 l 1
 402 520 l 1
 550 520 l 1
 347 -29 l 2
 303 -149 243 -210 148 -210 c 0
 111 -210 90 -202 71 -195 c 1xd0
347 720 m 1
 452 720 l 1
 452 625 383 573 283 573 c 0
 183 573 114 626 114 720 c 1
 219 720 l 1
 224 680 255 664 283 664 c 0
 311 664 342 680 347 720 c 1
EndSplineSet
Validated: 1
EndChar

StartChar: afii10062
Encoding: 1038 1038 178
Width: 705
Flags: MW
HStem: -15 138<199.5 225.5 193 272.5> 700 20G<10 177 177 177 534 695 695 695> 753 94<355 393 355 439> 753 167<309 312 192 439>
VStem: 192 120<895 920 895 920> 440 120<895 920>
LayerCount: 2
Fore
SplineSet
298 196 m 1xdc
 10 720 l 1
 177 720 l 1xdc
 374 349 l 1xec
 534 720 l 1
 695 720 l 1
 442 159 l 2
 387 35 318 -15 227 -15 c 0
 172 -15 110 1 86 26 c 1
 120 157 l 1
 137 144 177 123 209 123 c 0
 242 123 272 135 288 173 c 2
 298 196 l 1xdc
440 920 m 1
 560 920 l 1
 560 825 504 753 374 753 c 0
 244 753 192 826 192 920 c 1
 312 920 l 1
 312 870 336 847 374 847 c 0
 412 847 440 870 440 920 c 1
EndSplineSet
Validated: 1
EndChar

StartChar: afii10056
Encoding: 1031 1031 179
Width: 299
Flags: MW
HStem: 0 21G<70 229 70 70> 700 20G<70 229 229 229> 779 141<-33 117 -33 117 -33 182 182 332>
VStem: -33 150<779 920 779 920> 70 159<0 720> 182 150<779 920 779 920>
LayerCount: 2
Fore
SplineSet
229 0 m 1xf4
 70 0 l 1
 70 720 l 1
 229 720 l 1
 229 0 l 1xf4
117 779 m 1
 -33 779 l 1
 -33 920 l 1
 117 920 l 1
 117 779 l 1
332 779 m 1
 182 779 l 1xe8
 182 920 l 1
 332 920 l 1
 332 779 l 1
EndSplineSet
Validated: 1
EndChar

StartChar: afii10104
Encoding: 1111 1111 180
Width: 260
Flags: MW
HStem: 0 21G<55 205 55 55> 500 20G<55 205 205 205> 584 136<-40 100 -40 100 -40 160 160 300>
VStem: -40 140<584 720 584 720> 55 150<0 520> 160 140<584 720 584 720>
LayerCount: 2
Fore
SplineSet
100 584 m 1xf4
 -40 584 l 1
 -40 720 l 1
 100 720 l 1
 100 584 l 1xf4
205 0 m 1
 55 0 l 1xe8
 55 520 l 1
 205 520 l 1
 205 0 l 1
300 584 m 1
 160 584 l 1xf4
 160 720 l 1
 300 720 l 1
 300 584 l 1
EndSplineSet
Validated: 1
EndChar

StartChar: braceright
Encoding: 125 125 181
Width: 349
Flags: MW
HStem: -110 129<30 163> 695 129<30 163 30 163>
VStem: 30 229<-100 72 19 72> 109 150<124 207 19 257 473.5 507 507 590 590 616.5> 109 220<124 417 257 417 297 590 297 616.5>
LayerCount: 2
Fore
SplineSet
30 695 m 1xe0
 30 814 l 1
 41 819 83 824 107 824 c 0
 219 824 259 748 259 642 c 2
 259 507 l 2xe0
 259 440 294 417 329 417 c 1
 329 297 l 1xc8
 294 297 259 274 259 207 c 2
 259 72 l 2
 259 -34 219 -110 107 -110 c 0
 83 -110 41 -105 30 -100 c 1
 30 19 l 1xe0
 66 19 l 2
 114 19 109 71 109 124 c 2
 109 257 l 2
 109 320 149 344 179 357 c 1
 149 370 109 394 109 457 c 2
 109 590 l 2xd0
 109 643 114 695 66 695 c 2
 30 695 l 1xe0
EndSplineSet
Validated: 33
EndChar

StartChar: braceleft
Encoding: 123 123 182
Width: 349
Flags: MW
HStem: -110 129<186 319> 695 129<186 283 186 319>
VStem: 20 220<97.5 417> 90 150<97.5 124 124 207 207 240.5 507 590> 90 229<-100 207 -100 240.5>
LayerCount: 2
Fore
SplineSet
319 814 m 1xe0
 319 695 l 1
 283 695 l 2
 235 695 240 643 240 590 c 2
 240 457 l 2
 240 394 200 370 170 357 c 1xc8
 200 344 240 320 240 257 c 2
 240 124 l 2xe0
 240 71 235 19 283 19 c 2
 319 19 l 1
 319 -100 l 1xc8
 308 -105 266 -110 242 -110 c 0
 130 -110 90 -34 90 72 c 2
 90 207 l 2xd0
 90 274 55 297 20 297 c 1
 20 417 l 1
 55 417 90 440 90 507 c 2
 90 642 l 2
 90 748 130 824 242 824 c 0
 266 824 308 819 319 814 c 1xe0
EndSplineSet
Validated: 33
EndChar

StartChar: afii10101
Encoding: 1108 1108 183
Width: 548
Flags: MW
HStem: -15 125<246.5 297 246.5 329> 210 105<179 328 179 328 178 328> 410 125<248.5 297>
LayerCount: 2
Fore
SplineSet
328 315 m 1
 328 210 l 1
 178 210 l 1
 188 145 220 110 273 110 c 0
 321 110 354 135 365 196 c 1
 513 175 l 1
 485 36 385 -15 273 -15 c 0
 139 -15 25 68 25 260 c 0
 25 452 139 535 273 535 c 0
 385 535 485 483 513 344 c 1
 366 322 l 1
 355 384 321 410 273 410 c 0
 224 410 191 377 179 315 c 1
 328 315 l 1
EndSplineSet
Validated: 1
EndChar

StartChar: afii10053
Encoding: 1028 1028 184
Width: 741
Flags: MW
HStem: -15 140<340 427 340 474.5> 305 125<211 456 211 456 209 456> 595 140<337.5 422>
LayerCount: 2
Fore
SplineSet
456 430 m 1
 456 305 l 1
 209 305 l 1
 225 191 292 125 388 125 c 0
 466 125 519 165 544 250 c 1
 701 206 l 1
 657 68 561 -15 388 -15 c 0
 168 -15 40 143 40 360 c 0
 40 577 163 735 383 735 c 0
 546 735 665 657 701 513 c 1
 544 469 l 1
 523 559 461 595 383 595 c 0
 292 595 229 534 211 430 c 1
 456 430 l 1
EndSplineSet
Validated: 1
EndChar

StartChar: ampersand
Encoding: 38 38 185
Width: 638
Flags: MW
HStem: -15 120<244.5 283.5 244.5 297> 0 21G<460 618 460 460> 615 120<257 296.5>
VStem: 40 136<164.5 214.5 164.5 232> 81 131<532 566 532 607.5> 338 131<541 575.5>
LayerCount: 2
Fore
SplineSet
618 0 m 1xb4
 460 0 l 1
 450 12 439 25 429 37 c 1
 386 5 331 -15 263 -15 c 0
 114 -15 40 71 40 184 c 0
 40 280 90 337 149 381 c 1
 123 411 81 466 81 550 c 0x6c
 81 665 166 735 281 735 c 0
 426 735 469 637 469 560 c 0
 469 494 442 444 380 396 c 0
 365 384 347 372 327 360 c 1
 357 323 386 286 416 249 c 1
 422 280 423 313 420 347 c 1
 549 347 l 1
 552 272 540 197 509 135 c 1
 545 90 582 45 618 0 c 1xb4
242 466 m 2
 253 451 l 1
 325 502 338 522 338 560 c 0
 338 591 315 615 278 615 c 0
 236 615 212 582 212 550 c 0
 212 514 224 490 242 466 c 2
176 194 m 0
 176 135 223 105 266 105 c 0
 301 105 330 115 353 132 c 1
 310 185 266 238 223 291 c 1xb4
 195 265 176 235 176 194 c 0
EndSplineSet
Validated: 33
EndChar

StartChar: parenleft
Encoding: 40 40 186
Width: 351
Flags: MW
HStem: -100 21G<228 351 228 228> 800 20G<228 351 351 351>
VStem: 50 155<275.5 444.5>
LayerCount: 2
Fore
SplineSet
50 360 m 0
 50 529 113 706 228 820 c 1
 351 820 l 1
 245 680 205 541 205 360 c 0
 205 179 245 40 351 -100 c 1
 228 -100 l 1
 113 14 50 191 50 360 c 0
EndSplineSet
Validated: 1
EndChar

StartChar: parenright
Encoding: 41 41 187
Width: 351
Flags: MW
HStem: -100 21G<0 123 0 0> 800 20G<0 123 123 123>
VStem: 146 155<275.5 444.5 275.5 450.5>
LayerCount: 2
Fore
SplineSet
301 360 m 0
 301 191 238 14 123 -100 c 1
 0 -100 l 1
 106 40 146 179 146 360 c 0
 146 541 106 680 0 820 c 1
 123 820 l 1
 238 706 301 529 301 360 c 0
EndSplineSet
Validated: 1
EndChar

StartChar: degree
Encoding: 176 176 188
Width: 366
Flags: MW
HStem: 449 93<169.5 196.5 169.5 222.5> 640 95<169.5 196.5>
VStem: 40 93<578 605 578 631> 231 95<578 605>
LayerCount: 2
Fore
SplineSet
40 592 m 0
 40 670 105 735 183 735 c 0
 262 735 326 670 326 592 c 0
 326 513 262 449 183 449 c 0
 105 449 40 513 40 592 c 0
133 592 m 0
 133 564 156 542 183 542 c 0
 210 542 231 564 231 592 c 0
 231 618 210 640 183 640 c 0
 156 640 133 618 133 592 c 0
EndSplineSet
Validated: 1
EndChar

StartChar: copyright
Encoding: 169 169 189
Width: 590
Flags: MW
HStem: -15 94<242.5 347.5 242.5 371> 126 80<282 305 282 325> 312 82<282 305> 441 94<242.5 347.5>
VStem: 35 98<210 309.5 210 341> 178 75<244 275 244 295.5> 457 98<210 309.5>
LayerCount: 2
Fore
SplineSet
35 260 m 0
 35 422 143 535 295 535 c 0
 447 535 555 422 555 260 c 0
 555 98 447 -15 295 -15 c 0
 143 -15 35 98 35 260 c 0
133 260 m 0
 133 160 190 79 295 79 c 0
 400 79 457 160 457 260 c 0
 457 359 400 441 295 441 c 0
 190 441 133 359 133 260 c 0
253 260 m 0
 253 228 269 206 295 206 c 0
 315 206 329 218 334 238 c 1
 406 217 l 1
 394 156 355 126 295 126 c 0
 219 126 178 189 178 260 c 0
 178 331 219 394 295 394 c 0
 355 394 394 364 406 303 c 1
 334 282 l 1
 329 301 315 312 295 312 c 0
 269 312 253 290 253 260 c 0
EndSplineSet
Validated: 1
EndChar

StartChar: registered
Encoding: 174 174 190
Width: 590
Flags: MW
HStem: -15 94<242.5 347.5 242.5 371> 137 154<192 287 192 287 268 332 268 416> 441 94<242.5 347.5>
VStem: 35 98<210 309.5 210 341> 192 76<137 223 137 291 291 328> 320 78<304 317> 457 98<210 309.5>
LayerCount: 2
Fore
SplineSet
35 260 m 0
 35 422 143 535 295 535 c 0
 447 535 555 422 555 260 c 0
 555 98 447 -15 295 -15 c 0
 143 -15 35 98 35 260 c 0
192 137 m 1
 192 397 l 1
 288 397 l 2
 340 397 398 380 398 321 c 0
 398 281 371 259 337 254 c 1
 365 247 383 222 392 198 c 2
 416 137 l 1
 332 137 l 1
 319 181 l 2
 307 220 292 223 275 223 c 2
 268 223 l 1
 268 137 l 1
 192 137 l 1
268 328 m 1
 268 291 l 1
 287 291 l 2
 313 291 320 297 320 311 c 0
 320 323 310 328 286 328 c 2
 268 328 l 1
133 260 m 0
 133 160 190 79 295 79 c 0
 400 79 457 160 457 260 c 0
 457 359 400 441 295 441 c 0
 190 441 133 359 133 260 c 0
EndSplineSet
Validated: 1
EndChar

StartChar: trademark
Encoding: 8482 8482 191
Width: 732
Flags: MW
HStem: 432 21G<126 224 126 126 311 409 311 311 465 465 465 549 604 604 604 702> 626 94<30 126 30 447 224 311 224 224>
VStem: 126 98<432 626 432 626> 311 98<432 591> 604 98<432 591 591 591>
LayerCount: 2
Fore
SplineSet
409 432 m 1
 311 432 l 1
 311 626 l 1
 224 626 l 1
 224 432 l 1
 126 432 l 1
 126 626 l 1
 30 626 l 1
 30 720 l 1
 447 720 l 1
 507 541 l 1
 570 720 l 1
 702 720 l 1
 702 432 l 1
 604 432 l 1
 604 591 l 1
 549 432 l 1
 465 432 l 1
 409 591 l 1
 409 432 l 1
EndSplineSet
Validated: 1
EndChar

StartChar: asterisk
Encoding: 42 42 192
Width: 399
Flags: MW
HStem: 411 21G<242 242> 715 20G<139 261 261 261>
LayerCount: 2
Fore
SplineSet
261 735 m 1
 242 635 l 1
 272 651 302 666 332 682 c 1
 344 643 357 605 369 566 c 1
 336 562 302 557 269 553 c 1
 293 530 317 506 341 483 c 1
 242 411 l 1
 199 503 l 1
 154 412 l 1
 55 484 l 1
 79 507 104 531 128 554 c 1
 95 559 63 563 30 568 c 1
 42 607 55 645 67 684 c 1
 96 668 126 652 155 636 c 1
 150 669 144 702 139 735 c 1
 261 735 l 1
EndSplineSet
Validated: 1
EndChar

StartChar: plusminus
Encoding: 177 177 193
Width: 596
Flags: MW
HStem: 55 135<60 536 60 536> 385 135<60 230 60 230 365 536> 660 20G<230 365 365 365>
VStem: 230 135<254 385 254 385 520 680>
LayerCount: 2
Fore
SplineSet
365 385 m 1
 365 254 l 1
 230 254 l 1
 230 385 l 1
 60 385 l 1
 60 520 l 1
 230 520 l 1
 230 680 l 1
 365 680 l 1
 365 520 l 1
 536 520 l 1
 536 385 l 1
 365 385 l 1
536 55 m 1
 60 55 l 1
 60 190 l 1
 536 190 l 1
 536 55 l 1
EndSplineSet
Validated: 1
EndChar

StartChar: asciitilde
Encoding: 126 126 194
Width: 526
Flags: MW
HStem: 245 140<326.5 385> 335 50 335 140<141 199.5>
LayerCount: 2
Fore
SplineSet
30 265 m 1x40
 30 415 l 1
 68 455 117 475 165 475 c 0
 254 475 292 385 361 385 c 0x20
 419 385 458 415 496 455 c 1
 496 305 l 1
 458 265 409 245 361 245 c 0
 272 245 234 335 165 335 c 0x80
 107 335 68 305 30 265 c 1x40
EndSplineSet
Validated: 1
EndChar

StartChar: grave
Encoding: 96 96 195
Width: 324
Flags: MW
HStem: 533 187<153 208 30 284 153 153>
LayerCount: 2
Fore
SplineSet
208 720 m 1
 284 533 l 1
 153 533 l 1
 30 720 l 1
 208 720 l 1
EndSplineSet
Validated: 1
EndChar

StartChar: percent
Encoding: 65540 -1 196
Width: 822
Flags: MW
HStem: -5 105<625 647 625 679> 0 21G<148 287 287 287> 220 105<625 647> 395 105<175 197 175 229> 620 105<175 197> 700 20G<534 674 534 534>
VStem: 30 107<538 582 538 611.5> 235 107<538 582> 480 107<138 182 138 211.5> 685 107<138 182>
LayerCount: 2
Fore
SplineSet
148 0 m 1x77c0
 287 0 l 1
 674 720 l 1
 534 720 l 1
 148 0 l 1x77c0
30 560 m 0
 30 663 100 725 186 725 c 0xbbc0
 272 725 342 663 342 560 c 0
 342 457 272 395 186 395 c 0
 100 395 30 457 30 560 c 0
137 560 m 0
 137 516 164 500 186 500 c 0
 208 500 235 516 235 560 c 0
 235 604 208 620 186 620 c 0
 164 620 137 604 137 560 c 0
480 160 m 0
 480 263 550 325 636 325 c 0
 722 325 792 263 792 160 c 0
 792 57 722 -5 636 -5 c 0
 550 -5 480 57 480 160 c 0
587 160 m 0
 587 116 614 100 636 100 c 0
 658 100 685 116 685 160 c 0
 685 204 658 220 636 220 c 0
 614 220 587 204 587 160 c 0
EndSplineSet
Validated: 9
EndChar

StartChar: dagger
Encoding: 8224 8224 197
Width: 404
Flags: MW
HStem: 250 21G<127 277 127 127> 485 125<30 127 30 127 277 374> 700 20G<127 277 277 277>
VStem: 127 150<250 485 250 485 610 720>
LayerCount: 2
Fore
SplineSet
30 485 m 1
 30 610 l 1
 127 610 l 1
 127 720 l 1
 277 720 l 1
 277 610 l 1
 374 610 l 1
 374 485 l 1
 277 485 l 1
 277 250 l 1
 127 250 l 1
 127 485 l 1
 30 485 l 1
EndSplineSet
Validated: 1
EndChar

StartChar: daggerdbl
Encoding: 8225 8225 198
Width: 384
Flags: MW
HStem: 250 21G<117 267 117 117> 330 125<30 117 30 117 267 354> 515 125<30 117 30 117 267 354> 700 20G<117 267 267 267>
VStem: 117 150<250 330 250 330 455 515 640 720>
LayerCount: 2
Fore
SplineSet
354 455 m 1
 354 330 l 1
 267 330 l 1
 267 250 l 1
 117 250 l 1
 117 330 l 1
 30 330 l 1
 30 455 l 1
 117 455 l 1
 117 515 l 1
 30 515 l 1
 30 640 l 1
 117 640 l 1
 117 720 l 1
 267 720 l 1
 267 640 l 1
 354 640 l 1
 354 515 l 1
 267 515 l 1
 267 455 l 1
 354 455 l 1
EndSplineSet
Validated: 1
EndChar

StartChar: bullet
Encoding: 8226 8226 199
Width: 388
Flags: MW
HStem: 227 247<160 228 160 228.5>
VStem: 70 248<316.5 385>
LayerCount: 2
Fore
SplineSet
70 351 m 0
 70 419 126 474 194 474 c 0
 262 474 318 419 318 351 c 0
 318 282 263 227 194 227 c 0
 125 227 70 282 70 351 c 0
EndSplineSet
Validated: 1
EndChar

StartChar: paragraph
Encoding: 182 182 200
Width: 636
Flags: MW
HStem: -100 21G<211 291 211 211 380 380 380 543> 735 85<291 380 291 291 543 624 543 543>
VStem: 211 80<-100 416 416 416> 380 163<-100 735 -100 735>
LayerCount: 2
Fore
SplineSet
291 -100 m 1
 211 -100 l 1
 211 416 l 1
 94 419 13 498 13 614 c 0
 13 753 110 820 244 820 c 2
 624 820 l 1
 624 735 l 1
 543 735 l 1
 543 -100 l 1
 380 -100 l 1
 380 735 l 1
 291 735 l 1
 291 -100 l 1
EndSplineSet
Validated: 1
EndChar

StartChar: afii61352
Encoding: 8470 8470 201
Width: 1104
Flags: MW
HStem: 0 21G<70 226 70 70 537 537 537 699> 145 105<762 1074 762 1074> 145 150<875 961 875 1074 762 961> 400 120<907 929> 700 20G<70 232 232 232 543 699 699 699>
VStem: 70 156<0 456> 543 156<264 720 0 720> 543 219<408.5 511.5> 869 98<438 482>
LayerCount: 2
Fore
SplineSet
762 460 m 0xde80
 762 563 832 625 918 625 c 0
 1004 625 1074 563 1074 460 c 0
 1074 357 1004 295 918 295 c 0
 832 295 762 357 762 460 c 0xde80
869 460 m 0
 869 416 896 400 918 400 c 0
 940 400 967 416 967 460 c 0
 967 504 940 520 918 520 c 0
 896 520 869 504 869 460 c 0
1074 145 m 1
 762 145 l 1
 762 250 l 1
 1074 250 l 1xdd80
 1074 145 l 1
226 0 m 1
 70 0 l 1
 70 720 l 1
 232 720 l 1
 543 264 l 1
 543 720 l 1
 699 720 l 1
 699 0 l 1
 537 0 l 1
 226 456 l 1xbd80
 226 0 l 1
EndSplineSet
Validated: 1
EndChar

StartChar: at
Encoding: 64 64 202
Width: 775
Flags: MW
HStem: -110 110<320 424 320 432.5> 85 100<554.5 588.5 554.5 621> 335 100<364.5 381.5 323.5 400.5> 511 119<319 460.5>
VStem: 35 123<189 331 189 363.5> 222 104<238.5 281.5 238.5 311.5> 442 98<238.5 281.5> 627 113<252 353>
LayerCount: 2
Fore
SplineSet
540 426 m 1
 540 238 l 2
 540 232 538 185 571 185 c 0
 606 185 627 227 627 277 c 0
 627 429 533 511 388 511 c 0
 250 511 158 402 158 260 c 0
 158 118 243 0 397 0 c 0
 451 0 504 17 537 48 c 1
 613 -36 l 1
 562 -88 467 -110 398 -110 c 0
 178 -110 35 53 35 260 c 0
 35 467 178 630 388 630 c 0
 597 630 740 487 740 280 c 0
 740 169 670 85 572 85 c 0
 516 85 487 110 472 138 c 1
 462 125 l 2
 439 98 414 85 364 85 c 0
 283 85 222 156 222 260 c 0
 222 363 283 435 364 435 c 0
 399 435 429 422 449 401 c 1
 449 426 l 1
 540 426 l 1
442 260 m 0
 442 303 418 335 383 335 c 0
 346 335 326 303 326 260 c 0
 326 217 346 184 383 184 c 0
 421 184 442 217 442 260 c 0
EndSplineSet
Validated: 33
EndChar

StartChar: perthousand
Encoding: 8240 8240 203
Width: 1182
Flags: MW
HStem: -5 105<625 647 625 679 985 1007> 0 21G<148 287 287 287> 220 105<625 647 985 1007> 395 105<175 197 175 229> 620 105<175 197> 700 20G<534 674 534 534>
VStem: 30 107<538 582 538 611.5> 235 107<538 582> 480 107<138 182 138 211.5> 685 107<138 182> 840 107<138 182 138 211.5> 1045 107<138 182>
LayerCount: 2
Fore
SplineSet
148 0 m 1x77f0
 287 0 l 1
 674 720 l 1
 534 720 l 1
 148 0 l 1x77f0
30 560 m 0
 30 663 100 725 186 725 c 0xbbf0
 272 725 342 663 342 560 c 0
 342 457 272 395 186 395 c 0
 100 395 30 457 30 560 c 0
137 560 m 0
 137 516 164 500 186 500 c 0
 208 500 235 516 235 560 c 0
 235 604 208 620 186 620 c 0
 164 620 137 604 137 560 c 0
480 160 m 0
 480 263 550 325 636 325 c 0
 722 325 792 263 792 160 c 0
 792 57 722 -5 636 -5 c 0
 550 -5 480 57 480 160 c 0
587 160 m 0
 587 116 614 100 636 100 c 0
 658 100 685 116 685 160 c 0
 685 204 658 220 636 220 c 0
 614 220 587 204 587 160 c 0
840 160 m 0
 840 263 910 325 996 325 c 0
 1082 325 1152 263 1152 160 c 0
 1152 57 1082 -5 996 -5 c 0
 910 -5 840 57 840 160 c 0
947 160 m 0
 947 116 974 100 996 100 c 0
 1018 100 1045 116 1045 160 c 0
 1045 204 1018 220 996 220 c 0
 974 220 947 204 947 160 c 0
EndSplineSet
Validated: 9
EndChar

StartChar: section
Encoding: 167 167 204
Width: 533
Flags: MW
HStem: -15 115<238 296.5 238 330> 620 115<231.5 282.5>
VStem: 40 146<366.5 389.5 573.5 597> 348 150<129 156.5 340.5 363.5>
LayerCount: 2
Fore
SplineSet
35 150 m 1
 182 163 l 1
 190 118 205 100 271 100 c 0
 322 100 348 115 348 143 c 0
 348 170 326 172 273 188 c 2
 146 227 l 2
 93 243 40 280 40 356 c 0
 40 423 82 446 101 462 c 1
 57 484 40 534 40 581 c 0
 40 690 154 735 261 735 c 0
 405 735 470 674 478 585 c 1
 332 573 l 1
 324 600 306 620 259 620 c 0
 204 620 186 608 186 586 c 0
 186 561 208 555 239 546 c 2
 365 509 l 2
 438 488 498 449 498 362 c 0
 498 319 467 276 443 260 c 1
 482 236 498 191 498 143 c 0
 498 28 392 -15 268 -15 c 0
 121 -15 43 45 35 150 c 1
186 379 m 0
 186 354 200 339 221 333 c 0
 271 319 309 308 311 308 c 0
 331 315 348 325 348 350 c 0
 348 377 332 391 306 398 c 2
 221 421 l 1
 207 420 186 407 186 379 c 0
EndSplineSet
Validated: 1
EndChar

StartChar: currency
Encoding: 164 164 205
Width: 596
Flags: MW
HStem: 97 21G<129 129 469 469> 138 134<280 317.5> 448 134<280.5 317.5 280.5 321> 604 20G<129 129 469 469>
VStem: 88 132<341.5 378.5> 378 132<341.5 378.5 341.5 389.5>
LayerCount: 2
Fore
SplineSet
469 97 m 1
 402 164 l 1
 372 147 336 138 299 138 c 0
 261 138 226 147 195 164 c 1
 129 97 l 1
 36 190 l 1
 107 262 l 1
 94 290 88 323 88 360 c 0
 88 397 95 429 107 458 c 1
 36 531 l 1
 129 624 l 1
 196 556 l 1
 226 573 262 582 299 582 c 0
 336 582 371 573 402 556 c 1
 469 624 l 1
 562 531 l 1
 490 458 l 1
 503 429 510 397 510 360 c 0
 510 323 503 290 491 262 c 1
 562 190 l 1
 469 97 l 1
220 360 m 0
 220 301 255 272 299 272 c 0
 343 272 378 301 378 360 c 0
 378 419 343 448 299 448 c 0
 258 448 220 419 220 360 c 0
EndSplineSet
Validated: 1
EndChar

StartChar: afii10109
Encoding: 1116 1116 206
Width: 561
Flags: MW
HStem: 0 21G<55 205 205 205 376 541 541 541> 392 128 505 20G<452.5 488 488 519> 603 187<190 444 266 321>
VStem: 55 150<0 200 325 520 0 200>
LayerCount: 2
Fore
SplineSet
55 520 m 1xd8
 55 0 l 1
 205 0 l 1
 205 200 l 1
 222 200 l 2
 262 200 288 185 307 149 c 2
 376 0 l 1
 541 0 l 1
 455 173 l 2
 431 222 392 259 347 270 c 1
 347 274 l 1
 392 283 413 308 429 342 c 0
 445 376 453 392 488 392 c 2
 504 392 l 1xd8
 519 525 l 1
 488 525 l 2xb8
 417 525 377 512 345 453 c 0
 336 437 318 383 298 359 c 0
 272 328 252 325 222 325 c 2
 205 325 l 1
 205 520 l 1
 55 520 l 1xd8
190 603 m 1
 266 790 l 1
 444 790 l 1
 321 603 l 1
 190 603 l 1
EndSplineSet
Validated: 9
EndChar

StartChar: afii10100
Encoding: 1107 1107 207
Width: 451
Flags: MW
HStem: 0 21G<55 203 203 203> 395 125<203 421> 603 187<140 394 216 271>
VStem: 55 148<0 395 0 520 0 395>
LayerCount: 2
Fore
SplineSet
55 520 m 1
 55 0 l 1
 203 0 l 1
 203 395 l 1
 421 395 l 1
 421 520 l 1
 55 520 l 1
140 603 m 1
 216 790 l 1
 394 790 l 1
 271 603 l 1
 140 603 l 1
EndSplineSet
Validated: 9
EndChar

StartChar: afii10106
Encoding: 1113 1113 208
Width: 854
Flags: MW
HStem: -15 123<52 162.5> 0 122<540 563 563 599.5 540 632> 243 112<540 602 540 572> 395 125<254 390 254 254>
VStem: 20 234<0 207 119 207> 114 140<257 395> 390 150<122 243 355 395 395 395> 672 152<158.5 205.5>
LayerCount: 2
Fore
SplineSet
114 257 m 2x77
 114 520 l 1
 540 520 l 1
 540 355 l 1
 602 355 l 2
 713 355 824 319 824 182 c 0
 824 57 718 0 632 0 c 2
 390 0 l 1x77
 390 395 l 1
 254 395 l 1xbb
 254 207 l 2x7b
 254 97 224 -15 101 -15 c 0
 72 -15 29 -5 20 0 c 1
 20 119 l 1
 31 113 45 108 59 108 c 0xbb
 118 107 114 184 114 257 c 2x77
540 243 m 1
 540 122 l 1
 563 122 l 2
 636 122 672 135 672 182 c 0
 672 229 637 243 572 243 c 2
 540 243 l 1
EndSplineSet
Validated: 33
EndChar

StartChar: afii10107
Encoding: 1114 1114 209
Width: 829
Flags: MW
HStem: 0 122<525 548 548 584.5 525 617> 200 125<205 375 205 375> 243 112<525 587 525 557> 500 20G<55 205 205 205 375 525 525 525>
VStem: 55 150<0 200 325 520> 375 150<122 200 200 200 355 520> 657 152<158.5 205.5>
LayerCount: 2
Fore
SplineSet
55 0 m 1xbe
 55 520 l 1
 205 520 l 1
 205 325 l 1
 375 325 l 1
 375 520 l 1
 525 520 l 1
 525 355 l 1
 587 355 l 2xbe
 698 355 809 319 809 182 c 0
 809 57 703 0 617 0 c 2
 375 0 l 1
 375 200 l 1
 205 200 l 1xde
 205 0 l 1
 55 0 l 1xbe
525 243 m 1
 525 122 l 1
 548 122 l 2xde
 621 122 657 135 657 182 c 0
 657 229 622 243 557 243 c 2
 525 243 l 1
EndSplineSet
Validated: 1
EndChar

StartChar: afii10193
Encoding: 1119 1119 210
Width: 580
Flags: MW
HStem: -127 21G<218 363 218 218> 0 125<205 218 363 375 205 525 363 363> 500 20G<55 205 205 205 375 525 525 525>
VStem: 55 150<125 520 125 520 125 520> 218 145<-127 0 -127 0> 375 150<125 520 0 520>
LayerCount: 2
Fore
SplineSet
525 520 m 1
 525 0 l 1
 363 0 l 1
 363 -127 l 1
 218 -127 l 1
 218 0 l 1
 55 0 l 1
 55 520 l 1
 205 520 l 1
 205 125 l 1
 375 125 l 1
 375 520 l 1
 525 520 l 1
EndSplineSet
Validated: 1
EndChar

StartChar: afii10098
Encoding: 1169 1169 211
Width: 451
Flags: MWO
HStem: 0 21G<55 55 55 203> 395 125<203 283 55 421 203 203> 395 235<283 421 283 421 203 421>
VStem: 55 148<0 395 0 520 0 520> 283 138<520 630 395 630>
LayerCount: 2
Fore
SplineSet
55 0 m 1xd8
 55 520 l 1
 283 520 l 1
 283 630 l 1
 421 630 l 1
 421 395 l 1xd8
 203 395 l 1
 203 0 l 1xb8
 55 0 l 1xd8
EndSplineSet
Validated: 1
EndChar

StartChar: afii10050
Encoding: 1168 1168 212
Width: 583
Flags: MW
HStem: 0 21G<70 70 70 230> 575 145<230 393 70 553 230 230> 830 20G<393 553 553 553>
VStem: 70 160<0 575 0 720 0 720> 393 160<720 850 575 850>
LayerCount: 2
Fore
SplineSet
70 0 m 1
 70 720 l 1
 393 720 l 1
 393 850 l 1
 553 850 l 1
 553 575 l 1
 230 575 l 1
 230 0 l 1
 70 0 l 1
EndSplineSet
Validated: 1
EndChar

StartChar: afii10059
Encoding: 1034 1034 213
Width: 1064
Flags: MW
HStem: 0 140<637 735 735 742> 295 145<230 477 230 477> 350 130<637 750 637 737> 700 20G<70 230 230 230 477 637 637 637>
VStem: 70 160<0 295 0 440 440 720> 477 160<140 295 295 295 480 720> 866 163<215 267.5>
LayerCount: 2
Fore
SplineSet
477 720 m 1xbe
 637 720 l 1
 637 480 l 1
 750 480 l 2
 929 480 1029 386 1029 241 c 0
 1029 66 887 0 742 0 c 2
 477 0 l 1
 477 295 l 1xde
 230 295 l 1
 230 0 l 1
 70 0 l 1
 70 720 l 1
 230 720 l 1
 230 440 l 1
 477 440 l 1
 477 720 l 1xbe
637 350 m 1
 637 140 l 1
 735 140 l 2
 830 140 866 186 866 244 c 0xbe
 866 291 840 350 737 350 c 2
 637 350 l 1
EndSplineSet
Validated: 1
EndChar

StartChar: afii10058
Encoding: 1033 1033 214
Width: 1073
Flags: MW
HStem: -15 155 0 140<656 744 744 751> 350 130<656 759 656 746> 575 145<302 496 302 302>
VStem: 147 155<412 575> 496 160<140 350 480 575 575 575> 875 163<215 267.5>
LayerCount: 2
Fore
SplineSet
147 412 m 2xbe
 147 720 l 1
 656 720 l 1
 656 480 l 1
 759 480 l 2
 938 480 1038 386 1038 241 c 0
 1038 66 896 0 751 0 c 2
 496 0 l 1
 496 575 l 1
 302 575 l 1
 302 373 l 2
 302 161 278 -15 105 -15 c 0
 74 -15 32 -7 15 5 c 1
 10 152 l 1
 22 145 38 135 63 135 c 0x7e
 148 135 147 249 147 412 c 2xbe
656 350 m 1
 656 140 l 1
 744 140 l 2
 839 140 875 186 875 244 c 0
 875 291 849 350 746 350 c 2
 656 350 l 1
EndSplineSet
Validated: 33
EndChar

StartChar: afii10145
Encoding: 1039 1039 215
Width: 747
Flags: MW
HStem: -169 21G<294 454 294 294> 0 145<230 294 454 517 230 677 454 454> 700 20G<70 230 230 230 517 677 677 677>
VStem: 70 160<145 720 145 720 145 720> 294 160<-169 0 -169 0> 517 160<145 720 0 720>
LayerCount: 2
Fore
SplineSet
517 720 m 1
 677 720 l 1
 677 0 l 1
 454 0 l 1
 454 -169 l 1
 294 -169 l 1
 294 0 l 1
 70 0 l 1
 70 720 l 1
 230 720 l 1
 230 145 l 1
 517 145 l 1
 517 720 l 1
EndSplineSet
Validated: 1
EndChar

StartChar: afii10061
Encoding: 1036 1036 216
Width: 710
Flags: MW
HStem: 0 21G<70 230 230 230 503 690 690 690> 295 135<230 246 246 264 230 279.5> 573 147<605 614 614 641 641 641> 803 187<270 524 346 401>
VStem: 70 160<0 295 430 720 0 295>
LayerCount: 2
Fore
SplineSet
70 720 m 1
 70 0 l 1
 230 0 l 1
 230 295 l 1
 246 295 l 2
 313 295 350 267 392 194 c 2
 503 0 l 1
 690 0 l 1
 546 238 l 2
 501 311 442 361 391 368 c 1
 434 374 459 405 475 433 c 2
 521 512 l 2
 551 563 572 573 605 573 c 2
 641 573 l 1
 651 720 l 1
 614 720 l 2
 552 720 480 719 426 628 c 2
 350 499 l 2
 328 462 310 430 264 430 c 2
 230 430 l 1
 230 720 l 1
 70 720 l 1
270 803 m 1
 346 990 l 1
 524 990 l 1
 401 803 l 1
 270 803 l 1
EndSplineSet
Validated: 9
EndChar

StartChar: afii10052
Encoding: 1027 1027 217
Width: 583
Flags: MW
HStem: 0 21G<70 230 230 230> 575 145<230 553> 803 187<220 474 296 351>
VStem: 70 160<0 575 0 720 0 575>
LayerCount: 2
Fore
SplineSet
70 720 m 1
 70 0 l 1
 230 0 l 1
 230 575 l 1
 553 575 l 1
 553 720 l 1
 70 720 l 1
220 803 m 1
 296 990 l 1
 474 990 l 1
 351 803 l 1
 220 803 l 1
EndSplineSet
Validated: 9
EndChar

StartChar: Idieresis
Encoding: 207 207 218
Width: 299
Flags: MW
HStem: 0 21G<70 229 70 70> 700 20G<70 229 229 229> 779 141<-33 117 -33 117 -33 182 182 332>
VStem: -33 150<779 920 779 920> 70 159<0 720> 182 150<779 920 779 920>
LayerCount: 2
Fore
SplineSet
229 0 m 1xf4
 70 0 l 1
 70 720 l 1
 229 720 l 1
 229 0 l 1xf4
117 779 m 1
 -33 779 l 1
 -33 920 l 1
 117 920 l 1
 117 779 l 1
332 779 m 1
 182 779 l 1xe8
 182 920 l 1
 332 920 l 1
 332 779 l 1
EndSplineSet
Validated: 1
EndChar

StartChar: idieresis
Encoding: 239 239 219
Width: 260
Flags: MW
HStem: 0 21G<55 205 55 55> 500 20G<55 205 205 205> 584 136<-40 100 -40 100 -40 160 160 300>
VStem: -40 140<584 720 584 720> 55 150<0 520> 160 140<584 720 584 720>
LayerCount: 2
Fore
SplineSet
100 584 m 1xf4
 -40 584 l 1
 -40 720 l 1
 100 720 l 1
 100 584 l 1xf4
205 0 m 1
 55 0 l 1xe8
 55 520 l 1
 205 520 l 1
 205 0 l 1
300 584 m 1
 160 584 l 1xf4
 160 720 l 1
 300 720 l 1
 300 584 l 1
EndSplineSet
Validated: 1
EndChar

StartChar: edieresis
Encoding: 235 235 220
Width: 558
Flags: MW
HStem: -15 125<259.5 317 259.5 345.5> 110 107<259.5 317> 217 102<177 381 177 532 175 381> 319 91<254 308 254 381 254 381> 410 125<254 308> 580 140<97 248 97 248 97 323 323 474>
VStem: 25 72 25 150<217 217 217 356> 248 75<580 720 580 720> 381 152<319 319> 474 59
LayerCount: 2
Fore
SplineSet
248 580 m 1x96c0
 97 580 l 1
 97 720 l 1
 248 720 l 1
 248 580 l 1x96c0
474 580 m 1
 323 580 l 1x4dc0
 323 720 l 1
 474 720 l 1
 474 580 l 1
532 217 m 2xaea0
 175 217 l 1
 179 145 226 110 293 110 c 0
 341 110 372 137 384 170 c 1
 524 141 l 1
 485 38 408 -15 283 -15 c 0
 149 -15 25 68 25 260 c 0
 25 452 150 535 283 535 c 0
 414 535 533 455 533 281 c 0
 533 250 532 219 532 217 c 2xaea0
279 410 m 0
 229 410 183 376 177 319 c 1x4da0
 381 319 l 1
 377 374 337 410 279 410 c 0
EndSplineSet
Validated: 1
EndChar

StartChar: Edieresis
Encoding: 203 203 221
Width: 657
Flags: MW
HStem: 0 145<230 607 230 607> 295 145<230 547 230 547> 575 145<230 597 230 230> 779 141<140 290 140 290 140 380 380 530>
VStem: 70 160<145 295 440 575> 140 150<779 920 779 920> 380 150<779 920 779 920>
LayerCount: 2
Fore
SplineSet
290 779 m 1xfa
 140 779 l 1
 140 920 l 1
 290 920 l 1
 290 779 l 1xfa
530 779 m 1
 380 779 l 1
 380 920 l 1
 530 920 l 1
 530 779 l 1
607 0 m 1
 70 0 l 1
 70 720 l 1
 597 720 l 1
 597 575 l 1
 230 575 l 1
 230 440 l 1
 547 440 l 1
 547 295 l 1
 230 295 l 1xf6
 230 145 l 1
 607 145 l 1
 607 0 l 1
EndSplineSet
Validated: 1
EndChar

StartChar: ydieresis
Encoding: 255 255 222
Width: 560
Flags: MW
HStem: -210 134<129.5 141.5 104.5 195.5> 500 20G<10 163 163 163 402 550 550 550> 580 140<109 260 109 260 109 315 315 466>
VStem: 109 151<580 720 580 720> 315 151<580 720 580 720>
LayerCount: 2
Fore
SplineSet
71 -195 m 1
 61 -62 l 1
 78 -69 87 -76 122 -76 c 0
 161 -76 187 -62 207 -9 c 2
 212 5 l 1
 10 520 l 1
 163 520 l 1
 283 177 l 1
 402 520 l 1
 550 520 l 1
 347 -29 l 2
 303 -149 243 -210 148 -210 c 0
 111 -210 90 -202 71 -195 c 1
260 580 m 1
 109 580 l 1
 109 720 l 1
 260 720 l 1
 260 580 l 1
466 580 m 1
 315 580 l 1
 315 720 l 1
 466 720 l 1
 466 580 l 1
EndSplineSet
Validated: 1
EndChar

StartChar: thorn
Encoding: 254 254 223
Width: 580
Flags: MW
HStem: -200 21G<55 205 55 55> -15 125<305 331 267 388> 410 125<301.5 329.5> 700 20G<55 205 205 205>
VStem: 55 139<209 311 209 720> 405 150<209 311>
LayerCount: 2
Fore
SplineSet
205 -200 m 1
 55 -200 l 1
 55 720 l 1
 205 720 l 1
 205 469 l 1
 233 510 272 535 331 535 c 0
 455 535 555 442 555 260 c 0
 555 78 450 -15 326 -15 c 0
 284 -15 235 -2 205 45 c 1
 205 -200 l 1
194 260 m 0
 194 158 235 110 299 110 c 0
 363 110 405 158 405 260 c 0
 405 362 359 410 300 410 c 0
 241 410 194 362 194 260 c 0
EndSplineSet
Validated: 1
EndChar

StartChar: udieresis
Encoding: 252 252 224
Width: 585
Flags: MW
HStem: -15 126<256 275> 0 111<256 530 256 389> 500 20G<55 205 205 205 380 530 530 530> 580 140<109 260 109 260 109 315 315 466>
VStem: 55 150<201 205 205 520> 109 151<580 720 580 720> 315 151<580 720 580 720> 380 150<237 520 0 520>
LayerCount: 2
Fore
SplineSet
380 520 m 1xb6
 530 520 l 1
 530 0 l 1
 389 0 l 1
 389 75 l 1
 351 11 306 -15 244 -15 c 0
 100 -15 55 77 55 201 c 2
 55 520 l 1
 205 520 l 1
 205 205 l 2xb9
 205 145 227 111 285 111 c 0
 337 111 380 153 380 237 c 2
 380 520 l 1xb6
260 580 m 1
 109 580 l 1
 109 720 l 1
 260 720 l 1
 260 580 l 1
466 580 m 1
 315 580 l 1
 315 720 l 1x79
 466 720 l 1
 466 580 l 1
EndSplineSet
Validated: 1
EndChar

StartChar: odieresis
Encoding: 246 246 225
Width: 566
Flags: MW
HStem: -15 125<248.5 317.5 248.5 352.5> 410 125<248.5 317.5> 580 140<104 255 104 255 104 310 310 461>
VStem: 25 150<211.5 308.5 211.5 356> 255 55<580 720 580 720> 391 150<211.5 308.5> 461 80
LayerCount: 2
Fore
SplineSet
25 260 m 0xfa
 25 452 144 535 283 535 c 0
 422 535 541 452 541 260 c 0
 541 68 422 -15 283 -15 c 0
 144 -15 25 68 25 260 c 0xfa
175 260 m 0
 175 163 214 110 283 110 c 0
 352 110 391 163 391 260 c 0
 391 357 352 410 283 410 c 0
 214 410 175 357 175 260 c 0
255 580 m 1
 104 580 l 1xfc
 104 720 l 1
 255 720 l 1
 255 580 l 1
461 580 m 1
 310 580 l 1
 310 720 l 1
 461 720 l 1
 461 580 l 1
EndSplineSet
Validated: 1
EndChar

StartChar: adieresis
Encoding: 228 228 226
Width: 556
Flags: MW
HStem: -15 112<216.5 234> 0 21G<375 526 375 375> 413 122<235 295.5> 580 140<93 244 93 244 93 299 299 450>
VStem: 30 150 93 151<580 720 580 720> 299 151<580 720 580 720> 346 150<165 235 235 235>
LayerCount: 2
Fore
SplineSet
352 54 m 1xb9
 309 2 265 -15 203 -15 c 0
 109 -15 30 36 30 132 c 0
 30 244 108 286 234 301 c 0
 288 307 320 313 346 325 c 1
 346 337 l 2
 346 371 327 413 264 413 c 0
 206 413 183 374 173 336 c 1
 46 378 l 1x79
 72 498 174 535 271 535 c 0
 404 535 496 475 496 314 c 2
 496 106 l 2
 496 53 508 19 526 0 c 1
 375 0 l 1
 360 13 354 37 352 54 c 1xb9
346 165 m 1
 346 235 l 1
 328 228 304 219 254 209 c 0
 208 200 178 183 180 142 c 0
 181 119 195 97 238 97 c 0
 285 97 329 130 346 165 c 1
244 580 m 1
 93 580 l 1
 93 720 l 1
 244 720 l 1
 244 580 l 1
450 580 m 1
 299 580 l 1
 299 720 l 1
 450 720 l 1xba
 450 580 l 1
EndSplineSet
Validated: 33
EndChar

StartChar: yacute
Encoding: 253 253 227
Width: 560
Flags: MW
HStem: -210 134<129.5 141.5 104.5 195.5> 500 20G<10 163 10 10 402 550 402 402> 603 187<200 454 276 331>
LayerCount: 2
Fore
SplineSet
71 -195 m 1
 90 -202 111 -210 148 -210 c 0
 243 -210 303 -149 347 -29 c 2
 550 520 l 1
 402 520 l 1
 283 177 l 1
 163 520 l 1
 10 520 l 1
 212 5 l 1
 207 -9 l 2
 187 -62 161 -76 122 -76 c 0
 87 -76 78 -69 61 -62 c 1
 71 -195 l 1
200 603 m 1
 276 790 l 1
 454 790 l 1
 331 603 l 1
 200 603 l 1
EndSplineSet
Validated: 9
EndChar

StartChar: uacute
Encoding: 250 250 228
Width: 585
Flags: MW
HStem: -15 126<256 275> 0 111<256 530> 500 20G<55 205 55 55 380 530 380 380> 603 187<200 454 276 331>
VStem: 55 150<139 520 205 520 205 520> 380 150<195 237 237 520>
LayerCount: 2
Fore
SplineSet
530 520 m 1x7c
 380 520 l 1
 380 237 l 2
 380 153 337 111 285 111 c 0
 227 111 205 145 205 205 c 2
 205 520 l 1
 55 520 l 1
 55 201 l 2
 55 77 100 -15 244 -15 c 0xbc
 306 -15 351 11 389 75 c 1
 389 0 l 1
 530 0 l 1
 530 520 l 1x7c
200 603 m 1
 276 790 l 1
 454 790 l 1
 331 603 l 1
 200 603 l 1
EndSplineSet
Validated: 9
EndChar

StartChar: oacute
Encoding: 243 243 229
Width: 566
Flags: MW
HStem: -15 125<248.5 317.5 248.5 352.5> 410 125<248.5 317.5> 603 187<200 454 276 331>
VStem: 25 150<211.5 308.5 211.5 356> 391 150<211.5 308.5>
LayerCount: 2
Fore
SplineSet
25 260 m 0
 25 452 144 535 283 535 c 0
 422 535 541 452 541 260 c 0
 541 68 422 -15 283 -15 c 0
 144 -15 25 68 25 260 c 0
175 260 m 0
 175 163 214 110 283 110 c 0
 352 110 391 163 391 260 c 0
 391 357 352 410 283 410 c 0
 214 410 175 357 175 260 c 0
200 603 m 1
 276 790 l 1
 454 790 l 1
 331 603 l 1
 200 603 l 1
EndSplineSet
Validated: 1
EndChar

StartChar: iacute
Encoding: 237 237 230
Width: 260
Flags: MW
HStem: 0 21G<55 205 205 205> 500 20G<55 205 55 55> 603 187<40 294 116 171>
VStem: 55 150<0 520 0 520>
LayerCount: 2
Fore
SplineSet
55 0 m 1
 205 0 l 1
 205 520 l 1
 55 520 l 1
 55 0 l 1
40 603 m 1
 116 790 l 1
 294 790 l 1
 171 603 l 1
 40 603 l 1
EndSplineSet
Validated: 9
EndChar

StartChar: eacute
Encoding: 233 233 231
Width: 558
Flags: MW
HStem: -15 125<259.5 317 259.5 345.5> 217 102<177 381 177 532 175 381> 410 125<254 308> 603 187<190 444 266 321>
VStem: 25 150<217 217 217 356> 381 152<319 319>
LayerCount: 2
Fore
SplineSet
532 217 m 2
 175 217 l 1
 179 145 226 110 293 110 c 0
 341 110 372 137 384 170 c 1
 524 141 l 1
 485 38 408 -15 283 -15 c 0
 149 -15 25 68 25 260 c 0
 25 452 150 535 283 535 c 0
 414 535 533 455 533 281 c 0
 533 250 532 219 532 217 c 2
279 410 m 0
 229 410 183 376 177 319 c 1
 381 319 l 1
 377 374 337 410 279 410 c 0
190 603 m 1
 266 790 l 1
 444 790 l 1
 321 603 l 1
 190 603 l 1
EndSplineSet
Validated: 1
EndChar

StartChar: aacute
Encoding: 225 225 232
Width: 556
Flags: MW
HStem: -15 112<216.5 234> 0 21G<375 526 526 526> 413 122<235 295.5> 603 187<170 424 246 301>
VStem: 30 150 346 150<165 235 165 165 325 337 325 325>
LayerCount: 2
Fore
SplineSet
352 54 m 1xbc
 354 37 360 13 375 0 c 1
 526 0 l 1x7c
 508 19 496 53 496 106 c 2
 496 314 l 2
 496 475 404 535 271 535 c 0
 174 535 72 498 46 378 c 1
 173 336 l 1
 183 374 206 413 264 413 c 0
 327 413 346 371 346 337 c 2
 346 325 l 1
 320 313 288 307 234 301 c 0
 108 286 30 244 30 132 c 0
 30 36 109 -15 203 -15 c 0
 265 -15 309 2 352 54 c 1xbc
346 235 m 1
 346 165 l 1
 329 130 285 97 238 97 c 0xbc
 195 97 181 119 180 142 c 0
 178 183 208 200 254 209 c 0
 304 219 328 228 346 235 c 1
170 603 m 1
 246 790 l 1
 424 790 l 1
 301 603 l 1
 170 603 l 1
EndSplineSet
Validated: 41
EndChar

StartChar: agrave
Encoding: 224 224 233
Width: 556
Flags: MW
HStem: -15 112<216.5 234> 0 21G<375 526 375 375> 413 122<235 295.5> 603 187<223 278 100 354 223 223>
VStem: 30 150 346 150<165 235 235 235>
LayerCount: 2
Fore
SplineSet
352 54 m 1xbc
 309 2 265 -15 203 -15 c 0
 109 -15 30 36 30 132 c 0
 30 244 108 286 234 301 c 0
 288 307 320 313 346 325 c 1
 346 337 l 2
 346 371 327 413 264 413 c 0
 206 413 183 374 173 336 c 1
 46 378 l 1
 72 498 174 535 271 535 c 0
 404 535 496 475 496 314 c 2x7c
 496 106 l 2
 496 53 508 19 526 0 c 1
 375 0 l 1
 360 13 354 37 352 54 c 1xbc
346 165 m 1
 346 235 l 1
 328 228 304 219 254 209 c 0
 208 200 178 183 180 142 c 0
 181 119 195 97 238 97 c 0
 285 97 329 130 346 165 c 1
278 790 m 1
 354 603 l 1
 223 603 l 1
 100 790 l 1xbc
 278 790 l 1
EndSplineSet
Validated: 33
EndChar

StartChar: egrave
Encoding: 232 232 234
Width: 558
Flags: MW
HStem: -15 125<259.5 317 259.5 345.5> 110 107<259.5 317> 217 102<177 381 177 532 175 381> 319 91<254 308 254 381 254 381> 410 125<254 308> 603 187<243 298 120 374 243 243>
VStem: 25 150<217 217 217 356> 381 152<319 319>
LayerCount: 2
Fore
SplineSet
532 217 m 2x97
 175 217 l 1x4f
 179 145 226 110 293 110 c 0
 341 110 372 137 384 170 c 1
 524 141 l 1
 485 38 408 -15 283 -15 c 0
 149 -15 25 68 25 260 c 0
 25 452 150 535 283 535 c 0
 414 535 533 455 533 281 c 0
 533 250 532 219 532 217 c 2x97
279 410 m 0
 229 410 183 376 177 319 c 1
 381 319 l 1
 377 374 337 410 279 410 c 0
298 790 m 1
 374 603 l 1
 243 603 l 1
 120 790 l 1
 298 790 l 1
EndSplineSet
Validated: 1
EndChar

StartChar: igrave
Encoding: 236 236 235
Width: 260
Flags: MW
HStem: 0 21G<55 205 55 55> 500 20G<55 205 205 205> 603 187<93 148 -30 224 93 93>
VStem: 55 150<0 520>
LayerCount: 2
Fore
SplineSet
205 0 m 1
 55 0 l 1
 55 520 l 1
 205 520 l 1
 205 0 l 1
148 790 m 1
 224 603 l 1
 93 603 l 1
 -30 790 l 1
 148 790 l 1
EndSplineSet
Validated: 1
EndChar

StartChar: ograve
Encoding: 242 242 236
Width: 566
Flags: MW
HStem: -15 125<248.5 317.5 248.5 352.5> 410 125<248.5 317.5> 603 187<233 288 110 364 233 233>
VStem: 25 150<211.5 308.5 211.5 356> 391 150<211.5 308.5>
LayerCount: 2
Fore
SplineSet
25 260 m 0
 25 452 144 535 283 535 c 0
 422 535 541 452 541 260 c 0
 541 68 422 -15 283 -15 c 0
 144 -15 25 68 25 260 c 0
175 260 m 0
 175 163 214 110 283 110 c 0
 352 110 391 163 391 260 c 0
 391 357 352 410 283 410 c 0
 214 410 175 357 175 260 c 0
288 790 m 1
 364 603 l 1
 233 603 l 1
 110 790 l 1
 288 790 l 1
EndSplineSet
Validated: 1
EndChar

StartChar: ugrave
Encoding: 249 249 237
Width: 585
Flags: MW
HStem: -15 126<256 275> 0 111<256 530 256 389> 500 20G<55 205 205 205 380 530 530 530> 603 187<243 298 120 374 243 243>
VStem: 55 150<201 205 205 520> 380 150<237 520 0 520>
LayerCount: 2
Fore
SplineSet
380 520 m 1xbc
 530 520 l 1
 530 0 l 1
 389 0 l 1
 389 75 l 1
 351 11 306 -15 244 -15 c 0
 100 -15 55 77 55 201 c 2
 55 520 l 1
 205 520 l 1
 205 205 l 2
 205 145 227 111 285 111 c 0
 337 111 380 153 380 237 c 2
 380 520 l 1xbc
298 790 m 1
 374 603 l 1
 243 603 l 1x7c
 120 790 l 1
 298 790 l 1
EndSplineSet
Validated: 1
EndChar

StartChar: Adieresis
Encoding: 196 196 238
Width: 730
Flags: MW
HStem: 0 21G<10 173 10 10 555 720 555 555> 130 132<269 459 269 507 220 459> 700 20G<296 440 440 440> 779 141<182 332 182 332 182 397 397 547>
VStem: 182 150<779 920 779 920> 397 150<779 920 779 920>
LayerCount: 2
Fore
SplineSet
296 720 m 1
 440 720 l 1
 720 0 l 1
 555 0 l 1
 507 130 l 1
 220 130 l 1
 173 0 l 1
 10 0 l 1
 296 720 l 1
364 521 m 1
 269 262 l 1
 459 262 l 1
 364 521 l 1
332 779 m 1
 182 779 l 1
 182 920 l 1
 332 920 l 1
 332 779 l 1
547 779 m 1
 397 779 l 1
 397 920 l 1
 547 920 l 1
 547 779 l 1
EndSplineSet
Validated: 1
EndChar

StartChar: Odieresis
Encoding: 214 214 239
Width: 765
Flags: MW
HStem: -15 140<328 437.5 328 492.5> 595 140<328 437.5> 779 141<191 341 191 341 191 431 431 581>
VStem: 40 165<286.5 433.5 286.5 468.5> 341 90<779 920 779 920> 560 165<286.5 433.5> 581 144
LayerCount: 2
Fore
SplineSet
40 360 m 0xfa
 40 577 163 735 383 735 c 0
 602 735 725 577 725 360 c 0
 725 143 602 -15 383 -15 c 0
 163 -15 40 143 40 360 c 0xfa
205 360 m 0
 205 213 273 125 383 125 c 0
 492 125 560 213 560 360 c 0
 560 507 492 595 383 595 c 0
 273 595 205 507 205 360 c 0
341 779 m 1
 191 779 l 1xfc
 191 920 l 1
 341 920 l 1
 341 779 l 1
581 779 m 1
 431 779 l 1
 431 920 l 1
 581 920 l 1
 581 779 l 1
EndSplineSet
Validated: 1
EndChar

StartChar: Udieresis
Encoding: 220 220 240
Width: 753
Flags: MW
HStem: -15 145<330.5 423.5 330.5 475.5> 700 20G<70 230 230 230 523 683 683 683> 779 141<182 332 182 332 182 422 422 572>
VStem: 70 160<302 317 317 720> 182 150<779 920 779 920> 422 150<779 920 779 920> 523 160<317 720>
LayerCount: 2
Fore
SplineSet
523 317 m 2xec
 523 720 l 1
 683 720 l 1
 683 302 l 2
 683 107 574 -15 377 -15 c 0
 182 -15 70 107 70 302 c 2
 70 720 l 1
 230 720 l 1
 230 317 l 2
 230 179 284 130 377 130 c 0xf2
 470 130 523 179 523 317 c 2xec
332 779 m 1
 182 779 l 1
 182 920 l 1
 332 920 l 1
 332 779 l 1
572 779 m 1
 422 779 l 1
 422 920 l 1
 572 920 l 1
 572 779 l 1
EndSplineSet
Validated: 1
EndChar

StartChar: exclamdown
Encoding: 161 161 241
Width: 259
Flags: MW
HStem: -200 21G<50 209 50 50> 370 150<54 205 54 205>
VStem: 60 138
LayerCount: 2
Fore
SplineSet
71 292 m 1
 187 292 l 1
 209 -200 l 1
 50 -200 l 1
 71 292 l 1
54 520 m 1
 205 520 l 1
 205 370 l 1
 54 370 l 1
 54 520 l 1
EndSplineSet
Validated: 1
EndChar

StartChar: questiondown
Encoding: 191 191 242
Width: 596
Flags: MW
HStem: -215 140<272 318 272 359> 370 150<220 371 220 371>
VStem: 59 155<-29 13.5 -29 36> 214 168<-7.5 13.5> 220 151<370 520 370 520>
LayerCount: 2
Fore
SplineSet
225 312 m 1xe8
 370 312 l 1
 370 267 l 2
 370 186 339 136 279 92 c 0
 232 58 214 34 214 -7 c 0
 214 -51 246 -75 298 -75 c 0
 338 -75 382 -41 382 26 c 1
 528 -4 l 1
 516 -136 419 -215 299 -215 c 0
 161 -215 59 -136 59 -13 c 0
 59 85 116 124 171 175 c 0
 206 208 223 220 225 277 c 2xd0
 225 312 l 1xe8
220 520 m 1
 371 520 l 1
 371 370 l 1
 220 370 l 1
 220 520 l 1
EndSplineSet
Validated: 1
EndChar

StartChar: Aacute
Encoding: 193 193 243
Width: 730
Flags: MW
HStem: 0 21G<10 173 173 173 555 720 720 720> 700 20G<296 440 296 296> 803 187<260 514 336 391>
LayerCount: 2
Fore
SplineSet
440 720 m 1
 296 720 l 1
 10 0 l 1
 173 0 l 1
 220 130 l 1
 507 130 l 1
 555 0 l 1
 720 0 l 1
 440 720 l 1
269 262 m 1
 364 521 l 1
 459 262 l 1
 269 262 l 1
260 803 m 1
 336 990 l 1
 514 990 l 1
 391 803 l 1
 260 803 l 1
EndSplineSet
Validated: 9
EndChar

StartChar: Eacute
Encoding: 201 201 244
Width: 667
Flags: MW
HStem: 0 145<230 607 230 607 230 607> 145 150<230 547 230 607 230 547> 295 145<230 547 230 547> 575 145<230 597 70 597> 803 187<250 504 326 381>
VStem: 70 160<0 295 145 295 440 575>
LayerCount: 2
Fore
SplineSet
70 0 m 1x7c
 607 0 l 1xbc
 607 145 l 1
 230 145 l 1
 230 295 l 1
 547 295 l 1
 547 440 l 1
 230 440 l 1
 230 575 l 1
 597 575 l 1
 597 720 l 1
 70 720 l 1
 70 0 l 1x7c
250 803 m 1
 326 990 l 1
 504 990 l 1
 381 803 l 1
 250 803 l 1
EndSplineSet
Validated: 8388617
EndChar

StartChar: Iacute
Encoding: 205 205 245
Width: 300
Flags: MW
HStem: 0 21G<70 230 230 230> 700 20G<70 230 70 70> 803 187<60 314 136 191>
VStem: 70 160<0 720 0 720>
LayerCount: 2
Fore
SplineSet
70 0 m 1
 230 0 l 1
 230 720 l 1
 70 720 l 1
 70 0 l 1
60 803 m 1
 136 990 l 1
 314 990 l 1
 191 803 l 1
 60 803 l 1
EndSplineSet
Validated: 9
EndChar

StartChar: Oacute
Encoding: 211 211 246
Width: 765
Flags: MW
HStem: -15 140<328 437.5 328 492.5> 595 140<328 437.5> 803 187<290 544 366 421>
VStem: 40 165<286.5 433.5 286.5 468.5> 560 165<286.5 433.5>
LayerCount: 2
Fore
SplineSet
40 360 m 0
 40 577 163 735 383 735 c 0
 602 735 725 577 725 360 c 0
 725 143 602 -15 383 -15 c 0
 163 -15 40 143 40 360 c 0
205 360 m 0
 205 213 273 125 383 125 c 0
 492 125 560 213 560 360 c 0
 560 507 492 595 383 595 c 0
 273 595 205 507 205 360 c 0
290 803 m 1
 366 990 l 1
 544 990 l 1
 421 803 l 1
 290 803 l 1
EndSplineSet
Validated: 1
EndChar

StartChar: Uacute
Encoding: 218 218 247
Width: 753
Flags: MW
HStem: -15 145<330.5 423.5 330.5 475.5> 700 20G<70 230 70 70 523 683 523 523> 803 187<300 554 376 431>
VStem: 70 160<204.5 720 317 720 317 720> 523 160<302 317 317 720>
LayerCount: 2
Fore
SplineSet
523 720 m 1
 523 317 l 2
 523 179 470 130 377 130 c 0
 284 130 230 179 230 317 c 2
 230 720 l 1
 70 720 l 1
 70 302 l 2
 70 107 182 -15 377 -15 c 0
 574 -15 683 107 683 302 c 2
 683 720 l 1
 523 720 l 1
300 803 m 1
 376 990 l 1
 554 990 l 1
 431 803 l 1
 300 803 l 1
EndSplineSet
Validated: 9
EndChar

StartChar: Yacute
Encoding: 221 221 248
Width: 705
Flags: MW
HStem: 0 21G<272 433 433 433> 700 20G<10 185 10 10 525 695 525 525> 803 187<270 524 346 401>
VStem: 272 161<0 293 0 293>
LayerCount: 2
Fore
SplineSet
272 0 m 1
 433 0 l 1
 433 293 l 1
 695 720 l 1
 525 720 l 1
 357 443 l 1
 185 720 l 1
 10 720 l 1
 272 293 l 1
 272 0 l 1
270 803 m 1
 346 990 l 1
 524 990 l 1
 401 803 l 1
 270 803 l 1
EndSplineSet
Validated: 9
EndChar

StartChar: Agrave
Encoding: 192 192 249
Width: 730
Flags: MW
HStem: 0 21G<10 173 10 10 555 720 555 555> 130 132<269 459 269 507 220 459> 700 20G<296 440 440 440> 803 187<313 368 190 444 313 313>
LayerCount: 2
Fore
SplineSet
296 720 m 1
 440 720 l 1
 720 0 l 1
 555 0 l 1
 507 130 l 1
 220 130 l 1
 173 0 l 1
 10 0 l 1
 296 720 l 1
364 521 m 1
 269 262 l 1
 459 262 l 1
 364 521 l 1
368 990 m 1
 444 803 l 1
 313 803 l 1
 190 990 l 1
 368 990 l 1
EndSplineSet
Validated: 1
EndChar

StartChar: Egrave
Encoding: 200 200 250
Width: 667
Flags: MW
HStem: 0 145<230 607 230 607> 295 145<230 547 230 547> 575 145<230 597 230 230> 803 187<283 338 160 414 283 283>
VStem: 70 160<145 295 440 575>
LayerCount: 2
Fore
SplineSet
607 0 m 1
 70 0 l 1
 70 720 l 1
 597 720 l 1
 597 575 l 1
 230 575 l 1
 230 440 l 1
 547 440 l 1
 547 295 l 1
 230 295 l 1
 230 145 l 1
 607 145 l 1
 607 0 l 1
338 990 m 1
 414 803 l 1
 283 803 l 1
 160 990 l 1
 338 990 l 1
EndSplineSet
Validated: 1
EndChar

StartChar: Ograve
Encoding: 210 210 251
Width: 765
Flags: MW
HStem: -15 140<328 437.5 328 492.5> 595 140<328 437.5> 803 187<333 388 210 464 333 333>
VStem: 40 165<286.5 433.5 286.5 468.5> 560 165<286.5 433.5>
LayerCount: 2
Fore
SplineSet
40 360 m 0
 40 577 163 735 383 735 c 0
 602 735 725 577 725 360 c 0
 725 143 602 -15 383 -15 c 0
 163 -15 40 143 40 360 c 0
205 360 m 0
 205 213 273 125 383 125 c 0
 492 125 560 213 560 360 c 0
 560 507 492 595 383 595 c 0
 273 595 205 507 205 360 c 0
388 990 m 1
 464 803 l 1
 333 803 l 1
 210 990 l 1
 388 990 l 1
EndSplineSet
Validated: 1
EndChar

StartChar: Ugrave
Encoding: 217 217 252
Width: 753
Flags: MW
HStem: -15 145<330.5 423.5 330.5 475.5> 700 20G<70 230 230 230 523 683 683 683> 803 187<323 378 200 454 323 323>
VStem: 70 160<302 317 317 720> 523 160<317 720>
LayerCount: 2
Fore
SplineSet
523 317 m 2
 523 720 l 1
 683 720 l 1
 683 302 l 2
 683 107 574 -15 377 -15 c 0
 182 -15 70 107 70 302 c 2
 70 720 l 1
 230 720 l 1
 230 317 l 2
 230 179 284 130 377 130 c 0
 470 130 523 179 523 317 c 2
378 990 m 1
 454 803 l 1
 323 803 l 1
 200 990 l 1
 378 990 l 1
EndSplineSet
Validated: 1
EndChar

StartChar: Acircumflex
Encoding: 194 194 253
Width: 730
Flags: MW
HStem: 0 21G<10 173 10 10 555 720 555 555> 130 132<269 459 269 507 220 459> 700 20G<296 440 440 440> 980 20G<300 437 437 437>
LayerCount: 2
Fore
SplineSet
296 720 m 1
 440 720 l 1
 720 0 l 1
 555 0 l 1
 507 130 l 1
 220 130 l 1
 173 0 l 1
 10 0 l 1
 296 720 l 1
364 521 m 1
 269 262 l 1
 459 262 l 1
 364 521 l 1
300 1000 m 1
 437 1000 l 1
 586 770 l 1
 445 770 l 1
 368 901 l 1
 289 770 l 1
 151 770 l 1
 300 1000 l 1
EndSplineSet
Validated: 1
EndChar

StartChar: Ecircumflex
Encoding: 202 202 254
Width: 667
Flags: MW
HStem: 0 145<230 607 230 607> 295 145<230 547 230 547> 575 145<230 597 230 230> 960 20G<270 407 407 407>
VStem: 70 160<145 295 440 575>
LayerCount: 2
Fore
SplineSet
607 0 m 1
 70 0 l 1
 70 720 l 1
 597 720 l 1
 597 575 l 1
 230 575 l 1
 230 440 l 1
 547 440 l 1
 547 295 l 1
 230 295 l 1
 230 145 l 1
 607 145 l 1
 607 0 l 1
270 980 m 1
 407 980 l 1
 556 770 l 1
 415 770 l 1
 338 881 l 1
 259 770 l 1
 121 770 l 1
 270 980 l 1
EndSplineSet
Validated: 1
EndChar

StartChar: Icircumflex
Encoding: 206 206 255
Width: 300
Flags: MW
HStem: 0 21G<70 230 70 70> 700 20G<70 230 230 230> 960 20G<83 220 220 220>
VStem: 70 160<0 720>
LayerCount: 2
Fore
SplineSet
230 0 m 1
 70 0 l 1
 70 720 l 1
 230 720 l 1
 230 0 l 1
83 980 m 1
 220 980 l 1
 369 770 l 1
 228 770 l 1
 151 881 l 1
 72 770 l 1
 -66 770 l 1
 83 980 l 1
EndSplineSet
Validated: 1
EndChar

StartChar: Ocircumflex
Encoding: 212 212 256
Width: 765
Flags: MW
HStem: -15 140<328 437.5 328 492.5> 595 140<328 437.5> 735 245<315 452 315 492.5>
VStem: 40 165<286.5 433.5 286.5 468.5> 560 165<286.5 433.5>
LayerCount: 2
Fore
SplineSet
40 360 m 0xb8
 40 577 163 735 383 735 c 0
 602 735 725 577 725 360 c 0
 725 143 602 -15 383 -15 c 0
 163 -15 40 143 40 360 c 0xb8
205 360 m 0
 205 213 273 125 383 125 c 0
 492 125 560 213 560 360 c 0
 560 507 492 595 383 595 c 0
 273 595 205 507 205 360 c 0
315 980 m 1
 452 980 l 1xd8
 611 770 l 1
 470 770 l 1
 383 891 l 1
 294 770 l 1
 156 770 l 1
 315 980 l 1
EndSplineSet
Validated: 1
EndChar

StartChar: Ucircumflex
Encoding: 219 219 257
Width: 753
Flags: MW
HStem: -15 145<330.5 423.5 330.5 475.5> 700 20G<70 230 230 230 523 683 683 683> 960 20G<311 448 448 448>
VStem: 70 160<302 317 317 720> 523 160<317 720>
LayerCount: 2
Fore
SplineSet
523 317 m 2
 523 720 l 1
 683 720 l 1
 683 302 l 2
 683 107 574 -15 377 -15 c 0
 182 -15 70 107 70 302 c 2
 70 720 l 1
 230 720 l 1
 230 317 l 2
 230 179 284 130 377 130 c 0
 470 130 523 179 523 317 c 2
311 980 m 1
 448 980 l 1
 607 770 l 1
 466 770 l 1
 379 891 l 1
 290 770 l 1
 152 770 l 1
 311 980 l 1
EndSplineSet
Validated: 1
EndChar

StartChar: Ydieresis
Encoding: 376 376 258
Width: 705
Flags: MW
HStem: 0 21G<272 433 272 272> 700 20G<10 185 185 185 525 695 695 695> 779 141<160 310 160 310 160 400 400 550>
VStem: 160 150<779 920 779 920> 272 161<0 293> 400 150<779 920 779 920>
LayerCount: 2
Fore
SplineSet
433 0 m 1xe8
 272 0 l 1
 272 293 l 1
 10 720 l 1
 185 720 l 1
 357 443 l 1
 525 720 l 1
 695 720 l 1
 433 293 l 1
 433 0 l 1xe8
310 779 m 1
 160 779 l 1
 160 920 l 1
 310 920 l 1
 310 779 l 1
550 779 m 1
 400 779 l 1
 400 920 l 1
 550 920 l 1
 550 779 l 1
EndSplineSet
Validated: 1
EndChar

StartChar: ucircumflex
Encoding: 251 251 259
Width: 585
Flags: MW
HStem: -15 126<256 275> 0 111<256 530 256 389> 500 20G<55 205 205 205 380 530 530 530> 600 180<223 232 94 360 348 360 223 489 348 348>
VStem: 55 150<201 205 205 520> 380 150<237 520 0 520>
LayerCount: 2
Fore
SplineSet
380 520 m 1xbc
 530 520 l 1
 530 0 l 1
 389 0 l 1
 389 75 l 1
 351 11 306 -15 244 -15 c 0
 100 -15 55 77 55 201 c 2
 55 520 l 1
 205 520 l 1
 205 205 l 2
 205 145 227 111 285 111 c 0
 337 111 380 153 380 237 c 2
 380 520 l 1xbc
223 780 m 1
 360 780 l 1
 489 600 l 1
 348 600 l 1
 291 691 l 1
 232 600 l 1x7c
 94 600 l 1
 223 780 l 1
EndSplineSet
Validated: 1
EndChar

StartChar: ocircumflex
Encoding: 244 244 260
Width: 566
Flags: MW
HStem: -15 125<248.5 317.5 248.5 352.5> 410 125<248.5 317.5> 600 180<215 224 86 352 340 352 215 481 340 340>
VStem: 25 150<211.5 308.5 211.5 356> 391 150<211.5 308.5>
LayerCount: 2
Fore
SplineSet
25 260 m 0
 25 452 144 535 283 535 c 0
 422 535 541 452 541 260 c 0
 541 68 422 -15 283 -15 c 0
 144 -15 25 68 25 260 c 0
175 260 m 0
 175 163 214 110 283 110 c 0
 352 110 391 163 391 260 c 0
 391 357 352 410 283 410 c 0
 214 410 175 357 175 260 c 0
215 780 m 1
 352 780 l 1
 481 600 l 1
 340 600 l 1
 283 691 l 1
 224 600 l 1
 86 600 l 1
 215 780 l 1
EndSplineSet
Validated: 1
EndChar

StartChar: ecircumflex
Encoding: 234 234 261
Width: 558
Flags: MW
HStem: -15 125<259.5 317 259.5 345.5> 110 107<259.5 317> 217 102<177 381 177 532 175 381> 319 91<254 308 254 381 254 381> 410 125<254 308> 600 180<215 224 86 352 340 352 215 481 340 340>
VStem: 25 150<217 217 217 356> 381 152<319 319>
LayerCount: 2
Fore
SplineSet
532 217 m 2x97
 175 217 l 1
 179 145 226 110 293 110 c 0
 341 110 372 137 384 170 c 1
 524 141 l 1
 485 38 408 -15 283 -15 c 0
 149 -15 25 68 25 260 c 0
 25 452 150 535 283 535 c 0
 414 535 533 455 533 281 c 0
 533 250 532 219 532 217 c 2x97
279 410 m 0
 229 410 183 376 177 319 c 1x4f
 381 319 l 1
 377 374 337 410 279 410 c 0
215 780 m 1
 352 780 l 1
 481 600 l 1
 340 600 l 1xaf
 283 691 l 1
 224 600 l 1
 86 600 l 1
 215 780 l 1
EndSplineSet
Validated: 1
EndChar

StartChar: acircumflex
Encoding: 226 226 262
Width: 556
Flags: MW
HStem: -15 112<216.5 234> 0 21G<375 526 375 375> 413 122<235 295.5> 600 180<199 208 70 336 324 336 199 465 324 324>
VStem: 30 150 346 150<165 235 235 235>
LayerCount: 2
Fore
SplineSet
352 54 m 1xbc
 309 2 265 -15 203 -15 c 0
 109 -15 30 36 30 132 c 0
 30 244 108 286 234 301 c 0
 288 307 320 313 346 325 c 1
 346 337 l 2
 346 371 327 413 264 413 c 0
 206 413 183 374 173 336 c 1
 46 378 l 1
 72 498 174 535 271 535 c 0
 404 535 496 475 496 314 c 2
 496 106 l 2
 496 53 508 19 526 0 c 1
 375 0 l 1x7c
 360 13 354 37 352 54 c 1xbc
346 165 m 1
 346 235 l 1
 328 228 304 219 254 209 c 0
 208 200 178 183 180 142 c 0
 181 119 195 97 238 97 c 0
 285 97 329 130 346 165 c 1
199 780 m 1
 336 780 l 1
 465 600 l 1
 324 600 l 1
 267 691 l 1
 208 600 l 1
 70 600 l 1xbc
 199 780 l 1
EndSplineSet
Validated: 33
EndChar

StartChar: Igrave
Encoding: 204 204 263
Width: 300
Flags: MW
HStem: 0 21G<70 230 70 70> 700 20G<70 230 230 230> 803 187<113 168 -10 244 113 113>
VStem: 70 160<0 720>
LayerCount: 2
Fore
SplineSet
230 0 m 1
 70 0 l 1
 70 720 l 1
 230 720 l 1
 230 0 l 1
168 990 m 1
 244 803 l 1
 113 803 l 1
 -10 990 l 1
 168 990 l 1
EndSplineSet
Validated: 1
EndChar

StartChar: Scaron
Encoding: 352 352 264
Width: 647
Flags: MW
HStem: -15 140<284.5 358 284.5 398.5> -15 249 510 225 595 140<280.5 351.5> 960 20G<96 237 237 237 393 531 531 531>
VStem: 55 154<516.5 549 516.5 590.5> 443 164<175.5 224.5>
LayerCount: 2
Fore
SplineSet
35 230 m 1
 189 238 l 1
 197 153 243 125 326 125 c 0
 390 125 443 147 443 204 c 0
 443 245 423 264 366 283 c 0
 328 296 248 317 205 330 c 0
 79 368 55 448 55 516 c 0
 55 665 178 735 309 735 c 0
 479 735 573 664 583 514 c 1
 427 507 l 1
 418 559 390 595 313 595 c 0
 248 595 209 568 209 530 c 0
 209 503 220 487 254 474 c 0
 287 461 359 441 428 422 c 0
 533 392 607 329 607 209 c 0
 607 57 467 -15 330 -15 c 0
 139 -15 46 77 35 230 c 1
382 790 m 1
 245 790 l 1
 96 980 l 1
 237 980 l 1
 314 879 l 1
 393 980 l 1
 531 980 l 1
 382 790 l 1
EndSplineSet
Validated: 8388609
EndChar

StartChar: Zcaron
Encoding: 381 381 265
Width: 662
Flags: MW
HStem: 0 145<224 612 50 50> 575 145<70 423 70 602 70 602> 960 20G<116 257 257 257 413 551 551 551>
LayerCount: 2
Fore
SplineSet
612 0 m 1
 50 0 l 1
 50 145 l 1
 423 575 l 1
 70 575 l 1
 70 720 l 1
 602 720 l 1
 602 575 l 1
 224 145 l 1
 612 145 l 1
 612 0 l 1
402 790 m 1
 265 790 l 1
 116 980 l 1
 257 980 l 1
 334 879 l 1
 413 980 l 1
 551 980 l 1
 402 790 l 1
EndSplineSet
Validated: 1
EndChar

StartChar: scaron
Encoding: 353 353 266
Width: 483
Flags: MW
HStem: -15 115<217 265.5 217 304> 420 115<218.5 257.5> 600 180<169 181 297 306 169 169>
VStem: 38 126<364.5 390.5 364.5 428.5> 328 130<131 164>
LayerCount: 2
Fore
SplineSet
25 150 m 1
 150 171 l 1
 156 126 189 100 245 100 c 0
 286 100 328 110 328 152 c 0
 328 176 309 188 288 193 c 2
 165 220 l 2
 97 235 38 283 38 369 c 0
 38 488 137 535 244 535 c 0
 368 535 443 464 446 385 c 1
 320 363 l 1
 313 406 276 420 239 420 c 0
 198 420 164 408 164 373 c 0
 164 356 176 342 202 337 c 2
 321 312 l 2
 378 300 458 263 458 156 c 0
 458 41 366 -15 242 -15 c 0
 115 -15 35 55 25 150 c 1
306 600 m 1
 169 600 l 1
 40 780 l 1
 181 780 l 1
 238 689 l 1
 297 780 l 1
 435 780 l 1
 306 600 l 1
EndSplineSet
Validated: 1
EndChar

StartChar: zcaron
Encoding: 382 382 267
Width: 504
Flags: MW
HStem: 0 125<211 469 35 35> 395 125<54 282 54 463 54 463> 600 180<187 199 315 324 187 187>
LayerCount: 2
Fore
SplineSet
469 0 m 1
 35 0 l 1
 35 125 l 1
 282 395 l 1
 54 395 l 1
 54 520 l 1
 463 520 l 1
 463 395 l 1
 211 125 l 1
 469 125 l 1
 469 0 l 1
324 600 m 1
 187 600 l 1
 58 780 l 1
 199 780 l 1
 256 689 l 1
 315 780 l 1
 453 780 l 1
 324 600 l 1
EndSplineSet
Validated: 1
EndChar

StartChar: icircumflex
Encoding: 238 238 268
Width: 260
Flags: MW
HStem: 0 21G<55 205 55 55> 500 20G<55 205 205 205> 600 180<63 72 -66 200 188 200 63 329 188 188>
VStem: 55 150<0 520>
LayerCount: 2
Fore
SplineSet
205 0 m 1
 55 0 l 1
 55 520 l 1
 205 520 l 1
 205 0 l 1
63 780 m 1
 200 780 l 1
 329 600 l 1
 188 600 l 1
 131 691 l 1
 72 600 l 1
 -66 600 l 1
 63 780 l 1
EndSplineSet
Validated: 1
EndChar

StartChar: Aring
Encoding: 197 197 269
Width: 730
Flags: MW
HStem: 0 21G<10 173 173 173 555 720 720 720> 700 20G<296 440 296 296> 749 93<353.5 380.5 353.5 406.5> 940 95<353.5 380.5>
VStem: 224 93<878 905 878 931> 415 95<878 905>
LayerCount: 2
Fore
SplineSet
440 720 m 1
 296 720 l 1
 10 0 l 1
 173 0 l 1
 220 130 l 1
 507 130 l 1
 555 0 l 1
 720 0 l 1
 440 720 l 1
269 262 m 1
 364 521 l 1
 459 262 l 1
 269 262 l 1
224 892 m 0
 224 970 289 1035 367 1035 c 0
 446 1035 510 970 510 892 c 0
 510 813 446 749 367 749 c 0
 289 749 224 813 224 892 c 0
317 892 m 0
 317 864 340 842 367 842 c 0
 394 842 415 864 415 892 c 0
 415 918 394 940 367 940 c 0
 340 940 317 918 317 892 c 0
EndSplineSet
Validated: 9
EndChar

StartChar: aring
Encoding: 229 229 270
Width: 556
Flags: MW
HStem: -15 112<216.5 234> 0 21G<375 526 526 526> 413 122<235 295.5> 579 93<257.5 284.5 257.5 310.5> 672 98<257.5 284.5> 770 95<257.5 284.5>
VStem: 30 150 221 98<708 735> 346 150<165 235 165 165 325 337 325 325> 414 82
LayerCount: 2
Fore
SplineSet
352 54 m 1xab80
 354 37 360 13 375 0 c 1
 526 0 l 1x6b80
 508 19 496 53 496 106 c 2
 496 314 l 2
 496 475 404 535 271 535 c 0
 174 535 72 498 46 378 c 1
 173 336 l 1
 183 374 206 413 264 413 c 0
 327 413 346 371 346 337 c 2
 346 325 l 1
 320 313 288 307 234 301 c 0
 108 286 30 244 30 132 c 0
 30 36 109 -15 203 -15 c 0
 265 -15 309 2 352 54 c 1xab80
346 235 m 1
 346 165 l 1
 329 130 285 97 238 97 c 0xb780
 195 97 181 119 180 142 c 0
 178 183 208 200 254 209 c 0
 304 219 328 228 346 235 c 1
128 722 m 0
 128 800 193 865 271 865 c 0
 350 865 414 800 414 722 c 0xb740
 414 643 350 579 271 579 c 0
 193 579 128 643 128 722 c 0
221 722 m 0
 221 694 244 672 271 672 c 0xab80
 298 672 319 694 319 722 c 0
 319 748 298 770 271 770 c 0
 244 770 221 748 221 722 c 0
EndSplineSet
Validated: 41
EndChar

StartChar: rcaron
Encoding: 345 345 271
Width: 440
Flags: MW
HStem: 0 21G<55 205 55 55> 395 125<55 349.5> 395 140<300.5 349.5> 600 180<159 171 287 296 159 159>
VStem: 55 150<0 231>
LayerCount: 2
Fore
SplineSet
205 0 m 1xb8
 55 0 l 1
 55 520 l 1
 196 520 l 1
 196 430 l 1
 229 500 263 535 338 535 c 0
 378 535 406 528 430 509 c 1
 408 375 l 1
 388 385 365 395 334 395 c 0
 248 395 205 332 205 231 c 2
 205 0 l 1xb8
296 600 m 1
 159 600 l 1
 30 780 l 1
 171 780 l 1
 228 689 l 1
 287 780 l 1xd8
 425 780 l 1
 296 600 l 1
EndSplineSet
Validated: 1
EndChar

StartChar: uhungarumlaut
Encoding: 369 369 272
Width: 585
Flags: MW
HStem: -15 126<256 275> 0 111<256 530> 500 20G<55 205 55 55 380 530 380 380> 603 187<80 334 156 211 310 334 386 441 310 310>
VStem: 55 150<139 520 205 520 205 520> 380 150<195 237 237 520>
LayerCount: 2
Fore
SplineSet
530 520 m 1x7c
 380 520 l 1
 380 237 l 2
 380 153 337 111 285 111 c 0
 227 111 205 145 205 205 c 2
 205 520 l 1
 55 520 l 1
 55 201 l 2
 55 77 100 -15 244 -15 c 0xbc
 306 -15 351 11 389 75 c 1
 389 0 l 1
 530 0 l 1
 530 520 l 1x7c
80 603 m 1
 156 790 l 1
 334 790 l 1
 211 603 l 1
 80 603 l 1
310 603 m 1
 386 790 l 1
 564 790 l 1
 441 603 l 1
 310 603 l 1
EndSplineSet
Validated: 9
EndChar

StartChar: Uhungarumlaut
Encoding: 368 368 273
Width: 753
Flags: MW
HStem: -15 145<330.5 423.5 330.5 475.5> 700 20G<70 230 70 70 523 683 523 523> 803 187<170 424 246 301 410 424 486 541 410 410>
VStem: 70 160<204.5 720 317 720 317 720> 523 160<302 317 317 720>
LayerCount: 2
Fore
SplineSet
523 720 m 1
 523 317 l 2
 523 179 470 130 377 130 c 0
 284 130 230 179 230 317 c 2
 230 720 l 1
 70 720 l 1
 70 302 l 2
 70 107 182 -15 377 -15 c 0
 574 -15 683 107 683 302 c 2
 683 720 l 1
 523 720 l 1
170 803 m 1
 246 990 l 1
 424 990 l 1
 301 803 l 1
 170 803 l 1
410 803 m 1
 486 990 l 1
 664 990 l 1
 541 803 l 1
 410 803 l 1
EndSplineSet
Validated: 9
EndChar

StartChar: Ohungarumlaut
Encoding: 336 336 274
Width: 765
Flags: MW
HStem: -15 140<328 437.5 328 492.5> 595 140<328 437.5> 803 187<180 434 256 311 410 434 486 541 410 410>
VStem: 40 165<286.5 433.5 286.5 468.5> 560 165<286.5 433.5>
LayerCount: 2
Fore
SplineSet
40 360 m 0
 40 577 163 735 383 735 c 0
 602 735 725 577 725 360 c 0
 725 143 602 -15 383 -15 c 0
 163 -15 40 143 40 360 c 0
205 360 m 0
 205 213 273 125 383 125 c 0
 492 125 560 213 560 360 c 0
 560 507 492 595 383 595 c 0
 273 595 205 507 205 360 c 0
180 803 m 1
 256 990 l 1
 434 990 l 1
 311 803 l 1
 180 803 l 1
410 803 m 1
 486 990 l 1
 664 990 l 1
 541 803 l 1
 410 803 l 1
EndSplineSet
Validated: 1
EndChar

StartChar: uring
Encoding: 367 367 275
Width: 585
Flags: MW
HStem: -15 126<256 275> 0 111<256 530> 500 20G<55 205 55 55 380 530 380 380> 579 93<277.5 304.5 277.5 330.5> 672 98<277.5 304.5> 770 95<277.5 304.5>
VStem: 55 150<139 520 205 520 205 520> 241 98<708 735> 380 150<195 237 237 520>
LayerCount: 2
Fore
SplineSet
530 520 m 1x6b80
 380 520 l 1
 380 237 l 2
 380 153 337 111 285 111 c 0
 227 111 205 145 205 205 c 2
 205 520 l 1
 55 520 l 1
 55 201 l 2
 55 77 100 -15 244 -15 c 0xb780
 306 -15 351 11 389 75 c 1
 389 0 l 1
 530 0 l 1
 530 520 l 1x6b80
148 722 m 0
 148 800 213 865 291 865 c 0
 370 865 434 800 434 722 c 0
 434 643 370 579 291 579 c 0
 213 579 148 643 148 722 c 0
241 722 m 0
 241 694 264 672 291 672 c 0
 318 672 339 694 339 722 c 0
 339 748 318 770 291 770 c 0
 264 770 241 748 241 722 c 0
EndSplineSet
Validated: 9
EndChar

StartChar: ohungarumlaut
Encoding: 337 337 276
Width: 566
Flags: MW
HStem: -15 125<248.5 317.5 248.5 352.5> 410 125<248.5 317.5> 603 187<80 334 156 211 300 334 376 431 300 300>
VStem: 25 150<211.5 308.5 211.5 356> 391 150<211.5 308.5>
LayerCount: 2
Fore
SplineSet
25 260 m 0
 25 452 144 535 283 535 c 0
 422 535 541 452 541 260 c 0
 541 68 422 -15 283 -15 c 0
 144 -15 25 68 25 260 c 0
175 260 m 0
 175 163 214 110 283 110 c 0
 352 110 391 163 391 260 c 0
 391 357 352 410 283 410 c 0
 214 410 175 357 175 260 c 0
80 603 m 1
 156 790 l 1
 334 790 l 1
 211 603 l 1
 80 603 l 1
300 603 m 1
 376 790 l 1
 554 790 l 1
 431 603 l 1
 300 603 l 1
EndSplineSet
Validated: 1
EndChar

StartChar: ncaron
Encoding: 328 328 277
Width: 585
Flags: MW
HStem: 0 21G<55 205 55 55 380 380 380 530> 409 111<55 329> 409 126<310 329> 600 180<212 224 340 349 212 212>
VStem: 55 150<0 283> 380 150<0 315 315 319 0 345>
LayerCount: 2
Fore
SplineSet
205 0 m 1xbc
 55 0 l 1
 55 520 l 1
 196 520 l 1
 196 445 l 1
 234 509 279 535 341 535 c 0
 485 535 530 443 530 319 c 2
 530 0 l 1
 380 0 l 1
 380 315 l 2
 380 375 358 409 300 409 c 0
 248 409 205 367 205 283 c 2
 205 0 l 1xbc
349 600 m 1
 212 600 l 1
 83 780 l 1
 224 780 l 1
 281 689 l 1
 340 780 l 1xdc
 478 780 l 1
 349 600 l 1
EndSplineSet
Validated: 1
EndChar

StartChar: nacute
Encoding: 324 324 278
Width: 585
Flags: MW
HStem: 0 21G<55 205 205 205 380 530 530 530> 409 111<55 329> 515 20G<310 413> 603 187<180 434 256 311>
VStem: 55 150<0 283 0 283 283 325 0 520> 380 150<0 315 0 319>
LayerCount: 2
Fore
SplineSet
55 0 m 1xdc
 205 0 l 1
 205 283 l 2
 205 367 248 409 300 409 c 0xdc
 358 409 380 375 380 315 c 2
 380 0 l 1
 530 0 l 1
 530 319 l 2
 530 443 485 535 341 535 c 0xbc
 279 535 234 509 196 445 c 1
 196 520 l 1
 55 520 l 1
 55 0 l 1xdc
180 603 m 1
 256 790 l 1
 434 790 l 1
 311 603 l 1
 180 603 l 1
EndSplineSet
Validated: 9
EndChar

StartChar: ecaron
Encoding: 283 283 279
Width: 558
Flags: MW
HStem: -15 125<259.5 317 259.5 345.5> 110 107<259.5 317> 217 102<177 381 177 532 175 381> 319 91<254 308 254 381 254 381> 410 125<254 308> 600 180<213 225 341 350 213 213>
VStem: 25 150<217 217 217 356> 381 152<319 319>
LayerCount: 2
Fore
SplineSet
532 217 m 2x97
 175 217 l 1
 179 145 226 110 293 110 c 0
 341 110 372 137 384 170 c 1
 524 141 l 1
 485 38 408 -15 283 -15 c 0
 149 -15 25 68 25 260 c 0
 25 452 150 535 283 535 c 0
 414 535 533 455 533 281 c 0
 533 250 532 219 532 217 c 2x97
279 410 m 0
 229 410 183 376 177 319 c 1x4f
 381 319 l 1
 377 374 337 410 279 410 c 0
350 600 m 1
 213 600 l 1
 84 780 l 1
 225 780 l 1xaf
 282 689 l 1
 341 780 l 1
 479 780 l 1
 350 600 l 1
EndSplineSet
Validated: 1
EndChar

StartChar: ccaron
Encoding: 269 269 280
Width: 538
Flags: MW
HStem: -15 125<240.5 297 240.5 329> 410 125<242 297> 600 180<204 216 332 341 204 204>
VStem: 25 150<211.5 308.5 211.5 356>
LayerCount: 2
Fore
SplineSet
175 260 m 0
 175 163 208 110 273 110 c 0
 321 110 354 135 365 196 c 1
 513 175 l 1
 485 36 385 -15 273 -15 c 0
 139 -15 25 68 25 260 c 0
 25 452 139 535 273 535 c 0
 385 535 485 483 513 344 c 1
 366 322 l 1
 355 384 321 410 273 410 c 0
 211 410 175 357 175 260 c 0
341 600 m 1
 204 600 l 1
 75 780 l 1
 216 780 l 1
 273 689 l 1
 332 780 l 1
 470 780 l 1
 341 600 l 1
EndSplineSet
Validated: 1
EndChar

StartChar: cacute
Encoding: 263 263 281
Width: 538
Flags: MW
HStem: -15 125<240.5 297 240.5 329> 410 125<242 297> 603 187<183 437 259 314>
VStem: 25 150<211.5 308.5 211.5 356>
LayerCount: 2
Fore
SplineSet
175 260 m 0
 175 163 208 110 273 110 c 0
 321 110 354 135 365 196 c 1
 513 175 l 1
 485 36 385 -15 273 -15 c 0
 139 -15 25 68 25 260 c 0
 25 452 139 535 273 535 c 0
 385 535 485 483 513 344 c 1
 366 322 l 1
 355 384 321 410 273 410 c 0
 211 410 175 357 175 260 c 0
183 603 m 1
 259 790 l 1
 437 790 l 1
 314 603 l 1
 183 603 l 1
EndSplineSet
Validated: 1
EndChar

StartChar: lacute
Encoding: 314 314 282
Width: 260
Flags: MW
HStem: 0 21G<55 205 205 205> 803 187<53 307 129 184>
VStem: 55 150<0 735 0 695>
LayerCount: 2
Fore
SplineSet
55 0 m 1
 205 0 l 1
 205 735 l 1
 55 695 l 1
 55 0 l 1
53 803 m 1
 129 990 l 1
 307 990 l 1
 184 803 l 1
 53 803 l 1
EndSplineSet
Validated: 9
EndChar

StartChar: abreve
Encoding: 259 259 283
Width: 556
Flags: MW
HStem: -15 112<216.5 234> 0 21G<375 526 375 375> 413 122<235 295.5> 573 91<256 284 256 320> 573 147<101 320>
VStem: 30 150 346 150<165 235 235 235>
LayerCount: 2
Fore
SplineSet
352 54 m 1xae
 309 2 265 -15 203 -15 c 0x76
 109 -15 30 36 30 132 c 0xae
 30 244 108 286 234 301 c 0
 288 307 320 313 346 325 c 1
 346 337 l 2
 346 371 327 413 264 413 c 0
 206 413 183 374 173 336 c 1
 46 378 l 1
 72 498 174 535 271 535 c 0
 404 535 496 475 496 314 c 2
 496 106 l 2
 496 53 508 19 526 0 c 1
 375 0 l 1xb6
 360 13 354 37 352 54 c 1xae
346 165 m 1
 346 235 l 1
 328 228 304 219 254 209 c 0
 208 200 178 183 180 142 c 0
 181 119 195 97 238 97 c 0
 285 97 329 130 346 165 c 1
334 720 m 1
 439 720 l 1
 439 625 370 573 270 573 c 0
 170 573 101 626 101 720 c 1
 206 720 l 1
 211 680 242 664 270 664 c 0xb6
 298 664 329 680 334 720 c 1
EndSplineSet
Validated: 33
EndChar

StartChar: racute
Encoding: 341 341 284
Width: 440
Flags: MW
HStem: 0 21G<55 205 205 205> 395 125<55 349.5> 515 20G<300.5 358> 603 187<130 384 206 261>
VStem: 55 150<0 231 0 231 231 281.5 0 520>
LayerCount: 2
Fore
SplineSet
55 0 m 1xd8
 205 0 l 1
 205 231 l 2
 205 332 248 395 334 395 c 0xd8
 365 395 388 385 408 375 c 1
 430 509 l 1
 406 528 378 535 338 535 c 0xb8
 263 535 229 500 196 430 c 1
 196 520 l 1
 55 520 l 1
 55 0 l 1xd8
130 603 m 1
 206 790 l 1
 384 790 l 1
 261 603 l 1
 130 603 l 1
EndSplineSet
Validated: 9
EndChar

StartChar: Tcommaaccent
Encoding: 354 354 285
Width: 664
Flags: MW
HStem: -377 21G<312 312> -220 150<258 335 258 409 258 409> 0 21G<252 412 252 252> 575 145<30 252 30 634 412 412 412 634>
VStem: 252 160<0 575> 335 77
LayerCount: 2
Fore
SplineSet
412 0 m 1xf8
 252 0 l 1
 252 575 l 1
 30 575 l 1
 30 720 l 1
 634 720 l 1
 634 575 l 1
 412 575 l 1
 412 0 l 1xf8
335 -220 m 1xf4
 258 -220 l 1
 258 -70 l 1
 409 -70 l 1
 409 -220 l 2
 409 -305 367 -353 312 -377 c 1
 275 -314 l 1
 310 -299 335 -274 335 -220 c 1xf4
EndSplineSet
Validated: 1
EndChar

StartChar: Uring
Encoding: 366 366 286
Width: 753
Flags: MW
HStem: -15 145<330.5 423.5 330.5 475.5> 700 20G<70 230 70 70 523 683 523 523> 749 93<363.5 390.5 363.5 416.5> 842 98<363.5 390.5> 940 95<363.5 390.5>
VStem: 70 160<204.5 720 317 720 317 720> 327 98<878 905> 523 160<302 317 317 720>
LayerCount: 2
Fore
SplineSet
523 720 m 1
 523 317 l 2
 523 179 470 130 377 130 c 0
 284 130 230 179 230 317 c 2
 230 720 l 1
 70 720 l 1
 70 302 l 2
 70 107 182 -15 377 -15 c 0
 574 -15 683 107 683 302 c 2
 683 720 l 1
 523 720 l 1
234 892 m 0
 234 970 299 1035 377 1035 c 0
 456 1035 520 970 520 892 c 0
 520 813 456 749 377 749 c 0
 299 749 234 813 234 892 c 0
327 892 m 0
 327 864 350 842 377 842 c 0
 404 842 425 864 425 892 c 0
 425 918 404 940 377 940 c 0
 350 940 327 918 327 892 c 0
EndSplineSet
Validated: 8388617
EndChar

StartChar: Rcaron
Encoding: 344 344 287
Width: 715
Flags: MW
HStem: 0 21G<70 70 70 230 496 496 496 685> 250 135<230 273 230 300> 575 145<230 230 230 298> 960 20G<116 257 257 257 413 551 551 551>
VStem: 70 160<0 250 0 385 385 575> 464 163<448 523>
LayerCount: 2
Fore
SplineSet
70 0 m 1
 70 720 l 1
 353 720 l 2
 509 720 627 660 627 503 c 0
 627 393 555 323 450 309 c 1
 523 299 581 232 610 167 c 2
 685 0 l 1
 496 0 l 1
 444 121 l 2
 399 225 354 250 273 250 c 2
 230 250 l 1
 230 0 l 1
 70 0 l 1
230 575 m 1
 230 385 l 1
 300 385 l 2
 403 385 464 412 464 481 c 0
 464 565 393 575 298 575 c 2
 230 575 l 1
402 790 m 1
 265 790 l 1
 116 980 l 1
 257 980 l 1
 334 879 l 1
 413 980 l 1
 551 980 l 1
 402 790 l 1
EndSplineSet
Validated: 1
EndChar

StartChar: Ncaron
Encoding: 327 327 288
Width: 769
Flags: MW
HStem: 0 21G<70 226 70 70 537 537 537 699> 700 20G<70 232 232 232 543 699 699 699> 960 20G<166 307 307 307 463 601 601 601>
VStem: 70 156<0 456> 543 156<264 720 0 720>
LayerCount: 2
Fore
SplineSet
226 0 m 1
 70 0 l 1
 70 720 l 1
 232 720 l 1
 543 264 l 1
 543 720 l 1
 699 720 l 1
 699 0 l 1
 537 0 l 1
 226 456 l 1
 226 0 l 1
452 790 m 1
 315 790 l 1
 166 980 l 1
 307 980 l 1
 384 879 l 1
 463 980 l 1
 601 980 l 1
 452 790 l 1
EndSplineSet
Validated: 1
EndChar

StartChar: Nacute
Encoding: 323 323 289
Width: 769
Flags: MW
HStem: 0 21G<70 226 226 226 537 699 699 699> 700 20G<70 232 70 70 543 699 543 543> 803 187<310 564 386 441>
VStem: 70 156<0 456 0 456 0 720> 543 156<264 720 264 264>
LayerCount: 2
Fore
SplineSet
70 0 m 1
 226 0 l 1
 226 456 l 1
 537 0 l 1
 699 0 l 1
 699 720 l 1
 543 720 l 1
 543 264 l 1
 232 720 l 1
 70 720 l 1
 70 0 l 1
310 803 m 1
 386 990 l 1
 564 990 l 1
 441 803 l 1
 310 803 l 1
EndSplineSet
Validated: 9
EndChar

StartChar: Dcaron
Encoding: 270 270 290
Width: 714
Flags: MW
HStem: 0 144<230 295 295 320> 575 145<230 230 230 292> 960 20G<106 247 247 247 403 541 541 541>
VStem: 70 160<144 575 144 720 144 720> 511 163<279.5 455>
LayerCount: 2
Fore
SplineSet
320 0 m 2
 70 0 l 1
 70 720 l 1
 309 720 l 2
 551 720 674 594 674 362 c 0
 674 137 562 0 320 0 c 2
230 575 m 1
 230 144 l 1
 295 144 l 2
 431 144 511 196 511 363 c 0
 511 547 410 575 292 575 c 2
 230 575 l 1
392 790 m 1
 255 790 l 1
 106 980 l 1
 247 980 l 1
 324 879 l 1
 403 980 l 1
 541 980 l 1
 392 790 l 1
EndSplineSet
Validated: 1
EndChar

StartChar: Ecaron
Encoding: 282 282 291
Width: 667
Flags: MW
HStem: 0 145<230 607 230 607> 295 145<230 547 230 547> 575 145<230 597 230 230> 960 20G<116 257 257 257 413 551 551 551>
VStem: 70 160<145 295 440 575>
LayerCount: 2
Fore
SplineSet
607 0 m 1
 70 0 l 1
 70 720 l 1
 597 720 l 1
 597 575 l 1
 230 575 l 1
 230 440 l 1
 547 440 l 1
 547 295 l 1
 230 295 l 1
 230 145 l 1
 607 145 l 1
 607 0 l 1
402 790 m 1
 265 790 l 1
 116 980 l 1
 257 980 l 1
 334 879 l 1
 413 980 l 1
 551 980 l 1
 402 790 l 1
EndSplineSet
Validated: 1
EndChar

StartChar: Ccaron
Encoding: 268 268 292
Width: 741
Flags: MW
HStem: -15 140<333 427 333 474.5> 595 140<328 422> 735 245<273 306 462 464.5>
VStem: 40 165<286.5 433.5 286.5 468.5>
LayerCount: 2
Fore
SplineSet
205 360 m 0xb0
 205 213 278 125 388 125 c 0
 466 125 519 165 544 250 c 1
 701 206 l 1
 657 68 561 -15 388 -15 c 0
 168 -15 40 143 40 360 c 0
 40 577 163 735 383 735 c 0
 546 735 665 657 701 513 c 1
 544 469 l 1
 523 559 461 595 383 595 c 0
 273 595 205 507 205 360 c 0xb0
451 790 m 1
 314 790 l 1
 165 980 l 1
 306 980 l 1
 383 879 l 1
 462 980 l 1
 600 980 l 1xd0
 451 790 l 1
EndSplineSet
Validated: 1
EndChar

StartChar: Cacute
Encoding: 262 262 293
Width: 741
Flags: MW
HStem: -15 140<333 427 333 474.5> 595 140<328 422> 803 187<290 544 366 421>
VStem: 40 165<286.5 433.5 286.5 468.5>
LayerCount: 2
Fore
SplineSet
205 360 m 0
 205 213 278 125 388 125 c 0
 466 125 519 165 544 250 c 1
 701 206 l 1
 657 68 561 -15 388 -15 c 0
 168 -15 40 143 40 360 c 0
 40 577 163 735 383 735 c 0
 546 735 665 657 701 513 c 1
 544 469 l 1
 523 559 461 595 383 595 c 0
 273 595 205 507 205 360 c 0
290 803 m 1
 366 990 l 1
 544 990 l 1
 421 803 l 1
 290 803 l 1
EndSplineSet
Validated: 1
EndChar

StartChar: Lacute
Encoding: 313 313 294
Width: 638
Flags: MW
HStem: 0 145<230 608 230 608 230 608> 700 20G<70 230 70 70> 803 187<110 364 186 241>
VStem: 70 160<0 720 145 720 145 720>
LayerCount: 2
Fore
SplineSet
70 0 m 1
 608 0 l 1
 608 145 l 1
 230 145 l 1
 230 720 l 1
 70 720 l 1
 70 0 l 1
110 803 m 1
 186 990 l 1
 364 990 l 1
 241 803 l 1
 110 803 l 1
EndSplineSet
Validated: 9
EndChar

StartChar: Abreve
Encoding: 258 258 295
Width: 730
Flags: MW
HStem: 0 21G<10 173 10 10 555 720 555 555> 130 132<269 459 269 507 220 459> 700 20G<296 440 440 440> 753 94<352 390 352 436> 753 167<306 309 189 436>
VStem: 189 120<895 920 895 920> 437 120<895 920>
LayerCount: 2
Fore
SplineSet
296 720 m 1xee
 440 720 l 1
 720 0 l 1xee
 555 0 l 1xf6
 507 130 l 1
 220 130 l 1
 173 0 l 1
 10 0 l 1
 296 720 l 1xee
364 521 m 1
 269 262 l 1
 459 262 l 1
 364 521 l 1
437 920 m 1
 557 920 l 1
 557 825 501 753 371 753 c 0
 241 753 189 826 189 920 c 1
 309 920 l 1
 309 870 333 847 371 847 c 0
 409 847 437 870 437 920 c 1
EndSplineSet
Validated: 1
EndChar

StartChar: Racute
Encoding: 340 340 296
Width: 715
Flags: MW
HStem: 0 21G<70 230 230 230 496 685 685 685> 250 135<230 273 273 300 230 313.5> 385 190<230 298 230 298 298 300> 575 145<230 298 298 345.5> 803 187<230 484 306 361>
VStem: 70 160<0 250 385 575 0 250> 464 163<448 523>
LayerCount: 2
Fore
SplineSet
70 720 m 1
 70 0 l 1
 230 0 l 1
 230 250 l 1
 273 250 l 2
 354 250 399 225 444 121 c 2
 496 0 l 1
 685 0 l 1
 610 167 l 2
 581 232 523 299 450 309 c 1
 555 323 627 393 627 503 c 0
 627 660 509 720 353 720 c 2
 70 720 l 1
230 385 m 1
 230 575 l 1
 298 575 l 2
 393 575 464 565 464 481 c 0
 464 412 403 385 300 385 c 2
 230 385 l 1
230 803 m 1
 306 990 l 1
 484 990 l 1
 361 803 l 1
 230 803 l 1
EndSplineSet
Validated: 8388617
EndChar

StartChar: zdotaccent
Encoding: 380 380 297
Width: 504
Flags: MW
HStem: 0 125<211 469 35 35> 395 125<54 282 54 463 54 463> 584 136<187 337 187 337>
VStem: 187 150<584 720 584 720>
LayerCount: 2
Fore
SplineSet
469 0 m 1
 35 0 l 1
 35 125 l 1
 282 395 l 1
 54 395 l 1
 54 520 l 1
 463 520 l 1
 463 395 l 1
 211 125 l 1
 469 125 l 1
 469 0 l 1
337 584 m 1
 187 584 l 1
 187 720 l 1
 337 720 l 1
 337 584 l 1
EndSplineSet
Validated: 1
EndChar

StartChar: Lcaron
Encoding: 317 317 298
Width: 638
Flags: MW
HStem: 0 145<230 608 230 608> 700 20G<70 230 230 230> 960 20G<-61 80 80 80 236 374 374 374>
VStem: 70 160<145 720 145 720 145 720>
LayerCount: 2
Fore
SplineSet
608 0 m 1
 70 0 l 1
 70 720 l 1
 230 720 l 1
 230 145 l 1
 608 145 l 1
 608 0 l 1
225 790 m 1
 88 790 l 1
 -61 980 l 1
 80 980 l 1
 157 879 l 1
 236 980 l 1
 374 980 l 1
 225 790 l 1
EndSplineSet
Validated: 1
EndChar

StartChar: scommaaccent
Encoding: 537 537 299
Width: 483
Flags: MW
HStem: -377 21G<232 232> -220 150<178 255 178 329 178 329> -15 115<217 265.5 217 304> 420 115<218.5 257.5>
VStem: 38 126<364.5 390.5 364.5 428.5> 178 151<-220 -70 -262.5 -70> 255 74<-247 -220>
LayerCount: 2
Fore
SplineSet
25 150 m 1xfa
 150 171 l 1
 156 126 189 100 245 100 c 0
 286 100 328 110 328 152 c 0
 328 176 309 188 288 193 c 2
 165 220 l 2xfa
 97 235 38 283 38 369 c 0
 38 488 137 535 244 535 c 0
 368 535 443 464 446 385 c 1
 320 363 l 1xfc
 313 406 276 420 239 420 c 0
 198 420 164 408 164 373 c 0
 164 356 176 342 202 337 c 2
 321 312 l 2
 378 300 458 263 458 156 c 0
 458 41 366 -15 242 -15 c 0
 115 -15 35 55 25 150 c 1xfa
255 -220 m 1
 178 -220 l 1
 178 -70 l 1
 329 -70 l 1
 329 -220 l 2
 329 -305 287 -353 232 -377 c 1
 195 -314 l 1
 230 -299 255 -274 255 -220 c 1
EndSplineSet
Validated: 1
EndChar

StartChar: Zdotaccent
Encoding: 379 379 300
Width: 662
Flags: MW
HStem: 0 145<224 612 50 50> 575 145<70 423 70 602 70 602> 800 150<250 401 250 401>
VStem: 250 151<800 950 800 950>
LayerCount: 2
Fore
SplineSet
612 0 m 1
 50 0 l 1
 50 145 l 1
 423 575 l 1
 70 575 l 1
 70 720 l 1
 602 720 l 1
 602 575 l 1
 224 145 l 1
 612 145 l 1
 612 0 l 1
401 800 m 1
 250 800 l 1
 250 950 l 1
 401 950 l 1
 401 800 l 1
EndSplineSet
Validated: 1
EndChar

StartChar: Scommaaccent
Encoding: 536 536 301
Width: 647
Flags: MW
HStem: -377 21G<312 312> -220 150<258 335 258 409 258 409> -15 140<284.5 358 284.5 398.5> 510 225
VStem: 55 154<516.5 549 516.5 590.5> 258 151<-220 -70 -262.5 -70> 335 74<-247 -220> 443 164<175.5 224.5>
LayerCount: 2
Fore
SplineSet
35 230 m 1xfb
 189 238 l 1
 197 153 243 125 326 125 c 0
 390 125 443 147 443 204 c 0
 443 245 423 264 366 283 c 0
 328 296 248 317 205 330 c 0xfd
 79 368 55 448 55 516 c 0
 55 665 178 735 309 735 c 0
 479 735 573 664 583 514 c 1
 427 507 l 1
 418 559 390 595 313 595 c 0
 248 595 209 568 209 530 c 0
 209 503 220 487 254 474 c 0
 287 461 359 441 428 422 c 0
 533 392 607 329 607 209 c 0
 607 57 467 -15 330 -15 c 0
 139 -15 46 77 35 230 c 1xfb
335 -220 m 1
 258 -220 l 1
 258 -70 l 1
 409 -70 l 1
 409 -220 l 2
 409 -305 367 -353 312 -377 c 1
 275 -314 l 1
 310 -299 335 -274 335 -220 c 1
EndSplineSet
Validated: 1
EndChar

StartChar: zacute
Encoding: 378 378 302
Width: 504
Flags: MW
HStem: 0 125<211 469> 395 125<54 282 282 282 54 463> 603 187<170 424 246 301>
LayerCount: 2
Fore
SplineSet
35 0 m 1
 469 0 l 1
 469 125 l 1
 211 125 l 1
 463 395 l 1
 463 520 l 1
 54 520 l 1
 54 395 l 1
 282 395 l 1
 35 125 l 1
 35 0 l 1
170 603 m 1
 246 790 l 1
 424 790 l 1
 301 603 l 1
 170 603 l 1
EndSplineSet
Validated: 9
EndChar

StartChar: sacute
Encoding: 347 347 303
Width: 483
Flags: MW
HStem: -15 115<217 265.5 217 304> 420 115<218.5 257.5> 603 187<140 394 216 271>
VStem: 38 126<364.5 390.5 364.5 428.5> 328 130<131 164>
LayerCount: 2
Fore
SplineSet
25 150 m 1
 35 55 115 -15 242 -15 c 0
 366 -15 458 41 458 156 c 0
 458 263 378 300 321 312 c 2
 202 337 l 2
 176 342 164 356 164 373 c 0
 164 408 198 420 239 420 c 0
 276 420 313 406 320 363 c 1
 446 385 l 1
 443 464 368 535 244 535 c 0
 137 535 38 488 38 369 c 0
 38 283 97 235 165 220 c 2
 288 193 l 2
 309 188 328 176 328 152 c 0
 328 110 286 100 245 100 c 0
 189 100 156 126 150 171 c 1
 25 150 l 1
140 603 m 1
 216 790 l 1
 394 790 l 1
 271 603 l 1
 140 603 l 1
EndSplineSet
Validated: 9
EndChar

StartChar: Zacute
Encoding: 377 377 304
Width: 662
Flags: MW
HStem: 0 145<224 612> 575 145<70 423 423 423 70 602> 803 187<240 494 316 371>
LayerCount: 2
Fore
SplineSet
50 0 m 1
 612 0 l 1
 612 145 l 1
 224 145 l 1
 602 575 l 1
 602 720 l 1
 70 720 l 1
 70 575 l 1
 423 575 l 1
 50 145 l 1
 50 0 l 1
240 803 m 1
 316 990 l 1
 494 990 l 1
 371 803 l 1
 240 803 l 1
EndSplineSet
Validated: 9
EndChar

StartChar: Tcaron
Encoding: 356 356 305
Width: 664
Flags: MW
HStem: 0 21G<252 412 252 252> 575 145<30 252 30 634 412 412 412 634> 960 20G<115 256 256 256 412 550 550 550>
VStem: 252 160<0 575>
LayerCount: 2
Fore
SplineSet
412 0 m 1
 252 0 l 1
 252 575 l 1
 30 575 l 1
 30 720 l 1
 634 720 l 1
 634 575 l 1
 412 575 l 1
 412 0 l 1
401 790 m 1
 264 790 l 1
 115 980 l 1
 256 980 l 1
 333 879 l 1
 412 980 l 1
 550 980 l 1
 401 790 l 1
EndSplineSet
Validated: 1
EndChar

StartChar: Sacute
Encoding: 346 346 306
Width: 647
Flags: MW
HStem: -15 140<284.5 358 284.5 398.5> 510 225 595 140<280.5 351.5> 803 187<220 474 296 351>
VStem: 55 154<516.5 549 516.5 590.5> 443 164<175.5 224.5>
LayerCount: 2
Fore
SplineSet
35 230 m 1
 46 77 139 -15 330 -15 c 0
 467 -15 607 57 607 209 c 0
 607 329 533 392 428 422 c 0
 359 441 287 461 254 474 c 0
 220 487 209 503 209 530 c 0
 209 568 248 595 313 595 c 0
 390 595 418 559 427 507 c 1
 583 514 l 1
 573 664 479 735 309 735 c 0
 178 735 55 665 55 516 c 0
 55 448 79 368 205 330 c 0
 248 317 328 296 366 283 c 0
 423 264 443 245 443 204 c 0
 443 147 390 125 326 125 c 0
 243 125 197 153 189 238 c 1
 35 230 l 1
220 803 m 1
 296 990 l 1
 474 990 l 1
 351 803 l 1
 220 803 l 1
EndSplineSet
Validated: 8388617
EndChar

StartChar: multiply
Encoding: 215 215 307
Width: 556
Flags: MW
HStem: 172 21G<156 156 400 400> 573 20G<156 156 400 400>
LayerCount: 2
Fore
SplineSet
278 294 m 1
 156 172 l 1
 67 260 l 1
 189 382 l 1
 67 505 l 1
 156 593 l 1
 278 471 l 1
 400 593 l 1
 489 505 l 1
 366 382 l 1
 489 260 l 1
 400 172 l 1
 278 294 l 1
EndSplineSet
Validated: 1
EndChar

StartChar: tcommaaccent
Encoding: 355 355 308
Width: 383
Flags: MW
HStem: -377 21G<182 182> -220 150<128 205 128 279 128 279> -10 130<191.5 296> 401 119<20 94 20 94 244 343> 650 20G<244 244>
VStem: 94 150<174.5 197 197 401 520 627 627 627> 94 249<152 520 401 520 401 627 401 627> 128 151<-220 -70 -262.5 -70> 205 74<-247 -220>
LayerCount: 2
Fore
SplineSet
332 126 m 1xf880
 341 7 l 1
 321 -4 265 -10 246 -10 c 0
 137 -10 94 50 94 152 c 2
 94 401 l 1
 20 401 l 1
 20 520 l 1xfa
 94 520 l 1
 94 627 l 1
 244 670 l 1
 244 520 l 1xfc
 343 520 l 1
 343 401 l 1xf880
 244 401 l 1
 244 197 l 2xf9
 244 152 244 120 291 120 c 0
 301 120 316 121 332 126 c 1xf880
205 -220 m 1
 128 -220 l 1
 128 -70 l 1
 279 -70 l 1
 279 -220 l 2
 279 -305 237 -353 182 -377 c 1
 145 -314 l 1
 180 -299 205 -274 205 -220 c 1
EndSplineSet
Validated: 1
EndChar

StartChar: lslash
Encoding: 322 322 309
Width: 464
Flags: MW
HStem: 0 21G<154 304 154 154> 715 20G<304 304>
VStem: 154 150<0 248 248 248 483 695 695 695>
LayerCount: 2
Fore
SplineSet
304 0 m 1
 154 0 l 1
 154 248 l 1
 72 199 l 1
 10 308 l 1
 154 394 l 1
 154 695 l 1
 304 735 l 1
 304 483 l 1
 392 536 l 1
 454 427 l 1
 304 337 l 1
 304 0 l 1
EndSplineSet
Validated: 1
EndChar

StartChar: Lslash
Encoding: 321 321 310
Width: 718
Flags: MW
HStem: 0 145<310 688 310 688> 700 20G<150 310 310 310>
VStem: 150 160<145 245 245 245 487 720>
LayerCount: 2
Fore
SplineSet
688 0 m 1
 150 0 l 1
 150 245 l 1
 72 199 l 1
 10 308 l 1
 150 391 l 1
 150 720 l 1
 310 720 l 1
 310 487 l 1
 392 536 l 1
 454 427 l 1
 310 341 l 1
 310 145 l 1
 688 145 l 1
 688 0 l 1
EndSplineSet
Validated: 1
EndChar

StartChar: lcaron
Encoding: 318 318 311
Width: 421
Flags: MW
HStem: 0 21G<55 205 55 55> 570 150<260 337 260 411 260 411>
VStem: 55 150<0 695 695 695> 260 151<570 720 527.5 720> 337 74<543 570>
LayerCount: 2
Fore
SplineSet
205 0 m 1xe8
 55 0 l 1
 55 695 l 1
 205 735 l 1
 205 0 l 1xe8
337 570 m 1
 260 570 l 1
 260 720 l 1xe8
 411 720 l 1
 411 570 l 2
 411 485 369 437 314 413 c 1xf0
 277 476 l 1
 312 491 337 516 337 570 c 1
EndSplineSet
Validated: 1
EndChar

StartChar: tcaron
Encoding: 357 357 312
Width: 521
Flags: MW
HStem: -10 130<191.5 296> 401 119<20 94 20 94 244 343> 570 150<360 437 360 511 360 511>
VStem: 94 150<174.5 197 197 401 520 627 627 627> 94 249<152 520 401 520 401 627 401 627> 360 151<570 720 527.5 720> 437 74<543 570>
LayerCount: 2
Fore
SplineSet
332 126 m 1xf2
 341 7 l 1
 321 -4 265 -10 246 -10 c 0
 137 -10 94 50 94 152 c 2
 94 401 l 1
 20 401 l 1
 20 520 l 1xec
 94 520 l 1
 94 627 l 1
 244 670 l 1
 244 520 l 1
 343 520 l 1
 343 401 l 1xf2
 244 401 l 1
 244 197 l 2xf4
 244 152 244 120 291 120 c 0
 301 120 316 121 332 126 c 1xf2
437 570 m 1
 360 570 l 1
 360 720 l 1
 511 720 l 1
 511 570 l 2
 511 485 469 437 414 413 c 1
 377 476 l 1
 412 491 437 516 437 570 c 1
EndSplineSet
Validated: 1
EndChar

StartChar: dcaron
Encoding: 271 271 313
Width: 741
Flags: MW
HStem: -15 125<250.5 278.5> 410 125<249 275 192 313> 570 150<580 657 375 580>
VStem: 25 150<209 311 209 351> 386 139<209 311> 580 151<570 720 527.5 720> 657 74<543 570>
LayerCount: 2
Fore
SplineSet
375 720 m 1xfa
 525 720 l 1
 525 0 l 1
 385 0 l 1
 385 61 l 1
 355 11 308 -15 249 -15 c 0
 125 -15 25 78 25 260 c 0xfc
 25 442 130 535 254 535 c 0
 296 535 345 522 375 475 c 1
 375 720 l 1xfa
386 260 m 0
 386 362 345 410 281 410 c 0
 217 410 175 362 175 260 c 0
 175 158 221 110 280 110 c 0
 339 110 386 158 386 260 c 0
657 570 m 1
 580 570 l 1
 580 720 l 1
 731 720 l 1
 731 570 l 2
 731 485 689 437 634 413 c 1xfa
 597 476 l 1
 632 491 657 516 657 570 c 1
EndSplineSet
Validated: 1
EndChar

StartChar: dcroat
Encoding: 273 273 314
Width: 580
Flags: MW
HStem: -15 125<250.5 278.5> 0 110<250.5 525 250.5 385> 410 125<249 275 192 313> 562 96<320 375 320 375 525 580> 700 20G<375 525 525 525>
VStem: 25 150<209 311 209 351> 386 139<209 311>
LayerCount: 2
Fore
SplineSet
375 562 m 1xbe
 320 562 l 1
 320 658 l 1
 375 658 l 1
 375 720 l 1
 525 720 l 1
 525 658 l 1
 580 658 l 1
 580 562 l 1
 525 562 l 1
 525 0 l 1
 385 0 l 1
 385 61 l 1x7e
 355 11 308 -15 249 -15 c 0
 125 -15 25 78 25 260 c 0
 25 442 130 535 254 535 c 0
 296 535 345 522 375 475 c 1
 375 562 l 1xbe
386 260 m 0
 386 362 345 410 281 410 c 0
 217 410 175 362 175 260 c 0
 175 158 221 110 280 110 c 0
 339 110 386 158 386 260 c 0
EndSplineSet
Validated: 1
EndChar

StartChar: Dcroat
Encoding: 272 272 315
Width: 784
Flags: MW
HStem: 0 144<300 365 365 390> 300 125<10 140 10 140 300 426> 575 145<300 362 300 300>
VStem: 140 160<144 300 144 300 144 300 425 575> 581 163<279.5 455>
LayerCount: 2
Fore
SplineSet
390 0 m 2
 140 0 l 1
 140 300 l 1
 10 300 l 1
 10 425 l 1
 140 425 l 1
 140 720 l 1
 379 720 l 2
 621 720 744 594 744 362 c 0
 744 137 632 0 390 0 c 2
300 300 m 1
 300 144 l 1
 365 144 l 2
 501 144 581 196 581 363 c 0
 581 547 480 575 362 575 c 2
 300 575 l 1
 300 425 l 1
 426 425 l 1
 426 300 l 1
 300 300 l 1
EndSplineSet
Validated: 1
EndChar

StartChar: oslash
Encoding: 248 248 316
Width: 566
Flags: MW
HStem: -15 125<275 317.5 275 352.5> 410 125<248.5 290.5>
VStem: 25 150<252.5 308.5 252.5 356> 391 150<211.5 268>
LayerCount: 2
Fore
SplineSet
517 465 m 1
 493 435 l 1
 523 392 541 334 541 260 c 0
 541 68 422 -15 283 -15 c 0
 237 -15 192 -6 154 13 c 1
 132 -15 l 1
 46 55 l 1
 71 86 l 1
 42 129 25 187 25 260 c 0
 25 452 144 535 283 535 c 0
 328 535 372 526 409 508 c 1
 431 535 l 1
 517 465 l 1
391 260 m 0
 391 276 390 290 388 304 c 1
 239 119 l 1
 252 113 267 110 283 110 c 0
 352 110 391 163 391 260 c 0
175 260 m 0
 175 245 175 231 177 219 c 1
 324 402 l 1
 312 407 298 410 283 410 c 0
 214 410 175 357 175 260 c 0
EndSplineSet
Validated: 1
EndChar

StartChar: Oslash
Encoding: 216 216 317
Width: 765
Flags: MW
HStem: -15 140<364.5 437.5 364.5 492.5> 595 140<328 400>
VStem: 40 165<342 433.5 342 468.5> 560 165<286.5 378.5>
LayerCount: 2
Fore
SplineSet
709 654 m 1
 661 596 l 1
 703 533 725 452 725 360 c 0
 725 143 602 -15 383 -15 c 0
 307 -15 243 3 191 37 c 1
 148 -15 l 1
 52 66 l 1
 102 126 l 1
 61 189 40 269 40 360 c 0
 40 577 163 735 383 735 c 0
 457 735 520 717 571 684 c 1
 613 735 l 1
 709 654 l 1
560 360 m 0
 560 397 555 431 547 461 c 1
 288 153 l 1
 315 134 346 125 383 125 c 0
 492 125 560 213 560 360 c 0
205 360 m 0
 205 324 209 291 217 262 c 1
 474 569 l 1
 448 586 417 595 383 595 c 0
 273 595 205 507 205 360 c 0
EndSplineSet
Validated: 1
EndChar

StartChar: Thorn
Encoding: 222 222 318
Width: 672
Flags: MW
HStem: 0 21G<70 230 70 70> 130 140<230 340 340 353 230 340> 480 140<230 345 230 338> 715 20G<70 230 230 230>
VStem: 70 160<0 130 270 480 620 735> 469 163<352.5 405>
LayerCount: 2
Fore
SplineSet
230 0 m 1
 70 0 l 1
 70 735 l 1
 230 735 l 1
 230 620 l 1
 345 620 l 2
 490 620 632 554 632 379 c 0
 632 234 532 130 353 130 c 2
 230 130 l 1
 230 0 l 1
230 480 m 1
 230 270 l 1
 340 270 l 2
 443 270 469 329 469 376 c 0
 469 434 433 480 338 480 c 2
 230 480 l 1
EndSplineSet
Validated: 1
EndChar

StartChar: oe
Encoding: 339 339 319
Width: 925
Flags: MW
HStem: -15 125<248.5 317.5 248.5 318.5 626.5 684> 217 102<544 748 544 899 542 748> 410 125<248.5 317.5 621 675>
VStem: 25 150<211.5 308.5 211.5 356> 391 151<217 217 217 308.5> 748 152<319 319>
LayerCount: 2
Fore
SplineSet
25 260 m 0
 25 452 144 535 283 535 c 0
 354 535 420 513 467 446 c 1
 515 513 582 535 650 535 c 0
 781 535 900 455 900 281 c 0
 900 250 899 219 899 217 c 2
 542 217 l 1
 546 145 593 110 660 110 c 0
 708 110 739 137 751 170 c 1
 891 141 l 1
 852 38 775 -15 650 -15 c 0
 581 -15 515 7 467 74 c 1
 420 7 354 -15 283 -15 c 0
 144 -15 25 68 25 260 c 0
175 260 m 0
 175 163 214 110 283 110 c 0
 352 110 391 163 391 260 c 0
 391 357 352 410 283 410 c 0
 214 410 175 357 175 260 c 0
646 410 m 0
 596 410 550 376 544 319 c 1
 748 319 l 1
 744 374 704 410 646 410 c 0
EndSplineSet
Validated: 1
EndChar

StartChar: OE
Encoding: 338 338 320
Width: 1011
Flags: MW
HStem: 0 145<604 951 604 951> 295 145<604 891 604 891> 575 145<405 422 422 444 604 941 604 604>
VStem: 40 163<279.5 455 279.5 478> 444 160<145 295 440 575>
LayerCount: 2
Fore
SplineSet
951 0 m 1
 394 0 l 2
 152 0 40 137 40 362 c 0
 40 594 163 720 405 720 c 2
 941 720 l 1
 941 575 l 1
 604 575 l 1
 604 440 l 1
 891 440 l 1
 891 295 l 1
 604 295 l 1
 604 145 l 1
 951 145 l 1
 951 0 l 1
444 144 m 1
 444 575 l 1
 422 575 l 2
 304 575 203 547 203 363 c 0
 203 196 283 144 419 144 c 2
 444 144 l 1
EndSplineSet
Validated: 1
EndChar

StartChar: Eth
Encoding: 208 208 321
Width: 784
Flags: MW
HStem: 0 144<300 365 365 390> 300 125<10 140 10 140 300 426> 575 145<300 362 300 300>
VStem: 140 160<144 300 144 300 144 300 425 575> 581 163<279.5 455>
LayerCount: 2
Fore
SplineSet
390 0 m 2
 140 0 l 1
 140 300 l 1
 10 300 l 1
 10 425 l 1
 140 425 l 1
 140 720 l 1
 379 720 l 2
 621 720 744 594 744 362 c 0
 744 137 632 0 390 0 c 2
300 300 m 1
 300 144 l 1
 365 144 l 2
 501 144 581 196 581 363 c 0
 581 547 480 575 362 575 c 2
 300 575 l 1
 300 425 l 1
 426 425 l 1
 426 300 l 1
 300 300 l 1
EndSplineSet
Validated: 1
EndChar

StartChar: ntilde
Encoding: 241 241 322
Width: 585
Flags: MW
HStem: 0 21G<55 205 55 55 380 380 380 530> 409 111<55 329> 409 126<310 329> 595 120<356.5 385> 645 120<211 249.5>
VStem: 55 150<0 283> 380 150<0 315 315 319 0 345>
LayerCount: 2
Fore
SplineSet
205 0 m 1xd6
 55 0 l 1
 55 520 l 1xce
 196 520 l 1xd6
 196 445 l 1
 234 509 279 535 341 535 c 0xce
 485 535 530 443 530 319 c 2xd6
 530 0 l 1xce
 380 0 l 1
 380 315 l 2
 380 375 358 409 300 409 c 0
 248 409 205 367 205 283 c 2
 205 0 l 1xd6
130 595 m 1
 130 725 l 1
 158 755 197 765 225 765 c 0
 294 765 332 715 381 715 c 0
 409 715 448 725 476 765 c 1
 476 635 l 1
 448 605 399 595 371 595 c 0xb6
 302 595 274 645 225 645 c 0
 197 645 158 635 130 595 c 1
EndSplineSet
Validated: 1
EndChar

StartChar: otilde
Encoding: 245 245 323
Width: 566
Flags: MW
HStem: -15 125<248.5 317.5 248.5 352.5> 410 125<248.5 317.5> 645 70 645 120<199 237.5>
VStem: 25 150<211.5 308.5 211.5 356> 391 150<211.5 308.5> 464 77
LayerCount: 2
Fore
SplineSet
25 260 m 0xda
 25 452 144 535 283 535 c 0
 422 535 541 452 541 260 c 0
 541 68 422 -15 283 -15 c 0
 144 -15 25 68 25 260 c 0xda
175 260 m 0xec
 175 163 214 110 283 110 c 0
 352 110 391 163 391 260 c 0
 391 357 352 410 283 410 c 0xdc
 214 410 175 357 175 260 c 0xec
118 595 m 1
 118 725 l 1
 146 755 185 765 213 765 c 0
 282 765 320 715 369 715 c 0
 397 715 436 725 464 765 c 1
 464 635 l 1
 436 605 387 595 359 595 c 0
 290 595 262 645 213 645 c 0
 185 645 146 635 118 595 c 1
EndSplineSet
Validated: 1
EndChar

StartChar: atilde
Encoding: 227 227 324
Width: 556
Flags: MW
HStem: -15 112<216.5 234> 0 21G<375 526 375 375> 413 122<235 295.5> 595 120<325.5 354> 645 120<180 218.5>
VStem: 30 150 346 150<165 235 235 235>
LayerCount: 2
Fore
SplineSet
352 54 m 1xae
 309 2 265 -15 203 -15 c 0xb6
 109 -15 30 36 30 132 c 0xae
 30 244 108 286 234 301 c 0
 288 307 320 313 346 325 c 1xb6
 346 337 l 2xae
 346 371 327 413 264 413 c 0xb6
 206 413 183 374 173 336 c 1
 46 378 l 1
 72 498 174 535 271 535 c 0
 404 535 496 475 496 314 c 2
 496 106 l 2
 496 53 508 19 526 0 c 1
 375 0 l 1
 360 13 354 37 352 54 c 1xae
346 165 m 1
 346 235 l 1
 328 228 304 219 254 209 c 0
 208 200 178 183 180 142 c 0
 181 119 195 97 238 97 c 0
 285 97 329 130 346 165 c 1
99 595 m 1
 99 725 l 1
 127 755 166 765 194 765 c 0
 263 765 301 715 350 715 c 0
 378 715 417 725 445 765 c 1
 445 635 l 1
 417 605 368 595 340 595 c 0
 271 595 243 645 194 645 c 0x76
 166 645 127 635 99 595 c 1
EndSplineSet
Validated: 33
EndChar

StartChar: Ntilde
Encoding: 209 209 325
Width: 769
Flags: MW
HStem: 0 21G<70 226 70 70 537 537 537 699> 700 20G<70 232 232 232 543 699 699 699> 795 130<449.5 478> 845 130<284 322.5>
VStem: 70 156<0 456> 543 156<264 720 0 720>
LayerCount: 2
Fore
SplineSet
226 0 m 1xec
 70 0 l 1
 70 720 l 1xdc
 232 720 l 1xec
 543 264 l 1
 543 720 l 1xdc
 699 720 l 1xec
 699 0 l 1xdc
 537 0 l 1
 226 456 l 1
 226 0 l 1xec
193 795 m 1
 193 935 l 1
 221 965 270 975 298 975 c 0
 367 975 425 925 474 925 c 0
 502 925 551 935 579 975 c 1
 579 835 l 1
 551 805 492 795 464 795 c 0
 395 795 347 845 298 845 c 0
 270 845 221 835 193 795 c 1
EndSplineSet
Validated: 1
EndChar

StartChar: Otilde
Encoding: 213 213 326
Width: 765
Flags: MW
HStem: -15 140<328 437.5 328 492.5> 595 140<328 437.5> 845 80 845 130<284 322.5>
VStem: 40 165<286.5 433.5 286.5 468.5> 560 165<286.5 433.5> 579 146
LayerCount: 2
Fore
SplineSet
40 360 m 0xda
 40 577 163 735 383 735 c 0
 602 735 725 577 725 360 c 0
 725 143 602 -15 383 -15 c 0
 163 -15 40 143 40 360 c 0xda
205 360 m 0xec
 205 213 273 125 383 125 c 0
 492 125 560 213 560 360 c 0
 560 507 492 595 383 595 c 0xdc
 273 595 205 507 205 360 c 0xec
193 795 m 1
 193 935 l 1
 221 965 270 975 298 975 c 0
 367 975 425 925 474 925 c 0
 502 925 551 935 579 975 c 1
 579 835 l 1
 551 805 492 795 464 795 c 0
 395 795 347 845 298 845 c 0
 270 845 221 835 193 795 c 1
EndSplineSet
Validated: 1
EndChar

StartChar: Atilde
Encoding: 195 195 327
Width: 730
Flags: MW
HStem: 0 21G<10 173 10 10 555 720 555 555> 130 132<269 459 269 507 220 459> 700 20G<296 440 440 440> 845 80 845 130<274 312.5>
LayerCount: 2
Fore
SplineSet
296 720 m 1xe8
 440 720 l 1
 720 0 l 1
 555 0 l 1
 507 130 l 1
 220 130 l 1
 173 0 l 1xe8
 10 0 l 1xf0
 296 720 l 1xe8
364 521 m 1
 269 262 l 1
 459 262 l 1
 364 521 l 1
183 795 m 1
 183 935 l 1
 211 965 260 975 288 975 c 0
 357 975 415 925 464 925 c 0
 492 925 541 935 569 975 c 1
 569 835 l 1
 541 805 482 795 454 795 c 0
 385 795 337 845 288 845 c 0
 260 845 211 835 183 795 c 1
EndSplineSet
Validated: 1
EndChar

StartChar: AE
Encoding: 198 198 328
Width: 1074
Flags: MW
HStem: 0 145<637 1014 637 1014> 125 145<344 477 344 477 256 477> 295 145<637 954 637 954> 575 145<637 1004 637 637>
VStem: 477 160<0 295 125 295 270 295 440 490 490 490>
LayerCount: 2
Fore
SplineSet
180 0 m 1x78
 10 0 l 1
 467 720 l 1
 1004 720 l 1
 1004 575 l 1xb8
 637 575 l 1x78
 637 440 l 1
 954 440 l 1xb8
 954 295 l 1
 637 295 l 1
 637 145 l 1
 1014 145 l 1
 1014 0 l 1
 477 0 l 1
 477 125 l 1
 256 125 l 1
 180 0 l 1x78
477 270 m 1
 477 490 l 1
 344 270 l 1
 477 270 l 1
EndSplineSet
Validated: 1
EndChar

StartChar: ae
Encoding: 230 230 329
Width: 878
Flags: MW
HStem: -15 112<223 253> -15 125<580.5 637 580.5 665.5> 217 102<497 701 497 852 496 701> 413 122<235 295.5>
VStem: 30 150 346 150<181 235 181 337 181 354> 701 152<319 319>
LayerCount: 2
Fore
SplineSet
852 217 m 2xbe
 496 217 l 1
 496 145 548 110 613 110 c 0x7e
 661 110 692 137 704 170 c 1
 751 160 797 151 844 141 c 1
 805 38 728 -15 603 -15 c 0
 539 -15 477 4 430 44 c 1
 363 -6 283 -15 223 -15 c 0
 109 -15 30 36 30 132 c 0
 30 244 108 286 234 301 c 0
 288 307 320 313 346 325 c 1
 346 337 l 2
 346 371 327 413 264 413 c 0
 206 413 183 374 173 336 c 1
 131 350 88 364 46 378 c 1
 72 498 174 535 271 535 c 0
 340 535 397 519 437 481 c 1
 483 518 542 535 603 535 c 0
 734 535 853 455 853 281 c 0
 853 250 852 219 852 217 c 2xbe
368 133 m 1
 356 161 346 199 346 235 c 1
 328 228 304 219 254 209 c 0
 208 200 178 183 180 142 c 0
 181 119 198 97 248 97 c 0xbe
 297 97 335 111 368 133 c 1
599 410 m 0
 549 410 503 376 497 319 c 1
 701 319 l 1
 697 374 657 410 599 410 c 0
EndSplineSet
Validated: 33
EndChar

StartChar: germandbls
Encoding: 223 223 330
Width: 693
Flags: MW
HStem: -15 115<462 500.5 462 539> 0 21G<98 245 98 98> 603 128<327.5 400>
VStem: 98 147<0 472 472 493 0 557> 308 126<364.5 409.5 364.5 444> 449 140<532 564.5> 538 130<136 164>
LayerCount: 2
Fore
SplineSet
295 150 m 1xba
 420 171 l 1
 426 126 439 100 485 100 c 0
 516 100 538 120 538 152 c 0
 538 176 519 192 498 198 c 2
 435 215 l 2
 368 233 308 283 308 369 c 0xba
 308 519 449 507 449 557 c 0
 449 572 441 603 359 603 c 0
 296 603 245 567 245 493 c 2
 245 0 l 1
 98 0 l 1
 98 472 l 2
 98 642 208 731 348 731 c 0
 514 731 589 660 589 567 c 0
 589 441 434 446 434 373 c 0
 434 356 446 339 472 332 c 2
 531 317 l 2x7c
 587 303 668 263 668 156 c 0
 668 41 596 -15 482 -15 c 0
 365 -15 305 55 295 150 c 1xba
EndSplineSet
Validated: 1
EndChar

StartChar: eth
Encoding: 240 240 331
Width: 568
Flags: MW
HStem: -15 125<257.5 306.5 257.5 346.5> 370 125<261.5 283 201.5 310.5> 781 20G<333 333>
VStem: 26 150 392 150
LayerCount: 2
Fore
SplineSet
429 745 m 1
 398 691 l 1
 510 604 550 446 542 270 c 0
 533 78 411 -15 282 -15 c 0
 178 -15 23 53 26 245 c 0
 29 437 157 495 246 495 c 0
 320 495 375 457 393 435 c 1
 384 470 370 524 326 566 c 1
 294 511 l 1
 198 567 l 1
 227 617 l 1
 203 623 177 626 146 626 c 1
 158 765 l 1
 211 765 258 757 300 744 c 1
 333 801 l 1
 429 745 l 1
176 240 m 0
 176 143 233 110 282 110 c 0
 331 110 392 143 392 240 c 0
 392 337 335 370 286 370 c 0
 237 370 176 337 176 240 c 0
EndSplineSet
Validated: 33
EndChar

StartChar: ccedilla
Encoding: 231 231 332
Width: 538
Flags: MW
HStem: -200 47<259 272.5 259 286> -81 46<259 266 266 272> -15 125<263 273 263 263> 410 125<242 297>
VStem: 25 150<211.5 308.5 211.5 356> 288 52<-128.5 -105.5>
LayerCount: 2
Fore
SplineSet
288 -117 m 0
 288 -94 279 -81 265 -81 c 0
 253 -81 245 -87 243 -102 c 1
 194 -92 l 1
 218 -10 l 1
 109 10 25 95 25 260 c 0
 25 452 139 535 273 535 c 0
 385 535 485 483 513 344 c 1
 366 322 l 1
 355 384 321 410 273 410 c 0
 211 410 175 357 175 260 c 0
 175 163 208 110 273 110 c 0
 321 110 354 135 365 196 c 1
 513 175 l 1
 485 36 385 -15 273 -15 c 2
 263 -15 l 1
 257 -35 l 1
 266 -35 l 2
 306 -35 340 -59 340 -117 c 0
 340 -175 306 -200 266 -200 c 0
 232 -200 202 -184 194 -143 c 1
 243 -132 l 1
 245 -147 253 -153 265 -153 c 0
 280 -153 288 -140 288 -117 c 0
EndSplineSet
Validated: 1
EndChar

StartChar: Ccedilla
Encoding: 199 199 333
Width: 741
Flags: MW
HStem: -242 57<377.5 394 377.5 410> -99 55<377.5 386 386 393> -15 140<382 388 382 382> 595 140<328 422>
VStem: 40 165<286.5 433.5 286.5 468.5> 412 63<-156 -128>
LayerCount: 2
Fore
SplineSet
412 -142 m 0
 412 -114 401 -99 385 -99 c 0
 370 -99 361 -106 358 -124 c 1
 299 -112 l 1
 329 -11 l 1
 145 15 40 163 40 360 c 0
 40 577 163 735 383 735 c 0
 546 735 665 657 701 513 c 1
 544 469 l 1
 523 559 461 595 383 595 c 0
 273 595 205 507 205 360 c 0
 205 213 278 125 388 125 c 0
 466 125 519 165 544 250 c 1
 701 206 l 1
 657 68 561 -15 388 -15 c 2
 382 -15 l 1
 375 -44 l 1
 386 -44 l 2
 434 -44 475 -72 475 -142 c 0
 475 -212 434 -242 386 -242 c 0
 345 -242 309 -222 299 -173 c 1
 358 -160 l 1
 361 -178 370 -185 385 -185 c 0
 403 -185 412 -170 412 -142 c 0
EndSplineSet
Validated: 1
EndChar

StartChar: cent
Encoding: 162 162 334
Width: 538
Flags: MW
HStem: -115 21G<236 236 236 311> 615 20G<236 311 311 311>
VStem: 25 150<221.5 298 221.5 347> 236 75<-115 -13 -115 -13 117 402 402 402 533 635>
LayerCount: 2
Fore
SplineSet
236 -115 m 1
 236 -13 l 1
 118 1 25 86 25 260 c 0
 25 434 118 518 236 533 c 1
 236 635 l 1
 311 635 l 1
 311 533 l 1
 407 522 488 467 513 344 c 1
 366 322 l 1
 358 366 338 391 311 403 c 1
 311 116 l 1
 338 127 357 153 365 196 c 1
 513 175 l 1
 488 52 407 -2 311 -13 c 1
 311 -115 l 1
 236 -115 l 1
175 260 m 0
 175 183 195 135 236 117 c 1
 236 402 l 1
 197 384 175 336 175 260 c 0
EndSplineSet
Validated: 1
EndChar

StartChar: yen
Encoding: 165 165 335
Width: 705
Flags: MW
HStem: 0 21G<272 433 272 272> 108 75<122 272 122 272 433 583> 228 75<122 266 122 272 122 266 439 583> 700 20G<10 185 185 185 525 695 695 695>
VStem: 272 161<0 108 0 108 183 228>
LayerCount: 2
Fore
SplineSet
433 0 m 1
 272 0 l 1
 272 108 l 1
 122 108 l 1
 122 183 l 1
 272 183 l 1
 272 228 l 1
 122 228 l 1
 122 303 l 1
 266 303 l 1
 10 720 l 1
 185 720 l 1
 357 443 l 1
 525 720 l 1
 695 720 l 1
 439 303 l 1
 583 303 l 1
 583 228 l 1
 433 228 l 1
 433 183 l 1
 583 183 l 1
 583 108 l 1
 433 108 l 1
 433 0 l 1
EndSplineSet
Validated: 1
EndChar

StartChar: divide
Encoding: 247 247 336
Width: 556
Flags: MW
HStem: 102 150<202 353 202 353> 300 125<50 506 50 506> 472 150<202 353 202 353>
VStem: 202 151<102 252 102 252 472 622>
LayerCount: 2
Fore
SplineSet
506 300 m 1
 50 300 l 1
 50 425 l 1
 506 425 l 1
 506 300 l 1
353 472 m 1
 202 472 l 1
 202 622 l 1
 353 622 l 1
 353 472 l 1
353 102 m 1
 202 102 l 1
 202 252 l 1
 353 252 l 1
 353 102 l 1
EndSplineSet
Validated: 1
EndChar

StartChar: eogonek
Encoding: 281 281 337
Width: 558
Flags: MW
HStem: -239 100<376.5 408 376.5 424> -14 21G<268.5 279> 217 102<177 381 177 532 175 381> 410 125<254 308>
VStem: 25 150<217 217 217 356> 236 100<-99 -87.5> 381 152<319 319>
LayerCount: 2
Fore
SplineSet
532 217 m 2
 175 217 l 1
 179 145 226 110 293 110 c 0
 341 110 372 137 384 170 c 1
 431 160 477 151 524 141 c 1
 497 69 455 35 392 0 c 0
 366 -14 336 -39 336 -80 c 0
 336 -118 360 -139 393 -139 c 0
 423 -139 441 -123 457 -93 c 1
 480 -115 503 -136 526 -158 c 1
 509 -193 460 -239 388 -239 c 0
 299 -239 236 -192 236 -104 c 0
 236 -71 255 -29 279 -14 c 1
 258 -14 223 -10 206 -5 c 0
 105 22 25 106 25 260 c 0
 25 452 150 535 283 535 c 0
 414 535 533 455 533 281 c 0
 533 250 532 219 532 217 c 2
279 410 m 0
 229 410 183 376 177 319 c 1
 381 319 l 1
 377 374 337 410 279 410 c 0
EndSplineSet
Validated: 1
EndChar

StartChar: aogonek
Encoding: 261 261 338
Width: 556
Flags: MW
HStem: -239 100<446.5 478 446.5 496> -15 112<216.5 234> 0 21G<469.5 495 495 526> 413 122<235 295.5>
VStem: 30 150 306 100<-99 -66> 346 150<165 235 235 235>
LayerCount: 2
Fore
SplineSet
352 54 m 1xda
 309 2 265 -15 203 -15 c 0
 109 -15 30 36 30 132 c 0
 30 244 108 286 234 301 c 0
 288 307 320 313 346 325 c 1
 346 337 l 2
 346 371 327 413 264 413 c 0
 206 413 183 374 173 336 c 1xda
 46 378 l 1
 72 498 174 535 271 535 c 0
 404 535 496 475 496 314 c 2
 496 106 l 2
 496 53 508 19 526 0 c 1
 495 0 l 2
 444 0 406 -29 406 -80 c 0
 406 -118 430 -139 463 -139 c 0xbc
 493 -139 511 -123 527 -93 c 1
 596 -158 l 1
 579 -193 532 -239 460 -239 c 0
 371 -239 306 -187 306 -99 c 0
 306 -33 345 1 381 20 c 1
 370 26 356 41 352 54 c 1xda
346 165 m 1
 346 235 l 1
 328 228 304 219 254 209 c 0
 208 200 178 183 180 142 c 0
 181 119 195 97 238 97 c 0
 285 97 329 130 346 165 c 1
EndSplineSet
Validated: 33
EndChar

StartChar: Eogonek
Encoding: 280 280 339
Width: 667
Flags: MW
HStem: -239 100<546.5 578 546.5 593> 0 145<230 455 559.5 585 585 607> 295 145<230 547 230 547> 575 145<230 597 230 230>
VStem: 70 160<145 295 440 575> 406 100<-99 -78.5>
LayerCount: 2
Fore
SplineSet
455 0 m 1
 70 0 l 1
 70 720 l 1
 597 720 l 1
 597 575 l 1
 230 575 l 1
 230 440 l 1
 547 440 l 1
 547 295 l 1
 230 295 l 1
 230 145 l 1
 607 145 l 1
 607 0 l 1
 585 0 l 2
 534 0 506 -39 506 -80 c 0
 506 -118 530 -139 563 -139 c 0
 593 -139 611 -123 627 -93 c 1
 696 -158 l 1
 679 -193 629 -239 557 -239 c 0
 468 -239 406 -187 406 -99 c 0
 406 -58 426 -18 455 0 c 1
EndSplineSet
Validated: 1
EndChar

StartChar: Aogonek
Encoding: 260 260 340
Width: 730
Flags: MW
HStem: -239 100<636.5 668 636.5 686> 0 21G<10 173 10 10 656 685 685 720> 130 132<269 459 269 507 220 459> 700 20G<296 440 440 440>
VStem: 496 100<-99 -71.5>
LayerCount: 2
Fore
SplineSet
296 720 m 1
 440 720 l 1
 720 0 l 1
 685 0 l 2
 627 0 596 -39 596 -80 c 0
 596 -118 620 -139 653 -139 c 0
 683 -139 701 -123 717 -93 c 1
 786 -158 l 1
 769 -193 722 -239 650 -239 c 0
 561 -239 496 -187 496 -99 c 0
 496 -44 521 -10 550 12 c 1
 507 130 l 1
 220 130 l 1
 173 0 l 1
 10 0 l 1
 296 720 l 1
364 521 m 1
 269 262 l 1
 459 262 l 1
 364 521 l 1
EndSplineSet
Validated: 1
EndChar

StartChar: afii10060
Encoding: 1035 1035 341
Width: 792
Flags: MW
HStem: 0 21G<252 412 252 252 587 587 587 737> 339 126<517 536> 575 145<30 252 30 634 412 412 412 634>
VStem: 252 160<0 219 385 575> 587 150<0 245 245 249 0 275>
LayerCount: 2
Fore
SplineSet
412 0 m 1
 252 0 l 1
 252 575 l 1
 30 575 l 1
 30 720 l 1
 634 720 l 1
 634 575 l 1
 412 575 l 1
 412 385 l 1
 447 442 486 465 548 465 c 0
 692 465 737 373 737 249 c 2
 737 0 l 1
 587 0 l 1
 587 245 l 2
 587 305 565 339 507 339 c 0
 456 339 414 299 412 219 c 2
 412 0 l 1
EndSplineSet
Validated: 1
EndChar

StartChar: afii10051
Encoding: 1026 1026 342
Width: 792
Flags: MW
HStem: -15 132<548 553 519 616> 0 21G<252 412 252 252> 339 126<517 536> 575 145<30 252 30 634 412 412 412 634>
VStem: 252 160<0 219 385 575> 587 150<222 245 245 249 114 275>
LayerCount: 2
Fore
SplineSet
471 -1 m 1xbc
 489 123 l 1
 506 118 514 117 524 117 c 0
 582 117 587 169 587 222 c 2
 587 245 l 2
 587 305 565 339 507 339 c 0
 456 339 414 299 412 219 c 2
 412 0 l 1
 252 0 l 1
 252 575 l 1
 30 575 l 1
 30 720 l 1
 634 720 l 1
 634 575 l 1xbc
 412 575 l 1
 412 385 l 1
 447 442 486 465 548 465 c 0
 692 465 737 373 737 249 c 2
 737 167 l 2
 737 61 672 -15 560 -15 c 0x7c
 536 -15 493 -10 471 -1 c 1xbc
EndSplineSet
Validated: 1
EndChar

StartChar: afii10108
Encoding: 1115 1115 343
Width: 624
Flags: MW
HStem: 0 21G<94 244 94 94 419 419 419 569> 339 126<349 368> 501 119<20 94 20 94 244 343> 715 20G<244 244>
VStem: 94 150<0 225 385 501 620 692 692 692> 419 150<0 245 245 249 0 275>
LayerCount: 2
Fore
SplineSet
244 0 m 1
 94 0 l 1
 94 501 l 1
 20 501 l 1
 20 620 l 1
 94 620 l 1
 94 692 l 1
 244 735 l 1
 244 620 l 1
 343 620 l 1
 343 501 l 1
 244 501 l 1
 244 385 l 1
 279 442 318 465 380 465 c 0
 524 465 569 373 569 249 c 2
 569 0 l 1
 419 0 l 1
 419 245 l 2
 419 305 397 339 339 339 c 0
 289 339 248 301 244 225 c 1
 244 0 l 1
EndSplineSet
Validated: 1
EndChar

StartChar: afii10099
Encoding: 1106 1106 344
Width: 624
Flags: MW
HStem: -15 132<380 385 351 448> 0 21G<94 244 94 94> 339 126<349 368> 501 119<20 94 20 94 244 343> 715 20G<244 244>
VStem: 94 150<0 225 385 501 620 692 692 692> 419 150<222 245 245 249 114 275>
LayerCount: 2
Fore
SplineSet
303 -1 m 1xbe
 321 123 l 1
 338 118 346 117 356 117 c 0
 414 117 419 169 419 222 c 2
 419 245 l 2
 419 305 397 339 339 339 c 0
 289 339 248 301 244 225 c 1
 244 0 l 1
 94 0 l 1
 94 501 l 1
 20 501 l 1
 20 620 l 1
 94 620 l 1
 94 692 l 1
 244 735 l 1
 244 620 l 1
 343 620 l 1
 343 501 l 1xbe
 244 501 l 1
 244 385 l 1
 279 442 318 465 380 465 c 0
 524 465 569 373 569 249 c 2
 569 167 l 2
 569 61 504 -15 392 -15 c 0x7e
 368 -15 325 -10 303 -1 c 1xbe
EndSplineSet
Validated: 1
EndChar
